<svg xmlns="http://www.w3.org/2000/svg" width="32" height="32" viewBox="0 0 24 24"><path fill="#503b34" d="M13.825 7.7q-.35-.35-.775-.55t-1-.2q-.45 0-.875.125t-.775.475L8.95 6.1q.35-.35.95-.638T11 5.1V4q0-.425.287-.713T12 3q.425 0 .713.288T13 4v1.05q.875.175 1.563.625t1.187 1.15q.25.35.088.75t-.588.6q-.35.125-.725 0t-.7-.475ZM19.1 21.9L15.2 18q-.375.375-1.025.613T13 18.9V20q0 .425-.288.713T12 21q-.425 0-.713-.288T11 20v-1.15q-1.125-.275-1.963-.938T7.7 16.25q-.2-.375-.025-.8t.625-.6q.375-.15.775 0t.625.575q.375.7 1 1.137t1.5.438q.45 0 .825-.113t.725-.337L2.1 4.9q-.275-.275-.275-.7t.275-.7q.275-.275.7-.275t.7.275l17 17q.15.15.213.325t.062.375q0 .2-.063.375t-.212.325q-.275.275-.7.275t-.7-.275Z"/></svg>