<svg version="1.2" xmlns="http://www.w3.org/2000/svg" viewBox="0 0 440 531" width="440" height="531">
	<title>casque-svg</title>
	<style>
		.s0 { fill: #523c2f } 
		.s1 { fill: #664e40 } 
		.s2 { fill: #8d664e } 
		.s3 { fill: #3d241a } 
		.s4 { fill: #916a53 } 
	</style>
	<g id="Calque-2">
		<path id="Layer" class="s0" d="m231.3 353.9c33.1-63.6 100.7-94 150.9-67.9 50.2 26.2 64 99 30.8 162.6-33.1 63.7-100.7 94.1-150.9 67.9-50.2-26.1-64-98.9-30.8-162.6z"/>
		<path id="Layer" class="s1" d="m62.7 282.9c-9-40.2-14.5-113.5-1.3-153.3 13.2-39.4 35.1-81.1 71.1-104.1 77.8-49.5 217.6-23.8 266.7 55.5 37.3 60.2 25.5 174.2 7.1 240.2-1.9 7.2-59.3 1.9-51.6-21.1 27.1-81.2 16.9-163.1-11.6-202.9-67.7-94.8-216-55.8-234.1 32.8-10.6 51.9-5.2 68.4-8.2 126.8 0 0-29.1 66.3-38.1 26.1z"/>
		<path id="Layer" class="s2" d="m45.2 247.6c3.4-40.3 8.5-117.2 30-155.6 21.4-38.3 41.4-52.7 41.4-52.7 0 0-29.9 58-37.1 82.6-14.6 50.2-15.8 74.6-14.8 117.2 0 0-22.9 48.8-19.5 8.5z"/>
		<path id="Layer" class="s2" d="m241.6 1.2c66.8-3.8 140.5 25.4 172.8 80.4 35.4 60.2 31.2 179.1 2 256.5-2.6 7-51.5-14.4-44.2-37.4 25.7-81.2 16-163-11-202.9-64.2-94.8-149.1-94.9-119.6-96.6z"/>
		<path id="Layer" class="s1" d="m253.2 378.2c30.3-58.1 89.4-87.2 132.1-64.9 42.7 22.2 52.8 87.3 22.5 145.4-30.3 58.1-89.4 87.2-132.1 64.9-42.7-22.2-52.7-87.3-22.5-145.4z"/>
		<path id="Layer" class="s1" d="m3.5 366.1c-11.8-64.4 16.9-123.7 64.3-132.4 47.3-8.7 95.3 36.5 107.1 101 11.8 64.4-17 123.6-64.3 132.3-47.3 8.7-95.3-36.5-107.1-100.9z"/>
		<path id="Layer" class="s0" d="m30.3 361.8c-6.3-65.9 23-122.6 65.5-126.7 42.5-4.1 82 46.1 88.3 112 6.4 65.9-22.9 122.7-65.4 126.7-42.5 4.1-82-46-88.4-112z"/>
		<path id="Layer" class="s3" d="m64.6 356c-4.9-47.2 14-87.9 42.2-90.9 28.2-2.9 55.1 33 60 80.2 4.9 47.2-13.9 87.9-42.1 90.8-28.3 3-55.1-32.9-60.1-80.1z"/>
		<path id="Layer" class="s4" d="m279.9 405.5c16.1-48.3 58.8-77.6 95.3-65.4 36.5 12.2 53.1 61.3 36.9 109.6-16.1 48.2-58.8 77.5-95.3 65.3-36.5-12.2-53-61.2-36.9-109.5z"/>
	</g>
</svg>