<?xml version="1.0" encoding="UTF-8" standalone="no"?>
<!DOCTYPE svg PUBLIC "-//W3C//DTD SVG 1.1//EN" "http://www.w3.org/Graphics/SVG/1.1/DTD/svg11.dtd">
<!-- Created with Vectornator (http://vectornator.io/) -->
<svg height="100%" stroke-miterlimit="10" style="fill-rule:nonzero;clip-rule:evenodd;stroke-linecap:round;stroke-linejoin:round;" version="1.1" viewBox="0 0 793.8 793.8" width="100%" xml:space="preserve" xmlns="http://www.w3.org/2000/svg" xmlns:vectornator="http://vectornator.io" xmlns:xlink="http://www.w3.org/1999/xlink">
<defs/>
<g id="Calque-2" vectornator:layerName="Calque 2">
<path d="M378.269 460.943C411.429 397.295 479.001 366.898 529.194 393.049C579.388 419.2 593.196 491.996 560.035 555.643C526.875 619.291 459.303 649.688 409.11 623.537C358.916 597.386 345.108 524.59 378.269 460.943Z" fill="#523c2f" fill-rule="nonzero" opacity="1" stroke="none"/>
<path d="M209.696 389.91C200.659 349.715 195.188 276.389 208.449 236.606C221.573 197.235 243.465 155.46 279.493 132.534C357.266 83.0414 497.107 108.666 546.217 187.997C583.49 248.207 571.693 362.163 553.347 428.207C551.351 435.395 493.993 430.115 501.683 407.076C528.796 325.86 518.573 244.021 490.13 204.2C422.401 109.38 274.052 148.391 255.971 236.956C245.36 288.933 250.797 305.361 247.824 363.798C247.824 363.798 218.732 430.106 209.696 389.91Z" fill="#664e40" fill-rule="nonzero" opacity="1" stroke="none"/>
<path d="M192.208 354.596C195.605 314.322 200.735 237.383 222.162 199.04C243.589 160.697 263.559 146.288 263.559 146.288C263.559 146.288 233.723 204.326 226.534 228.947C211.899 279.068 210.659 303.494 211.699 346.066C211.699 346.066 188.81 394.87 192.208 354.596Z" fill="#8d664e" fill-rule="nonzero" opacity="1" stroke="none"/>
<path d="M388.618 108.218C455.385 104.408 529.124 133.596 561.442 188.632C596.797 248.842 592.624 367.731 563.419 445.112C560.794 452.065 511.904 430.749 519.199 407.711C544.917 326.494 535.22 244.656 508.24 204.835C443.996 110.015 359.146 109.9 388.618 108.218Z" fill="#8d664e" fill-rule="nonzero" opacity="1" stroke="none"/>
<path d="M400.226 485.181C430.49 427.093 489.624 398.03 532.306 420.268C574.988 442.505 585.055 507.622 554.791 565.71C524.527 623.798 465.393 652.86 422.711 630.623C380.029 608.385 369.962 543.269 400.226 485.181Z" fill="#664e40" fill-rule="nonzero" opacity="1" stroke="none"/>
<path d="M150.479 473.108C138.658 408.685 167.45 349.418 214.787 340.732C262.124 332.046 310.081 377.231 321.902 441.654C333.723 506.078 304.931 565.344 257.594 574.03C210.257 582.716 162.3 537.532 150.479 473.108Z" fill="#664e40" fill-rule="nonzero" opacity="1" stroke="none"/>
<path d="M177.335 468.837C171.018 402.914 200.329 346.174 242.804 342.104C285.278 338.033 324.832 388.175 331.149 454.097C337.466 520.02 308.155 576.761 265.681 580.831C223.206 584.901 183.653 534.76 177.335 468.837Z" fill="#523c2f" fill-rule="nonzero" opacity="1" stroke="none"/>
<path d="M211.635 462.976C206.694 415.753 225.558 375.078 253.769 372.126C281.98 369.175 308.855 405.064 313.796 452.287C318.737 499.511 299.872 540.185 271.661 543.137C243.45 546.089 216.576 510.199 211.635 462.976Z" fill="#3d241a" fill-rule="nonzero" opacity="1" stroke="none"/>
<path d="M426.916 512.49C443.048 464.204 485.722 434.947 522.231 447.144C558.741 459.342 575.26 508.373 559.128 556.66C542.997 604.947 500.323 634.203 463.813 622.006C427.304 609.809 410.784 560.777 426.916 512.49Z" fill="#916a53" fill-rule="nonzero" opacity="1" stroke="none"/>
</g>
</svg>
