<?xml version="1.0" encoding="UTF-8" standalone="no"?>
<!DOCTYPE svg PUBLIC "-//W3C//DTD SVG 1.1//EN" "http://www.w3.org/Graphics/SVG/1.1/DTD/svg11.dtd">
<!-- Created with Vectornator (http://vectornator.io/) -->
<svg height="100%" stroke-miterlimit="10" style="fill-rule:nonzero;clip-rule:evenodd;stroke-linecap:round;stroke-linejoin:round;" version="1.1" viewBox="0 0 603.117 642.013" width="100%" xml:space="preserve" xmlns="http://www.w3.org/2000/svg" xmlns:vectornator="http://vectornator.io" xmlns:xlink="http://www.w3.org/1999/xlink">
<defs/>
<g id="Calque-1" vectornator:layerName="Calque 1">
<path d="M274.149 555.316C274.149 536.622 324.122 521.469 385.767 521.469C447.411 521.469 497.384 536.622 497.384 555.316C497.384 574.009 447.411 589.163 385.767 589.163C324.122 589.163 274.149 574.009 274.149 555.316Z" fill="#d6cbc9" fill-rule="nonzero" opacity="1" stroke="none"/>
<path d="M252.065 595.302C252.065 575.583 199.35 559.597 134.323 559.597C69.2962 559.597 16.5815 575.583 16.5815 595.302C16.5815 615.02 69.2962 631.006 134.323 631.006C199.35 631.006 252.065 615.02 252.065 595.302Z" fill="#d6cbc9" fill-rule="nonzero" opacity="1" stroke="none"/>
<path d="M383.429 561.129C357.086 558.396 353.215 583.333 367.73 473.579C376.578 406.675 296.215 337.198 390.872 337.964C485.53 338.729 403.286 396.04 405.628 474.904C408.266 563.716 439.941 566.992 383.429 561.129Z" fill="#d6cbc9" fill-rule="nonzero" opacity="1" stroke="none"/>
<path d="M293.865 95.454C300.549 108.051 312.248 133.199 304.181 154.711C280.835 216.967 256.993 274.606 279.759 342.904C304.137 416.039 439.432 467.887 489.713 349.369C515.674 288.174 496.888 220.845 478.432 157.922C466.469 117.135 484.808 115.087 491.834 96.6783C496.324 84.9144 456.506 72.8593 389.268 73.5882C322.03 74.3171 286.951 82.4263 293.865 95.454Z" fill="#d6cbc9" fill-rule="nonzero" opacity="1" stroke="none"/>
<path d="M280.616 294.329C280.616 238.484 332.593 245.879 390.047 247.391C451.2 249.001 488.749 238.484 488.749 294.329C488.749 350.174 442.157 395.445 384.683 395.445C327.209 395.445 280.616 350.174 280.616 294.329Z" fill="#c6713d" fill-rule="nonzero" opacity="1" stroke="none"/>
<path d="M290.006 260.518C290.006 251.195 333.072 243.636 386.196 243.636C439.32 243.636 482.386 251.195 482.386 260.518C482.386 269.842 439.32 277.4 386.196 277.4C333.072 277.4 290.006 269.842 290.006 260.518Z" fill="#ffa749" fill-rule="nonzero" opacity="1" stroke="none"/>
<path d="M301.987 93.6011C301.987 86.226 338.99 80.2473 384.636 80.2473C430.282 80.2473 467.285 86.226 467.285 93.6011C467.285 100.976 430.282 106.955 384.636 106.955C338.99 106.955 301.987 100.976 301.987 93.6011Z" fill="#baa8a6" fill-rule="nonzero" opacity="1" stroke="none"/>
<path d="M459.526 24.5164L480.492 28.9294C480.492 28.9294 442.177 202.521 429.618 262.098C429.404 263.114 429.528 264.898 425.174 264.944C420.819 264.99 416.25 264.469 412.201 262.282C408.152 260.094 408.979 256.194 408.979 256.194L459.526 24.5164Z" fill="#c54c41" fill-rule="nonzero" opacity="1" stroke="none"/>
<path d="M322.345 197.199C322.345 183.403 338.928 156.637 348.764 156.637C358.599 156.637 366.572 167.822 366.572 181.618C366.572 195.415 349.988 222.18 340.153 222.18C330.318 222.18 322.345 210.996 322.345 197.199Z" fill="#ffeee9" fill-rule="nonzero" opacity="1" stroke="none"/>
<path d="M46.1338 207.106C46.1338 192.552 63.6272 164.318 74.0019 164.318C84.3766 164.318 92.787 176.116 92.787 190.67C92.787 205.223 75.2937 233.457 64.9189 233.457C54.5442 233.457 46.1338 221.659 46.1338 207.106Z" fill="#ffeee9" fill-rule="nonzero" opacity="1" stroke="none"/>
<path d="M474.529 11.9092L578.997 70.5021C583.372 72.9559 584.453 79.1867 581.411 84.4189L581.411 84.4189C578.369 89.6512 572.357 91.9036 567.982 89.4498L463.514 30.8569C459.139 28.4032 458.058 22.1724 461.1 16.9401L461.1 16.9401C464.142 11.7078 470.155 9.45542 474.529 11.9092Z" fill="#c54c41" fill-rule="nonzero" opacity="1" stroke="none"/>
<path d="M113.455 375.794L142.478 375.794L142.478 586.851L113.455 586.851L113.455 375.794Z" fill="#d6cbc9" fill-rule="nonzero" opacity="1" stroke="none"/>
<path d="M10.3298 162.891C28.1881 118.546 233.148 103.541 257.1 163.739C271.05 198.799 171.602 395.458 131.561 391.943C70.7595 386.606-3.40873 197.007 10.3298 162.891Z" fill="#d6cbc9" fill-rule="nonzero" opacity="1" stroke="none"/>
<path d="M45.3818 233.54C62.0081 196.64 211.657 198.416 216.057 235.455C218.983 260.08 153.616 367.949 128.374 368.309C97.6288 368.747 33.0701 260.865 45.3818 233.54Z" fill="#8e5444" fill-rule="nonzero" opacity="1" stroke="none"/>
<path d="M44.9808 233.855C44.637 226.697 77.5072 206.026 124.559 206.724C179.132 207.534 204.976 214.742 214.861 232.272C220.981 243.125 178.472 253.25 131.415 253.25C84.3586 253.25 45.5787 246.3 44.9808 233.855Z" fill="#b8644b" fill-rule="nonzero" opacity="1" stroke="none"/>
<path d="M28.0782 158.598C28.0782 145.997 74.9642 135.781 132.801 135.781C190.638 135.781 237.524 145.997 237.524 158.598C237.524 171.2 190.638 181.416 132.801 181.416C74.9642 181.416 28.0782 171.2 28.0782 158.598Z" fill="#baa8a6" fill-rule="nonzero" opacity="1" stroke="none"/>
</g>
</svg>
