<?xml version="1.0" encoding="UTF-8" standalone="no"?>
<!DOCTYPE svg PUBLIC "-//W3C//DTD SVG 1.1//EN" "http://www.w3.org/Graphics/SVG/1.1/DTD/svg11.dtd">
<!-- Created with Vectornator (http://vectornator.io/) -->
<svg height="100%" stroke-miterlimit="10" style="fill-rule:nonzero;clip-rule:evenodd;stroke-linecap:round;stroke-linejoin:round;" version="1.1" viewBox="0 0 793.8 793.8" width="100%" xml:space="preserve" xmlns="http://www.w3.org/2000/svg" xmlns:vectornator="http://vectornator.io" xmlns:xlink="http://www.w3.org/1999/xlink">
<defs/>
<g id="Calque-2" vectornator:layerName="Calque 2">
<path d="M333.646 399.144C350.494 397.897 352.259 397.171 366.312 399.806C372.428 400.953 401.041 411.307 406.948 414.261C411.396 416.484 415.482 442.759 408.585 446.988C379.676 464.715 339.429 420.711 329.283 416.326L333.646 399.144Z" fill="#ffbe96" fill-rule="nonzero" opacity="1" stroke="none"/>
<path d="M321.701 58.8677C329.759 53.4957 346.804 58.4304 355.447 60.8145C382.877 68.3814 403.584 80.6818 403.584 106.918C403.584 113.38 396.9 118.3 396.9 125.992C396.9 127.9 386.293 112.096 384.509 108.825C381.869 103.985 333.002 86.2349 334.68 82.879L321.701 58.8677Z" fill="#ffbe96" fill-rule="nonzero" opacity="1" stroke="none"/>
<path d="M0 737.73C0 713.842 177.532 694.477 396.528 694.477C615.525 694.477 793.057 713.842 793.057 737.73C793.057 761.617 615.525 780.982 396.528 780.982C177.532 780.982 0 761.617 0 737.73Z" fill="#f3dbda" fill-rule="nonzero" opacity="1" stroke="none"/>
<path d="M592.085 672.134C592.085 676.556 573.453 698.962 571.292 702.852C569.082 706.83 548.976 735.406 547.663 740.658C547.31 742.067 545.536 744.068 546.717 744.912C548.888 746.462 552.33 745.857 554.751 745.857C566.197 745.857 571.471 740.727 580.743 734.987C586.883 731.187 593.235 726.413 600.119 724.118C602.605 723.289 608.356 721.957 609.571 718.92C610.355 716.959 609.782 714.394 610.043 712.304C611.17 703.288 611.461 694.476 611.461 685.366C611.461 680.81 610.979 676.417 612.406 672.134" fill="#75574e" fill-rule="nonzero" opacity="1" stroke="none"/>
<path d="M649.268 669.771C652.775 669.771 678.773 695.495 682.821 699.544C688.713 705.436 709.147 724.924 713.066 728.844C714.432 730.21 720.762 735.186 721.1 736.878C721.194 737.345 715.222 742.329 714.011 743.021C712.489 743.892 710.443 743.369 708.813 743.494C704.453 743.829 699.968 744.405 695.581 743.967C691.199 743.528 687.079 741.404 683.294 739.241C679.56 737.107 674.249 735.606 670.534 734.042C657.626 728.607 644.248 723.735 631.782 717.502C627.761 715.491 622.093 715.669 619.022 711.831C616.527 708.712 618.16 700.688 618.55 697.181C619.549 688.185 621.381 678.764 624.221 670.244" fill="#75574e" fill-rule="nonzero" opacity="1" stroke="none"/>
<path d="M175.559 204.598C175.559 148.987 205.045 90.8849 264.47 84.7374C283.533 82.7654 304.074 82.9352 322.993 85.3002C324.248 85.457 336.273 88.0018 337.062 86.4256C340.099 80.3512 338.979 61.8788 334.246 58.3285C320.252 47.8331 276.69 48.3666 261.656 52.662C195.525 71.5568 189.175 78.546 150.153 133.827C139.197 149.349 104.305 226.661 108.032 225.419" fill="#4ccb9f" fill-rule="nonzero" opacity="1" stroke="none"/>
<path d="M268.149 183.957C268.585 181.612 277.855 188.129 278.775 192.346C282.326 208.62 255.335 207.566 246.864 201.161L268.149 183.957Z" fill="#a87445" fill-rule="nonzero" opacity="1" stroke="none"/>
<path d="M67.606 347.01C55.5892 371.043 59.2658 384.72 59.2658 410.729C59.2658 481.945 70.1445 551.959 93.408 619.165C98.2963 633.287 125.251 723.439 151.749 710.19C155.557 708.286 140.879 664.377 138.804 658.41C119.983 604.301 116.367 544.224 112.914 487.248C111.883 470.239 109.318 453.211 109.318 436.187C109.318 434.269 107.4 430.433 109.318 430.433C111.11 430.433 111.887 443.228 112.914 452.728C114.758 469.786 116.538 486.758 118.667 503.789C124.732 552.305 133.801 597.382 148.153 644.026C153.702 662.061 156.729 680.736 163.255 698.683C163.955 700.608 163.47 705.084 165.413 704.437C168.645 703.359 186.201 705.495 189.504 698.887C191.882 694.132 179.218 621.929 177.639 611.664C165.241 531.078 155.649 467.562 155.649 387.153L67.606 347.01Z" fill="#463635" fill-rule="nonzero" opacity="1" stroke="none"/>
<path d="M216.075 226.544C216.075 238.483 226.42 251.77 230.144 263.684C240.143 295.684 250.151 329.221 276.85 351.47C282.002 355.763 336.794 394.024 337.624 398.176C338.303 401.569 338.821 422.725 338.187 422.936C332.518 424.826 273.688 404.264 268.409 399.864C243.295 378.936 219.517 353.83 202.57 325.584C192.753 309.223 189.674 289.663 181.186 272.688" fill="#4ccb9f" fill-rule="nonzero" opacity="1" stroke="none"/>
<path d="M181.974 184.658C166.487 174.42 128.78 195.779 117.695 205.585C90.0561 230.034 41.7436 345.72 57.6413 385.464C70.9687 384.354 93.5045 394.59 99.7535 395.557C118.412 398.444 139.936 401.161 152.487 388.61C156.074 385.023 152.612 370.755 153.05 366.663C154.963 348.807 161.987 333.702 169.369 317.706C176.491 302.275 186.938 285.408 198.068 272.688C205.419 264.287 218.815 252.209 217.757 240.335C213.539 193.019 194.137 192.698 181.974 184.658Z" fill="#4ccb9f" fill-rule="nonzero" opacity="1" stroke="none"/>
<path d="M205.943 205.183C210.491 206.13 211.845 214.269 213.43 219.023C214.226 221.411 232.598 272.176 254.515 324.777C258.6 336.726 235.95 288.421 215.065 245.103C194.18 201.785 194.115 202.721 205.943 205.183Z" fill="#35a37d" fill-rule="nonzero" opacity="1" stroke="none"/>
<path d="M204.911 187.157C190.561 197.162 187.228 188.99 184.916 202.351C184.559 204.412 193.309 218.697 198.426 214.025C203.543 209.354 206.58 206.079 214.386 203.775L204.911 187.157Z" fill="#bc7d46" fill-rule="nonzero" opacity="1" stroke="none"/>
<path d="M584.327 190.414C585.545 196.488 587.111 201.379 587.114 207.691C587.116 213.454 608.628 218.524 612.57 219.015C614.914 219.307 620.796 201.404 619.167 197.97C618.889 197.384 606.161 177.544 605.529 178.036L584.327 190.414Z" fill="#bb835e" fill-rule="nonzero" opacity="1" stroke="none"/>
<path d="M532.387 128.662C530.506 104.795 567.46 75.3125 590.986 98.5056C604.674 111.999 628.483 171.484 599.06 191.762C574.055 208.996 535.152 163.729 532.387 128.662Z" fill="#ffbe96" fill-rule="nonzero" opacity="1" stroke="none"/>
<path d="M230.352 118.727C250.689 104.761 297.799 120.183 290.183 151.801C285.751 170.197 245.767 220.906 211.122 206.967C181.679 195.122 200.471 139.245 230.352 118.727Z" fill="#ffbe96" fill-rule="nonzero" opacity="1" stroke="none"/>
<path d="M602.691 134.441C600.952 125.276 614.598 121.002 619.654 127.638C626.111 136.111 616.089 155.169 610.948 150.477" fill="#ffbe96" fill-rule="nonzero" opacity="1" stroke="none"/>
<path d="M544.954 154.847C540.308 148.75 530.95 151.467 530.404 158.911C529.275 174.328 548.082 179.027 559.874 176.79" fill="#e29e78" fill-rule="nonzero" opacity="1" stroke="none"/>
<path d="M526.932 320.246C512.578 334.601 496.921 347.657 481.929 361.649C472.805 370.165 465.608 379.925 456.127 388.051C447.529 395.421 432.461 406.582 427.325 416.853C426.871 417.761 425.977 418.842 427.325 419.853C431.772 423.188 466.928 412.953 472.328 410.253C506.265 393.284 534.329 374.262 546.133 338.848L526.932 320.246Z" fill="#ecac85" fill-rule="nonzero" opacity="1" stroke="none"/>
<path d="M712.651 359.252C712.651 374.587 718.132 389.305 716.559 405.032C709.484 475.782 694.643 545.179 677.478 613.837C674.99 623.789 662.904 665.259 656.263 671.9C653.569 674.594 645.299 673.423 641.747 674.133C638.19 674.845 624.446 676.373 621.648 673.575C621.137 673.064 624.392 655.979 624.44 655.709C627.385 639.021 629.773 622.437 630.581 605.462C634.177 529.942 665.196 458.147 665.196 383.259" fill="#36312d" fill-rule="nonzero" opacity="1" stroke="none"/>
<path d="M625.567 48.2749C610.656 38.3898 537.05 33.6222 495.73 45.4278C493.624 46.0295 430.818 68.5935 444.126 73.0296C455.12 76.6941 474.351 71.8296 486.129 71.8296C521.242 71.8296 558.562 68.5006 592.937 74.2297C603.65 76.0153 630.298 76.9479 621.138 58.6287L625.567 48.2749Z" fill="#ffbe96" fill-rule="nonzero" opacity="1" stroke="none"/>
<path d="M459.91 60.0297C453.292 65.1421 443.186 62.6391 436.349 66.803C415.985 79.2057 412.971 114.901 415.664 121.224C418.358 127.546 420.323 136.527 421.305 136.636C426.066 137.165 427.102 126.02 431.762 110.565C435.944 96.6941 457.578 97.8188 465.655 87.584C469.279 82.9923 469.611 72.8387 470.355 67.0435" fill="#ffbe96" fill-rule="nonzero" opacity="1" stroke="none"/>
<path d="M452.686 398.3C446.758 400.276 439.516 398.274 433.317 398.838C426.167 399.488 391.814 420.08 398.883 429.506C403.046 435.056 380.037 448.799 387.046 449.808C423.046 454.99 459.143 445.672 459.143 417.669L452.686 398.3Z" fill="#ffbe96" fill-rule="nonzero" opacity="1" stroke="none"/>
<path d="M584.213 202.601C562.533 237.658 543.991 279.48 532.059 301.354C526.371 311.782 503.916 329.794 510.137 336.311C517.543 332.756 523.548 340.1 530.905 343.778C534.147 345.399 540.695 355.536 543.207 354.908C544.046 354.699 562.927 306.812 564.882 301.601C570.541 286.509 578.743 268.991 585.855 254.767L638.349 196.826L606.324 219.216L584.213 202.601Z" fill="#b5aba3" fill-rule="nonzero" opacity="1" stroke="none"/>
<path d="M584.801 619.42C588.319 633.492 579.514 664.106 588.709 676.366C590.259 678.434 614.484 679.156 614.949 676.366C619.253 650.54 624.751 623.119 631.698 597.646C634.302 588.098 634.556 575.739 638.956 566.939" fill="#36312d" fill-rule="nonzero" opacity="1" stroke="none"/>
<path d="M630.751 186.096C630.751 163.646 637.915 137.779 627.562 117.074C624.503 110.956 613.452 84.6341 606.521 75.9294C608.294 69.1591 614.064 57.0642 623.769 46.7525C634.731 46.5913 641.707 61.0926 647.939 75.6343C653.684 89.0396 660.83 100.766 664.467 115.317C672.356 146.872 680.384 178.495 686.728 210.216C688.253 217.842 696.496 254.638 684.385 257.666C677.521 259.382 674.112 253.115 669.154 250.636L631.764 222.632L630.751 186.096Z" fill="#b5aba3" fill-rule="nonzero" opacity="1" stroke="none"/>
<path d="M607.508 341.006C607.508 358.37 649.595 365.494 661.792 363.276C667.917 362.163 674.013 356.796 679.886 355.621C684.689 354.66 709.989 332.326 710.507 335.439C714.908 361.841 715.022 361.63 692.413 378.587C689.657 380.653 682.939 379.71 681.278 381.371C677.827 384.822 676.924 506.524 675.014 535.173C673.267 561.385 657.293 631.858 653.44 639.564C650.242 645.96 620.836 649.414 613.772 650.003C596.911 651.408 575.019 649.677 565.245 630.129C563.183 626.005 546.787 611.72 547.712 609.131C553.975 591.595 561.729 564.727 564.36 546.308C571.656 495.236 581.076 444.202 599.157 395.985C603.91 383.31 604.303 368.295 610.292 356.317" fill="#b5aba3" fill-rule="nonzero" opacity="1" stroke="none"/>
<path d="M613.529 353.188C606.938 349.624 599.539 326.977 596.621 320.169C581.285 284.385 575.909 251.927 578.894 201.396C579.02 199.263 583.257 194.875 585.88 196.842C588.561 198.852 607.038 226.768 613.648 222.503C619.097 218.988 613.705 180.142 613.728 180.133C619.404 177.942 629.369 176.934 631.126 177.285C633.919 186.914 639.673 214.836 653.163 224.712C659.599 229.425 680.523 245.714 690.158 236.078C694.494 252.458 705.33 297.655 707.615 310.223C708.767 316.556 715.448 333.901 711.991 339.662C701.453 357.226 661.33 377.19 642.371 374.273C632.01 372.679 622.186 357.87 613.529 353.188Z" fill="#7d5f5f" fill-rule="nonzero" opacity="1" stroke="none"/>
<path d="M615.883 221.034C611.852 222.342 613.536 206.896 613.33 203.605C613.096 199.868 611.679 188.811 608.3 181.856C611.281 176.59 610.156 174.03 613.467 176.789C617.64 180.266 624.636 218.194 615.883 221.034Z" fill="#b5aba3" fill-rule="nonzero" opacity="1" stroke="none"/>
<path d="M613.278 222.751C616.172 221.841 598.8 210.259 595.703 208.194C594.157 207.164 585.384 194.156 584.252 195.288C573.885 205.655 599.623 227.049 613.278 222.751Z" fill="#b5aba3" fill-rule="nonzero" opacity="1" stroke="none"/>
<path d="M549.03 107.242C542.526 123.872 560.872 166.764 572.267 176.791C576.869 180.84 590.061 191.071 598.291 192.633C573.109 208.227 538.25 161.415 534.741 140.67C533.477 133.203 530.901 118.97 536.324 112.46L549.03 107.242Z" fill="#e29e78" fill-rule="nonzero" opacity="1" stroke="none"/>
<path d="M546.971 112.196C551.115 108.211 561.554 120.289 565.789 118.877C573.98 116.147 569.845 101.361 582.425 103.877C590.967 105.586 596.589 118.954 606.097 128.294C615.605 137.634 603.138 106.353 600.052 100.798C586.139 75.7542 540.355 82.5431 530.607 111.786C527.523 121.037 525.48 135.655 530.627 144.662C531.273 145.793 540.947 157.301 540.701 154.487C540.318 150.086 539.303 135.556 539.303 129.759C539.303 125.237 542.951 116.061 546.971 112.196Z" fill="#674940" fill-rule="nonzero" opacity="1" stroke="none"/>
<path d="M589.01 140.782C587.563 137.373 587.628 134.086 589.154 133.438C590.68 132.79 593.089 135.028 594.536 138.436C595.982 141.844 595.918 145.132 594.392 145.78C592.866 146.428 590.456 144.19 589.01 140.782Z" fill="#42362a" fill-rule="nonzero" opacity="1" stroke="none"/>
<path d="M555.309 154.045C553.645 150.737 553.497 147.452 554.978 146.707C556.459 145.962 559.008 148.04 560.672 151.347C562.336 154.655 562.484 157.94 561.003 158.685C559.522 159.43 556.973 157.352 555.309 154.045Z" fill="#42362a" fill-rule="nonzero" opacity="1" stroke="none"/>
<path d="M574.46 144.058C573.988 143.96 573.211 143.982 573.065 144.442C572.96 144.773 574.76 149.808 575.035 150.573C576.883 155.709 577.296 163.713 583.251 165.543C588.562 167.175 586.703 160.918 585.399 158.402C584.494 156.654 582.868 155.39 581.85 153.782C580.17 151.126 578.981 147.53 577.083 145.119C576.499 144.378 575.383 144.25 574.46 144.058Z" fill="#635549" fill-rule="nonzero" opacity="1" stroke="none"/>
<path d="M574.46 144.058C573.988 143.96 573.211 143.982 573.065 144.442C572.96 144.773 574.76 149.808 575.035 150.573C576.883 155.709 577.296 163.713 583.251 165.543C588.562 167.175 586.703 160.918 585.399 158.402C584.494 156.654 582.868 155.39 581.85 153.782C580.17 151.126 578.981 147.53 577.083 145.119C576.499 144.378 575.383 144.25 574.46 144.058Z" fill="#db7e57" fill-rule="nonzero" opacity="1" stroke="none"/>
<path d="M580.824 127.491C580.613 127.757 580.462 128.39 580.78 128.509C581.232 128.679 581.665 128.118 582.128 127.98C583.405 127.597 584.807 127.617 586.089 127.313C587.115 127.071 592.039 127.628 592.506 127.238C593.068 126.768 591.269 126.382 590.553 126.227C590.009 126.109 589.446 126.104 588.902 125.986C585.814 125.316 582.861 124.931 580.824 127.491Z" fill="#85726b" fill-rule="nonzero" opacity="1" stroke="none"/>
<path d="M548.592 142.485C548.495 142.683 548.074 143.175 548.262 143.059C551.033 141.345 553.161 138.412 556.061 136.884C556.415 136.698 558.445 136.149 558.338 135.323C558.199 134.254 554.329 135.828 553.916 135.948C551.431 136.673 549.708 140.214 548.592 142.485Z" fill="#85726b" fill-rule="nonzero" opacity="1" stroke="none"/>
<path d="M590.865 177.629C595.139 175.402 601.48 168.198 601.773 168.944C602.247 170.15 597.753 178.022 592.923 180.16C588.509 182.114 578.938 183.091 577.544 181.047C577.233 180.59 586.592 179.855 590.865 177.629Z" fill="#694c40" fill-rule="nonzero" opacity="1" stroke="none"/>
<path d="M188.959 689.069C198.376 693.778 222.232 734.342 235.868 747.705C249.504 761.069 219.224 757.18 201.777 743.887C179.397 726.836 157.528 727.221 166.041 693.17L188.959 689.069Z" fill="#624b3f" fill-rule="nonzero" opacity="1" stroke="none"/>
<path d="M277.848 142.61C278.671 147.275 269.295 156.218 266.529 159.222C254.772 171.989 244.505 187.444 228.563 195.606C227.714 196.041 226.827 196.397 225.959 196.792C219.984 199.512 213.008 201.075 206.582 202.209C206.335 202.253 203.35 201.572 203.653 201.916C210.819 210.042 225.346 210.188 228.994 209.187C249.634 203.523 259.582 195.362 274.419 181.184C277.44 178.297 284.104 166.166 287.333 163.77L277.848 142.61Z" fill="#e5ae89" fill-rule="nonzero" opacity="1" stroke="none"/>
<path d="M133.463 702.645C132.805 709.719 85.9637 756.985 85.9637 759.328C85.9637 770.266 115.505 761.48 121.599 756.256C128.826 750.062 154.036 738.269 156.621 729.222C159.185 720.248 150.863 716.298 152.589 705.393C153.758 698.004 134.121 695.571 133.463 702.645Z" fill="#624b3f" fill-rule="nonzero" opacity="1" stroke="none"/>
<path d="M269.847 125.4C269.847 129.508 268.589 138.508 271.806 141.725C273.714 143.633 277.647 145.064 278.662 147.602C279.537 149.788 277.536 152.093 278.009 154.458C278.722 158.024 281.064 161.149 281.601 164.906C281.693 165.553 281.729 166.225 281.601 166.865C281.031 169.714 274.213 177.422 272.267 180.665C271.715 181.585 265.628 187.467 266.668 187.727C268.676 188.229 277.601 182.88 279.315 182.537C284.039 181.592 289.594 182.132 294.008 179.925C299.502 177.178 296.933 172.216 299.232 169.151C300.753 167.122 304.273 166.721 306.088 164.906C307.985 163.009 310.689 143.3 310.332 140.092C309.763 134.97 301.949 130.511 298.905 127.033C295.168 122.761 290.536 120.296 286.825 116.585C284.788 114.548 285.008 111.238 282.254 109.402C280.97 108.546 266.497 106.918 265.744 106.733C263.225 106.113 245.301 99.2952 242.748 99.9334C227.631 103.713 224.756 101.359 219.567 119.523C218.677 122.635 212.969 133.699 213.939 137.093C215.166 141.388 230.409 127.762 234.841 127.269C236.477 127.088 247.053 122.002 248.625 122.788C250.463 123.707 249.296 127.608 250.91 128.992C252.522 130.373 255.217 129.374 257.114 129.645C259.107 129.929 263.105 135.771 264.949 137.154C267.057 138.734 271.91 138.342 273.112 140.745" fill="#e3905d" fill-rule="nonzero" opacity="1" stroke="none"/>
<path d="M215.971 140.616C220.353 127.639 205.036 125.36 198.418 136.482C195.061 142.125 196.067 152.57 199.487 157.968C200.262 159.191 202.864 160.596 203.039 161.856" fill="#ffbe96" fill-rule="nonzero" opacity="1" stroke="none"/>
<path d="M233.309 142.831C235.802 144.744 240.003 145.895 242.79 147.308C243.156 147.494 247.593 150.11 247.645 149.958C248.346 147.929 240.354 143.723 238.838 143.199" fill="#b47e4e" fill-rule="nonzero" opacity="1" stroke="none"/>
<path d="M261.308 163.994C262.975 163.122 265.336 170.969 265.259 172.731C265.216 173.726 265.709 176.305 264.919 175.699C263.094 174.299 259.809 164.778 261.308 163.994Z" fill="#bd8757" fill-rule="nonzero" opacity="1" stroke="none"/>
<path d="M260.254 106.657C259.042 105.646 251.822 107.394 251.142 109.131C250.132 111.709 254.928 113.628 255.775 115.411C256.812 117.595 253.418 117.257 253.338 118.818C253.213 121.232 255.937 125.363 253.83 127.89C251.452 130.743 248.047 122.805 246.146 121.886C244.54 121.11 239.689 124.331 238.083 125.033C231.506 127.908 224.11 132.073 218.845 136.992C218.182 137.612 217.642 138.675 216.824 137.725C211.793 131.878 217.523 123.195 219.722 117.58C224.37 105.713 225.022 103.578 238.407 100.728C240.64 100.252 244.584 98.4183 246.846 99.3043C252.46 101.503 258.237 104.831 264.058 106.203" fill="#ad7c50" fill-rule="nonzero" opacity="1" stroke="none"/>
<path d="M225.084 128.328C222.234 131.426 222.062 135.953 220.821 137.647C211.898 149.829 205.415 160.665 221.234 170.564C228.31 174.992 241.887 160.465 244.022 163.475C249.569 171.297 222.138 187.16 240.872 197.678C252.119 203.992 258.217 193.921 268.327 192.501C270.655 192.174 276.149 194.413 278.082 191.5C280.016 188.587 274.553 184.003 272.172 178.864C268.935 171.874 256.196 161.728 252.305 157.36C246.62 150.976 237.404 136.928 230.917 130.805L225.084 128.328ZM229.778 136.466C233.369 137.084 236.336 141.528 238.673 144.11C242.945 148.832 246.169 152.403 245.028 155.82C244.27 158.088 239.972 160.092 238.119 161.368C230.119 166.875 218.652 170.158 215.468 157.755C214.486 153.932 218.03 149.256 219.58 146.031C222.744 139.447 225.622 136.861 228.208 136.456C228.746 136.371 229.265 136.378 229.778 136.466ZM254.496 166.039C258.087 166.657 261.055 171.101 263.391 173.683C267.663 178.405 270.887 181.976 269.746 185.393C268.989 187.661 264.69 189.665 262.837 190.941C254.838 196.448 243.371 199.731 240.186 187.328C239.205 183.505 242.748 178.829 244.298 175.604C247.462 169.02 250.34 166.434 252.926 166.029C253.465 165.944 253.983 165.951 254.496 166.039Z" fill="#4e4339" fill-rule="nonzero" opacity="1" stroke="none"/>
<path d="M252.214 176.512C254.476 174.374 257.212 173.596 258.327 174.775C259.442 175.954 258.512 178.643 256.251 180.781C253.99 182.919 251.253 183.697 250.138 182.518C249.023 181.339 249.953 178.65 252.214 176.512Z" fill="#4e4339" fill-rule="nonzero" opacity="1" stroke="none"/>
<path d="M227.945 150.233C230.206 148.095 232.943 147.317 234.058 148.496C235.172 149.675 234.243 152.364 231.982 154.502C229.72 156.64 226.984 157.418 225.869 156.239C224.754 155.06 225.684 152.371 227.945 150.233Z" fill="#4e4339" fill-rule="nonzero" opacity="1" stroke="none"/>
<path d="M242.564 168.943C228.774 186.808 220.972 184.366 236.264 167.636C236.264 167.636 239.832 163.769 241.27 164.489C243.3 165.506 242.564 168.943 242.564 168.943Z" fill="#c85947" fill-rule="nonzero" opacity="1" stroke="none"/>
<path d="M212.989 179.12C214.774 184.066 216.675 187.091 220.377 191.055C221.639 192.407 225.674 194.513 226.095 196.376C226.561 198.442 221.437 194.806 221.155 194.614C218.847 193.05 212.992 185.781 211.897 183.227C211.357 181.969 212.989 179.12 212.989 179.12Z" fill="#8e6643" fill-rule="nonzero" opacity="1" stroke="none"/>
<path d="M208.855 145.633C212.791 140.981 212.249 128.254 205.388 133.702C205.149 133.892 208.042 135.441 208.422 136.941C208.972 139.111 207.148 141.462 205.869 142.973" fill="#cd9a6b" fill-rule="nonzero" opacity="1" stroke="none"/>
<path d="M220.501 158.703C222.687 159.483 225.559 158.471 227.537 159.512C229.157 160.365 223.93 161.111 222.883 160.737" fill="#f2a582" fill-rule="nonzero" opacity="1" stroke="none"/>
<path d="M246.568 187.242C244.727 188.348 245.081 182.142 247.115 182.185C249.31 182.231 247.12 186.91 246.568 187.242Z" fill="#f2a582" fill-rule="nonzero" opacity="1" stroke="none"/>
<path d="M609.025 135.043C607.012 125.082 617.973 131.125 617.368 132.036C616.975 132.629 615.111 131.779 614.519 131.732C610.796 131.438 611.236 136.972 610.698 138.961" fill="#ddb086" fill-rule="nonzero" opacity="1" stroke="none"/>
<path d="M197.34 191.059C196.407 195.216 193.777 199.445 196.487 202.808C198.881 205.779 203.56 207.697 208.07 206.632C210.255 206.115 204.216 215.413 198.288 217.024C181.652 221.547 174.993 193.353 197.34 191.059Z" fill="#7ae0b4" fill-rule="nonzero" opacity="1" stroke="none"/>
<path d="M608.858 358.308C602.345 368.077 602.004 385.694 598.195 397.123C593.855 410.142 585.505 422.611 582.839 435.938C577.274 463.763 570.331 494.324 567.182 522.662C565.197 540.527 561.243 555.657 557.722 573.261C556.517 579.286 549.971 603.682 550.888 603.223C554.192 601.571 560.999 613.689 588.194 636.532C589.927 637.988 603.565 566.245 607.578 551.529C613.551 529.63 623.12 508.663 631.038 487.549C639.099 466.052 640.706 439.915 642.981 417.17C644.077 406.214 648.315 392.618 645.752 382.366C645.496 381.342 625.837 377.62 622.109 370.163L608.858 358.308Z" fill="#e1d1c4" fill-rule="nonzero" opacity="1" stroke="none"/>
<path d="M509.704 332.278C512.589 335.163 520 329.852 523.352 329.852C528.73 329.852 537.541 334.051 541.852 333.188C548.195 331.92 533.612 320.65 533.057 319.54C532.415 318.255 537.802 311.085 538.516 309.835C550.144 289.487 564.363 274.653 567.315 251.045C567.806 247.112 570.335 229.357 569.944 230.008C566.896 235.088 544.157 271.588 537.309 286.996C536.03 289.873 529.51 309.077 525.596 309.077C525.596 309.077 503.603 326.177 509.704 332.278Z" fill="#e3d0c1" fill-rule="nonzero" opacity="1" stroke="none"/>
<path d="M304.995 138.435C305.557 139.461 309.287 150.265 306.842 151.705C305.763 152.34 302.432 151.752 301.905 153.409C300.911 156.536 302.24 161.11 300.001 163.861C298.978 165.118 295.317 164.137 293.957 165.808C292.225 167.935 289.168 178.259 284.883 177.643C284.72 177.62 282.597 167.599 282.92 167.038C284.202 164.817 287.966 165.116 288.742 161.975C289.562 158.658 281.961 156.563 282.95 153.769C284.212 150.201 292.99 151.071 293.37 148.429C293.435 147.975 293.227 147.668 292.995 147.302C292.71 146.853 292.39 146.425 292.114 145.969C289.733 142.023 288.869 137.856 287.038 133.71C286.961 133.537 286.117 132.55 286.57 132.302C287.91 131.568 292.288 133.188 293.964 133.096C294.649 133.058 297.582 132.572 297.286 132.367L304.995 138.435Z" fill="#e5a469" fill-rule="nonzero" opacity="1" stroke="none"/>
<path d="M442.677 399.555C466.631 382.075 478.462 360.735 499.995 346.557C507.751 341.451 525.07 342.256 521.127 352.002C518.839 357.657 454.11 408.312 450.452 412.18" fill="#ffbe96" fill-rule="nonzero" opacity="1" stroke="none"/>
<path d="M598.485 149.011C599.865 151.132 592.876 150.047 591.88 148.273C591.32 147.276 592.905 146.892 593.567 147.048C595.145 147.418 597.585 147.629 598.485 149.011Z" fill="#f8b097" fill-rule="nonzero" opacity="1" stroke="none"/>
<path d="M562.253 164.653C561.917 164.818 561.358 165.231 561.161 164.913C561.104 164.82 564.222 158.769 564.893 158.421C566.589 157.542 566.447 160.655 565.947 161.468C564.994 163.014 563.938 163.827 562.253 164.653Z" fill="#f8b097" fill-rule="nonzero" opacity="1" stroke="none"/>
<path d="M114.226 208.213C105.988 216.359 96.3638 233.536 90.3189 243.5C74.0137 270.376 42.5585 355.328 58.4098 386.681C65.3798 387.445 81.9299 398.508 97.5675 400.765C126.597 404.955 166.055 390.826 151.464 383.422C141.765 378.5 112.101 392.437 95.1461 388.891C80.1596 385.756 77.3674 365.353 74.3315 358.37C67.8612 343.489 114.226 208.213 114.226 208.213Z" fill="#35a37d" fill-rule="nonzero" opacity="1" stroke="none"/>
<path d="M218.29 162.631C219.642 161.483 242.345 154.691 243.054 157.096C243.771 159.526 240.079 159.233 238.501 159.711C232.333 161.579 226.25 163.779 220.113 165.269L218.29 162.631Z" fill="#ffe7c7" fill-rule="nonzero" opacity="1" stroke="none"/>
<path d="M242.079 191.605C243.485 190.457 267.963 183.367 268.7 185.772C269.446 188.202 265.605 187.909 263.965 188.387C257.548 190.255 250.232 192.158 243.849 193.648L242.079 191.605Z" fill="#ffe7c7" fill-rule="nonzero" opacity="1" stroke="none"/>
<path d="M209.82 716.063C213.437 730.53 231.752 738.113 235.313 752.358C236.221 755.99 223.04 747.34 221.919 746.525C216.116 742.305 216.927 735.9 213.709 730.538" fill="#8c6652" fill-rule="nonzero" opacity="1" stroke="none"/>
<path d="M545.737 161.535C541.37 154.204 532.125 162.636 534.704 164.767C535.494 165.42 537.957 161.984 538.72 161.844C540.632 161.493 541.718 163.186 543.485 163.492L545.737 161.535Z" fill="#d08c82" fill-rule="nonzero" opacity="1" stroke="none"/>
<path d="M186.855 288.032C189.552 285.335 191.912 281.335 195.711 279.857C198.329 278.839 201.127 278.339 203.887 277.813C225.751 273.649 193.668 289.443 193.668 300.976" fill="#3eb88e" fill-rule="nonzero" opacity="1" stroke="none"/>
</g>
</svg>
