<svg version="1.2" xmlns="http://www.w3.org/2000/svg" viewBox="0 0 1234 1085" width="1234" height="1085">
	<title>Equipe 1 -svg</title>
	<style>
		.s0 { fill: #ffe9cb } 
		.s1 { fill: #634c3e } 
		.s2 { fill: #795c4b } 
		.s3 { fill: #d7cec9 } 
		.s4 { fill: #8a7669 } 
		.s5 { fill: #6c6152 } 
		.s6 { fill: #71645c } 
		.s7 { fill: #e0bba4 } 
		.s8 { fill: #d8c8b3 } 
		.s9 { fill: #5e3c2c } 
		.s10 { fill: #ead9c3 } 
		.s11 { opacity: .3;fill: #d8a869 } 
		.s12 { fill: #f3dfc3 } 
		.s13 { fill: #79503d } 
		.s14 { fill: #8e5f49 } 
		.s15 { fill: #b98156 } 
		.s16 { fill: #e3cc95 } 
		.s17 { fill: #ffd877 } 
		.s18 { fill: #bfb59a } 
		.s19 { fill: #e3c376 } 
		.s20 { fill: #fff4d7 } 
		.s21 { fill: #b1a585 } 
		.s22 { fill: #d8be9a } 
		.s23 { fill: #564135 } 
		.s24 { fill: #5c4d44 } 
		.s25 { fill: #b8927b } 
		.s26 { fill: #946f58 } 
		.s27 { fill: #4ccb9f } 
		.s28 { fill: #906559 } 
		.s29 { fill: #e1b193 } 
		.s30 { fill: #c67848 } 
		.s31 { fill: #c8ad9c } 
		.s32 { fill: #ffd4b9 } 
		.s33 { fill: #cdc5bf } 
		.s34 { fill: #f8e5d9 } 
		.s35 { fill: #dfd1c8 } 
		.s36 { fill: #ffb36b } 
		.s37 { fill: #e19d5c } 
		.s38 { fill: #ffd5ad } 
		.s39 { fill: #73a49e } 
		.s40 { fill: #b3cecb } 
		.s41 { fill: #ecaa6a } 
		.s42 { fill: #dfcfcf } 
		.s43 { fill: #d69a75 } 
		.s44 { fill: #ffbe96 } 
		.s45 { fill: #c79d80 } 
		.s46 { fill: #dba889 } 
		.s47 { fill: #e98466 } 
		.s48 { fill: #9f6959 } 
		.s49 { fill: #ad7c6e } 
		.s50 { fill: #d57d61 } 
		.s51 { fill: #f0d9d9 } 
		.s52 { fill: #996252 } 
		.s53 { fill: #d98f7a } 
		.s54 { fill: #e3905d } 
		.s55 { fill: #ffcbaa } 
		.s56 { fill: #75574e } 
		.s57 { fill: #e5ac88 } 
		.s58 { fill: #f18162 } 
		.s59 { fill: #8a5140 } 
		.s60 { fill: #f1a06f } 
		.s61 { fill: #8a655b } 
		.s62 { fill: #35a37d } 
		.s63 { fill: #503f3a } 
		.s64 { fill: #5bd7ac } 
		.s65 { fill: #ffd1b4 } 
		.s66 { fill: #d0885b } 
		.s67 { fill: #6aa18e } 
		.s68 { fill: #ce9c7f } 
		.s69 { fill: #609784 } 
		.s70 { fill: #a37364 } 
		.s71 { fill: #915341 } 
		.s72 { fill: #583025 } 
		.s73 { fill: #62392d } 
		.s74 { fill: #4d3e30 } 
		.s75 { fill: #88594b } 
		.s76 { fill: #946a5e } 
		.s77 { fill: #a79082 } 
		.s78 { fill: #774333 } 
		.s79 { fill: #866253 } 
		.s80 { fill: #e3c3a4 } 
		.s81 { fill: #e5a47c } 
		.s82 { fill: #ffa475 } 
		.s83 { fill: #c4884d } 
		.s84 { fill: #ee947a } 
		.s85 { fill: #7e4c3e } 
		.s86 { fill: #d99857 } 
		.s87 { fill: #7b5c53 } 
		.s88 { fill: #a56c5b } 
		.s89 { fill: #c6b3b3 } 
		.s90 { fill: #e0b090 } 
	</style>
	<g id="Calque-6">
		<path id="Layer" class="s0" d="m0.7 371c-13.5-180.4 221.4-345.1 524.8-367.9 303.3-22.7 560.2 105.1 573.7 285.5 13.6 180.4-221.4 345.1-524.7 367.8-303.4 22.8-560.2-105-573.8-285.4z"/>
	</g>
	<g id="Calque-5">
		<path id="Layer" class="s1" d="m754.2 941c4.1-10.3 30.4-17.2 52.2-21 21.8-3.9 82.4-11.2 78.9 34.8-2.6 34.5-77.1 11.5-95.4 6.1-18.3-5.5-39.8-9.7-35.7-19.9z"/>
		<path id="Layer" class="s1" d="m844.2 914.6c6.7-8.8 62.8-24.9 62.8-24.9 0 0 65.1-57.9 69.3 28 1.6 34.5-70.9 17-92.4 13.1-18.8-3.3-46.4-7.5-39.7-16.2z"/>
		<path id="Layer" class="s2" d="m257.8 603.2c6.5 0 11.8 5.7 11.8 12.6v255.9c0 7-5.3 12.6-11.8 12.6-6.6 0-11.9-5.6-11.9-12.6v-255.9c0-6.9 5.3-12.6 11.9-12.6z"/>
		<path id="Layer" class="s3" d="m292.7 516.7c61.9 1.5 90 14.3 138.2 34.4 34.4 14.4-13.5 263.1-67.4 273.9-41.1 8.2 46.2-160.4 12.3-205.6-6.9-9.2-63.2-41.7-76.8-32.7-1.4 0.9 39.8 8.9 46.7 66.2 6.8 57.2-31.7 210.8-40.9 207.1-48.1-19.2 25.5-180.9-86.3-255.5"/>
		<path id="Layer" class="s4" d="m512.9 461.3c52.7 9.9 75 25.4 113.6 50.2 27.5 17.8-46.2 235.6-93.7 237.8-36.1 1.7 60.6-138.3 37.6-183.8-4.7-9.3-48.5-46.5-61.3-40.2-1.3 0.7 32.9 13.5 31.1 66.2-1.7 52.6-54.7 185.9-62.1 181.3-38.5-24 45.6-159.7-40.1-242.6"/>
		<path id="Layer" class="s5" d="m734.4 679c-15.4 0 10.5 98.1 15.5 112.6 6.6 19 38.3 74.3 70 115.8 18.7 24.4 32.6 29.6 46.5 26.2 11.7-2.8 19.1-6.1 11.8-47.4-9.1-51.1-25.2-112.8-18.5-121.2 3.6-4.5 35.4 70.3 56.9 115.4 8.1 17.2 26.8 22.4 30.8 21.7 19.9-3.1 23-2.5 21.8-35.2-0.6-16.1-3.1-30.8-5.5-36.2-9.1-20-5.9-38-5.9-59"/>
		<path id="Layer" class="s2" d="m169.9 628.8c5.7 0 10.4 4.6 10.4 10.3v210c0 5.7-4.7 10.3-10.4 10.3-5.7 0-10.3-4.6-10.3-10.3v-210c0-5.7 4.6-10.3 10.3-10.3z"/>
		<path id="Layer" class="s2" d="m953.9 815.6c6.6 0 12 5.5 12 12.2l1.3 215.9c0 6.7-5.4 12.2-12 12.2-6.7 0-12.1-5.5-12.1-12.2l-1.3-215.9c0-6.7 5.4-12.2 12.1-12.2z"/>
		<path id="Layer" class="s2" d="m783.9 759.4c6.7 0 12 5.4 12 12.1l1.3 215.9c0 6.8-5.4 12.2-12 12.2-6.6 0-12-5.4-12-12.2l-1.3-215.9c0-6.7 5.4-12.1 12-12.1z"/>
		<path id="Layer" class="s2" d="m1082.2 722.2c6.6 0 12 5.5 12 12.2l1.3 215.9c0 6.7-5.4 12.1-12 12.1-6.7 0-12.1-5.4-12.1-12.1l-1.2-215.9c0-6.7 5.3-12.2 12-12.2z"/>
		<path id="Layer" class="s2" d="m1180.7 496.3c5.7 0 10.3 4.7 10.3 10.4v209.9c0 5.7-4.6 10.3-10.3 10.3-5.7 0-10.4-4.6-10.4-10.3v-209.9c0-5.7 4.7-10.4 10.4-10.4z"/>
		<path id="Layer" class="s6" d="m289.2 829.8c-2.4 4.9-2.8 25.9-2.8 28.3 0.5 26.3 27.7 25.5 53.5 31.1 3.5 0.7 39.6 6.5 41.4-1.1 1.8-7.5-26.7-19-38-30.6-38.5-39.5-54.1-27.7-54.1-27.7z"/>
		<path id="Layer" class="s7" d="m468.8 743.4c-2.7 4-5.8 22.9-6.1 25.1-3.1 23.8 20.3 26.8 41.6 35.4 2.9 1.2 33 11.4 35.5 4.9 2.5-6.6-20.4-20.9-28.5-32.9-27.6-41.1-42.5-32.5-42.5-32.5z"/>
		<path id="Layer" class="s6" d="m351.6 797.7c-2.4 4.9-2.8 25.9-2.8 28.2 0.5 26.3 16.5 36.1 42.2 41.7 3.6 0.8 39.7 6.5 41.5-1 1.8-7.5-18.4-20.9-29.6-32.5-38.5-39.5-51.3-36.4-51.3-36.4z"/>
		<path id="Layer" class="s7" d="m526.3 723c-2.7 4.1-5.8 23-6.1 25.1-3 23.8 9.3 34.9 30.6 43.5 2.9 1.2 33 11.4 35.5 4.8 2.6-6.5-12.9-21.3-21-33.4-27.6-41-39-40-39-40z"/>
		<path id="Layer" class="s8" d="m640.6 1015.6c-9.4-12 19.1-67.9 24.1-79.5 6.7-15.7 9.3-39.6 19.8-53.1 28.5-36.7 109.4-72.3 146.9-25.4 30 37.4 8.4 182.7-29.4 209.1-17.5 12.3-52 19.3-72.9 18.1-43.1-2.5-67.3-42.5-88.5-69.2z"/>
		<path id="Layer" class="s9" d="m142 752.8l147.3 48.4c3.4 1.1 5.6 4.8 5.1 8.3l-21 128.8c-0.6 3.5-3.6 7.5-6.8 9l-21 9.7c-3.2 1.5-8.3 1.3-11.4-0.3l-115.7-61.5c-3.1-1.7-5.8-5.8-6-9.4l-7.7-114.4c-0.2-3.5 2.2-7.5 5.4-9l19.9-9c3.2-1.4 8.6-1.7 11.9-0.6z"/>
		<path id="Layer" class="s10" d="m647.5 1003.8c-1.2-12 10.5-21.7 16.5-32.1 16.5-28.8 58 4.8 82 12.8 5.5 1.8 36.2 9.2 36.6 15.9 1.3 27.1-19.8 70.3-51.7 70.1-11.4 0-24.4-11.9-33.7-17.1-7-3.8-49.7-49.6-49.7-49.6z"/>
		<path id="Layer" class="s10" d="m707.6 863.2c17.7-5.8 79.2-6 92.6 17.4 21.6 37.8 5 112.9 10.9 109.1 13.2-8.3 23.4-131.2-39.7-136.3-52.3-4.2-60.6 6.9-63.8 9.8z"/>
		<path id="Layer" class="s11" d="m824.6 850.5c-5.2 3.4-60.3-30.6-40.2 5.9 20.1 36.6 18.9 205.2-62.7 227.5 2.4 0.4 4.9 0.8 7.4 0.9 20.9 1.2 55.4-5.8 72.9-18.1 37.8-26.4 59.3-171.7 29.4-209.1-2.1-2.7-4.4-5-6.8-7.1z"/>
		<path id="Layer" class="s12" d="m771.4 840.9c2.8 0 1.3-9 3.2-11.9 6.3-9.5 30 3 35.9 6.5 5.8 3.5 11.2 11.7 5.9 16.9-0.7 0.7-2.4 5.9-0.6 5.9 6.6 0 18.3-7.9 19.4-14.3 3.1-18.8-50.9-35-63.1-25.9-4.7 3.5-6.5 22.8-0.7 22.8z"/>
		<path id="Layer" class="s13" d="m107 766.5l152.8 50.3c1.9 0.6 3.1 2.6 2.8 4.5l-22 134.6c-0.3 1.9-2 2.9-3.8 2.3l-142.9-47.7c-1.9-0.7-3.2-2.7-3-4.6l12.5-137c0.2-1.9 1.8-3 3.6-2.4z"/>
		<path id="Layer" class="s14" d="m103.6 765.5c13.7-22.3 33.2-15.4 33.2-15.4l153.5 51.7c0 0-10.1-8.1-24.7 13.1-14.5 21.3-28.1 73.3-28.1 73.3l-155.6-48.8c0 0 8-51.6 21.7-73.9z"/>
		<path id="Layer" class="s15" d="m111.3 840.1l12.9 5.2v21.3l-12.9-5.3z"/>
		<path id="Layer" class="s15" d="m200 866.5l12.8 5.3v21.2l-12.8-5.3z"/>
		<g id="Layer">
			<path id="Layer" class="s16" d="m800 61.3c0.4 0.5-24.8-5.3-19.8-13.8 1.4-2.5 18 11 19.8 13.8z"/>
			<path id="Layer" class="s16" d="m854.2 45.4c-0.2 0.6 21.2-15.1 13.7-21-2.2-1.7-12.9 17.6-13.7 21z"/>
			<path id="Layer" class="s16" d="m826.7 50.4c0.4 0.5 1.7-29.8-9.2-26.9-3.2 0.9 6.6 23.9 9.2 26.9z"/>
			<path id="Layer" class="s17" d="m803.4 98.8c-2.2-17 10.4-33.3 28.2-36.5 17.8-3.1 34 8.1 36.2 25 2.2 17-7.6 42.3-25.4 45.4-17.8 3.2-36.9-16.9-39-33.9z"/>
			<path id="Layer" class="s18" d="m837.8 132.2l12.8-3.4c2.1-0.6 3.1-3 3.4-1.5l5.8 24.9c0.3 1.5-1 3.1-3 3.7l-12.8 3.4c-2.1 0.5-4-0.3-4.3-1.8l-5.8-24.9c-0.4-1.5 1.9 0.1 3.9-0.4z"/>
			<path id="Layer" class="s19" d="m810.5 99.7c-1.5-11.8 8.6-17 20.9-19.2 12.3-2.2 22.2-0.6 23.7 11.3 1.6 11.8-7.2 23.1-19.5 25.3-12.4 2.2-23.6-5.6-25.1-17.4z"/>
			<path id="Layer" class="s20" d="m832.3 77.2c-0.5-4 2.7-8 7.2-8.8 4.4-0.8 8.5 1.9 9 6 0.5 4-2.7 8-7.1 8.8-4.5 0.8-8.6-1.9-9.1-6z"/>
			<path id="Layer" class="s20" d="m849.5 86.4c-0.2-1.8 1.2-3.5 3.2-3.9 2-0.3 3.8 0.8 4 2.6 0.3 1.8-1.2 3.5-3.2 3.9-2 0.3-3.8-0.8-4-2.6z"/>
			<path id="Layer" class="s21" d="m835.6 138.4c7.8 0.8 10.4 0.1 18.4-2.8 0.6-0.2 1.4-0.2 1.9 0.2 0.8 0.5 0 2-0.3 2.6-2.4 4.5-15.1 6.4-19.1 4.5"/>
			<path id="Layer" class="s21" d="m838.4 150.2c10-0.3 4.6 1.1 16.6-2.9 8.2-2.8-4.1 9.3-15.6 7"/>
		</g>
		<path id="Layer" class="s22" d="m665.9 971.9c-3-3.6 53.9 27.5 63.6 31.8 10.7 4.8 44.3 5.3 33.7 10.5-20 10.1-84.3-26.6-97.3-42.3z"/>
	</g>
	<g id="Calque-3">
		<path id="Layer" class="s2" d="m148.7 621.7c-5.9-23.9-80.5-179.1-63.6-208.7 12.4-21.8 130.1-64.6 141.9-25.4 2.3 7.8 12.1 29.2 10.6 38-1.5 8.6-34.4 8.3-38.5 9.3-16.5 4.1-64.5-2.3-73 14.6-11.2 22.4 22.6 116.8 33.4 138.3"/>
		<path id="Layer" class="s2" d="m1187.3 510.7c6.2-24.7 59.8-165.7 42.5-196.2-12.8-22.3-121.8-63.9-133.9-23.6-2.4 8.1-12.3 30.1-10.8 39.2 1.4 8.8 35.2 8.5 39.4 9.5 16.9 4.3 66.1-2.4 74.7 15 11.5 23-10.9 112.8-21.9 135z"/>
		<path id="Layer" class="s23" d="m889.9 695.4l208.6 16.9-3.6 32.4-133.9 91-188.3-64 0.3-31.1z"/>
		<path id="Layer" class="s23" d="m1046.5 475.1l145 12-2.6 22.9-93 64.2-130.8-45.2 0.2-21.9z"/>
		<path id="Layer" class="s24" d="m895.7 667.1l202.1 44.4-134.3 88-191.2-57.7z"/>
		<path id="Layer" class="s24" d="m1050.5 455.1l140.5 31.4-93.4 62.2-132.8-40.8z"/>
		<path id="Layer" class="s5" d="m833.5 565.4c22.4-17.9 86.2 18.1 108.3 30.1 31.1 16.9 116.5 8.9 131.2 46.6 30.8 79.3-48.3 137.3-117.4 131.2-22.3-2-69.7-22.8-90.3-32.2-41.5-19.1-83.5-22.4-120.7-47.2"/>
		<path id="Layer" class="s25" d="m149 585.7l625.8 78.1-6.1 54.2-624.2-86.5z"/>
		<path id="Layer" class="s26" d="m1002.7 365.3l-235 354.5 2.7-42.3 227.8-354.7z"/>
		<path id="Layer" class="s25" d="m235 405.5v1.7z"/>
		<path id="Layer" class="s2" d="m354.9 487.4c-6-24-54.2-105.4-37.3-135 12.5-21.8 102-73.4 113.7-34.3 2.4 7.9 8.4 23.6 6.9 32.5-1.5 8.6-28.7 7.6-32.9 8.6-16.4 4.1-48.2 16.5-56.6 33.4-11.2 22.4 7.5 71.1 18.2 92.7"/>
		<path id="Layer" class="s27" d="m420.8 210.1c18.3-12.2 37.2-31.3 60.9-19.5 14.9 7.5 20.6 28 26.3 42.2 9 22.6 16.6 85.7 4 107.7-1.5 2.6-9.3 10.9-9.1 22.8 0.3 15.1 9.3 36.4 9.3 36.4 0 0-54.7 28.5-98.9 51.2-13.1-18.1-8.4-51.7-12.6-72.2-7.3-35.6-21.9-131.4 8.6-155.7z"/>
		<path id="Layer" class="s28" d="m282.6 460.3c-0.2 25.5 27 45.9 27.3 57.8 0.2 15.1-76.5 26.2-124.1 48.8-14-18.1-19.3-44.4-23.8-64.8-7.1-32.3-55.1-218.5 28.1-249.3 8.4-3.1 33.2-12.3 44.3-11.5 111 7.9 49 97.8 48.2 219z"/>
		<path id="Layer" class="s29" d="m149 585.5c0 0 517.1-294.6 517.8-293.2l333.9 28.7c0.6 1.4-228.4 353.4-228.4 353.4-1 0.6-623.9-85.3-623.9-85.3-0.7-1.4-0.4-3 0.6-3.6z"/>
		<path id="Layer" class="s2" d="m567.5 370.9c-5.3-14.8-33.4-65-25.7-87.8 4.7-14.4 59.7-44.4 70.1-26.2 18.4 32.3-40.7 29-52.8 45.1-10.6 14.1 9.7 52.6 16.5 66.1"/>
	</g>
	<g id="Calque-4">
		<path id="Layer" class="s30" d="m658.6 225.6c0 6.6 26.4 63.8 32.8 67.9 9 5.7 45.6-1.3 48.7 9.7 0.3 1.1-1.9 2.4-2.4 2.9-7.1 6.3-38.1 18-47.8 14.3-21.7-8.3-34.8-28.8-34.8-48.5"/>
		<path id="Layer" class="s31" d="m708 294.9l80.7-30.5-43.7 104.2-73.6 53.5z"/>
		<path id="Layer" class="s31" d="m430.2 497.8l79.2 15.8-46.2 58.3-132-21z"/>
		<path id="Layer" class="s32" d="m502.9 445.2l80.6-30.5-43.6 104.2-73.6 53.5z"/>
		<path id="Layer" class="s31" d="m629.2 356.7l79.7 11-40.6 53.9-131.9-21z"/>
		<path id="Layer" class="s33" d="m718.6 388.6l134.1 30.9 20.1 55.5-192.7-47.5z"/>
		<path id="Layer" class="s34" d="m713.2 402.5l137.1 13.4 26.9 52.6-197.1-22.6z"/>
		<path id="Layer" class="s35" d="m692.2 509.8l150.5 32.1-32 56.1-187.2-36.6z"/>
		<path id="Layer" class="s34" d="m687.6 478.6l155 19.6-25.8 64.8-192.6-20.7z"/>
		<path id="Layer" class="s36" d="m607.6 437.5c0-10.8 3.5-14.5 33.5-15.9 17.7-0.9 32.5 3.1 32.5 13.9 0 10.8-6 35.1-32 34.8-26-0.4-34-22-34-32.8z"/>
		<path id="Layer" class="s37" d="m620.5 432.9c-3.6 3.6-0.7 9.2 3 19.9 3.6 10.8 14.1 15.9 16.6 17.2 0 1.2-8.9-0.5-9.2-0.7-10.5-4.3-17.1-9.5-21.4-20.7-1.1-2.9-3.2-18.1 0.6-20 3.4-1.7 13.1 1.7 10.4 4.3z"/>
		<path id="Layer" class="s38" d="m610.3 429.3c0-3.5 13.6-8.3 31.2-8.3 17.5 0 30.5 5.6 30.5 9.1 0 3.6-12.5 5.7-30 5.7-17.5 0-31.7-2.9-31.7-6.5z"/>
		<path id="Layer" class="s37" d="m609.5 441.3c-8.6 0.6-14.4 4.7-7.3 11.7 2.5 2.5 22.5 7 19.5 8.8-4.6 2.8-12.6 2.2-17.1 0.1-24.6-11.4-6.1-33.7 3.9-25.1"/>
		<path id="Layer" class="s39" d="m785.4 351.7c-1.9 3.2 2 15.1 4.7 19.8 6.8 11.7-0.7 18.7 17.4 19.4 1.6 0 7.9-0.7 9-1.9 1.9-2.1 1.1-6.9 1.8-9.5 1.6-6.5 6.6-11.8 7.8-18.7 0.3-1.6 4.6-7.4 0.5-11.2-1.6-1.5-14.1-3.5-21.5-3.5-7.2 0.1-16.9 1.1-19.7 5.6z"/>
		<path id="Layer" class="s39" d="m580.3 502c-1.9 3.2 2 15.1 4.7 19.8 6.8 11.7-0.8 18.7 17.4 19.4 1.5 0 7.9-0.7 9-1.9 1.9-2.1 1.1-6.9 1.7-9.5 1.6-6.5 6.7-11.8 7.9-18.7 0.3-1.6 4.6-7.4 0.5-11.2-1.6-1.5-14.1-3.5-21.5-3.5-7.3 0.1-16.9 1.1-19.7 5.6z"/>
		<path id="Layer" class="s40" d="m787.6 353.7c0-3.1 8.5-5.6 18.9-5.6 10.5 0 19 2.5 19 5.6 0 3.1-8.5 5.6-19 5.6-10.4 0-18.9-2.5-18.9-5.6z"/>
		<path id="Layer" class="s40" d="m582.5 504c0-3.1 8.5-5.6 18.9-5.6 10.5 0 19 2.5 19 5.6 0 3.1-8.5 5.6-19 5.6-10.4 0-18.9-2.5-18.9-5.6z"/>
		<path id="Layer" class="s41" d="m794.9 283.7c0 0 1-0.1 2.3-0.1 1.3 0 2.3 0.1 2.3 0.1 0 0-1 0.1-2.3 0.1-1.3 0-2.3-0.1-2.3-0.1z"/>
		<path id="Layer" class="s41" d="m589.8 434c0 0 1 0 2.3 0 1.3 0 2.3 0 2.3 0 0 0-1 0.1-2.3 0.1-1.3 0-2.3-0.1-2.3-0.1z"/>
		<path id="Layer" class="s39" d="m823.9 363c3.3-6.7 8.7-4.9 6.4 1.3-2.2 6.3-25.7 10.3-5.4 8.6 3.3-0.3 11.6-3.1 12.2-6.5 2.9-15.9-4.7-11.6-10.6-11.1"/>
	</g>
	<g id="Calque-2">
		<path id="Layer" class="s42" d="m1008.3 283.8c-7.1-14.2 29-83 99.1-65.1 49.5 12.6 54.9 78.3 59.5 117.7 5.2 43.8 17.4 121.5-13.5 156.9-24.7 28.4-107 38.4-122.6-8.8-6.7-20.1 5.3-48.5 8.5-69.6 5.7-37.6-31-131.1-31-131.1z"/>
		<path id="Layer" class="s43" d="m1033.7 202.4c9.2 4.3 24.1 13.1 26.5 24 0.6 2.9 5 8.9 11.8 5.7 9.9-4.8 22.9-17.9 18.2-21.5-18.6-14.2-20-24.8-31.4-35.3"/>
		<path id="Layer" class="s44" d="m1084.8 166.7c16.3-56.2-78.3-96.6-88.5-35.5-3.4 20.8-0.8 72.8 23.5 84.5 33.5 16 65.3-41.3 65.3-58.6"/>
		<path id="Layer" class="s45" d="m1075.9 105.4c-27.1-18-99.1-10.1-81.1 43.6 1.2-13.9 1.7-21.4 5.1-23.5 2.7-1.7 9.3 0.9 15.1-1.2 8.5-3.1 26-7.9 33.4 8.6 3.7 8.3 4.2 30.9 10.2 26.1 12.1-9.9 19-0.2 19.5 5.2 0 1 0.2 12.4-1.4 15.8-1.9 4.1-3.9 7.4-3.5 7.1 20.4-13.4 29.8-63.7 2.7-81.7z"/>
		<path id="Layer" class="s44" d="m1062.5 156.4c13.1-43.6 46.1 15.3 4.6 22.9"/>
		<path id="Layer" class="s46" d="m1062.4 159.8c-4.4-1.3-8.1 18.3-8.7 18.7-7.1 4.8-45.6 11-54.7 3.6 3.5 15 9.9 28.4 20.8 33.6 20.5 9.8 40.3-7.9 52.7-27.1 0.7-8.9-4-19.5-8.1-26.8q-1-1.8-2-2z"/>
		<path id="Layer" class="s47" d="m1016 161.8c0 0 13 24-0.8 22.3-5.5-0.7-3.9-3.2-2-8.9 2-6.3 2.8-13.4 2.8-13.4z"/>
		<path id="Layer" class="s48" d="m1037.4 159c0-4.4-1.5-8-3.3-8.1-1.9-0.1-3.4 3.4-3.4 7.8-0.1 4.3 1.4 6.9 3.3 7 1.8 0.1 3.3-2.4 3.4-6.7z"/>
		<path id="Layer" class="s48" d="m1005.2 159.5c0-4.3-1.2-7.9-2.7-8-1.5 0-2.8 3.5-2.8 7.8-0.1 4.4 1.2 6.9 2.7 7 1.5 0 2.7-2.4 2.8-6.8z"/>
		<path id="Layer" class="s49" d="m1041.9 141.5c4.1 1.9-11.2 5.4-14.3 1-3.1-4.5 10.1-2.8 14.3-1z"/>
		<path id="Layer" class="s49" d="m997.7 145c-3.1 2.3 10 3.5 11.9-1.2 1.8-4.6-8.8-1.1-11.9 1.2z"/>
		<path id="Layer" class="s50" d="m1067 158.3c-1.9-8.6 8.8-14 12.2-5.8 2.6 6.3-1.3-2.2-4.9-0.6-2.6 1.1-6.9 8.5-7.3 6.4z"/>
		<path id="Layer" class="s42" d="m1014.9 260.5c-9.1 15.5-11.3 50.5-47 67.9-30 14.6-97.7-24.2-69 10.6 18.7 22.8 71.3 45.2 87.7 42.1 11.9-2.3 22.9-2.2 36.2-45.4 3.9-12.7-7.9-75.2-7.9-75.2z"/>
		<path id="Layer" class="s51" d="m1129.6 237.8c-30 34-0.2 112.4-34.1 144.7-24.2 23-103.2 7.8-108.4 52.8-4.3 37.1 101.9 18.9 115.3 9 43.5-32.1 61.3-76.3 59.5-125.7-0.6-14.7-17.8-97.2-32.3-80.8z"/>
		<path id="Layer" class="s44" d="m905.5 433c1 7.5-2 9.4-4.1 13.8-2.3 4.7-5.3 9.1-8 13.6-13.1 21.5-1.3-20.4-7.5-19.8-17.9 1.7-25.1 18.5-39.5 25.9-0.7 0.4-2.2 1.3-2.9 0.4-6.7-9.5 17.9-29.7 17.1-31.3-0.8-1.5-3.7-0.3-4.6 0.3-2.9 1.8-11.4 16.1-11.6 16-9.6-3 1-21.4 6.4-24.3 12.9-7.2 30.1-8.5 44.4-6.4 4.7 0.7 9.4 4.3 10.3 11.8z"/>
		<path id="Layer" class="s52" d="m1032.4 192.9c-0.4-0.3-6.7 3.8-15 2.6-8.3-1.3 2 5.5 6.3 5.2 6.5-0.5 10.6-6.1 8.7-7.8z"/>
		<path id="Layer" class="s52" d="m895.3 266q0.2-0.1 0.4-0.1"/>
		<path id="Layer" class="s44" d="m980 423c1.5-0.3-12.5-2.6-24.1 1.6-8.4 3.1-42.5 31.7-32.8 43.1 5.4 6.5 12.2-11.6 15.9-11.6 1.1 0 0.1 2.8 0.2 3.4 1.7 11.2 7.9 16.8 17.9 13.2 7.9-2.8 18.9-16.1 22.4-21.9 2.7-4.5 13-5 16.8-9.3 15.8-17.9-16.3-18.5-16.3-18.5z"/>
		<path id="Layer" class="s53" d="m823.1 253.5c-2.6 7.6-11 15.5-12.1 23.9-0.5 4.5 5.2 8.9 8.5 5.6"/>
		<path id="Layer" class="s54" d="m571.9 367.6c-7.5-37.5-0.2-120.1 23.4-150.9 8.1-10.5 35.1-25.1 50.6-16.7 15.6 8.4 31.7 51.8 30.2 74.9-1.3 21.4-25.3 26.2-15 46.9"/>
		<path id="Layer" class="s55" d="m782.4 459.8c-5.9 3.9-55.5 57.4-57.4 72.4-5.5 43.9 47.1 42.6 70.7 22.4 12.7-10.9 30.8-48.4 38.6-64"/>
		<path id="Layer" class="s56" d="m681.1 191c-6.6 3.3-17.3 15.9-19 24.4-0.5 2.2-4.1 16.8-4.4 16.6-15.6-8.8-36.7-27.8-21.5-35.7 15.3-7.9 18.7-18.1 26.9-26.2"/>
		<path id="Layer" class="s57" d="m508.9 179.7c-10.6 5-18.6 23.8-18.8 35.4 0 1.8 0.7 17 2.3 23.9 1.3 5.6-3.1 12.5-13.1 2.8-8.8-8.4-26.1-45.1-25.8-46.3 2-8.8 15.1-19.4 20.6-25.8 2.4-2.8 5-5.9 6.8-9.2 0.7-1.1 3.3-4.3 3.3-4"/>
		<path id="Layer" class="s44" d="m470 131.4c0-29.3 17.6-53.1 39.4-53.1 21.7 0 39.3 23.8 39.3 53.1 0 29.4-5.7 52.3-24.5 55.5-21.4 3.6-54.2-26.1-54.2-55.5z"/>
		<path id="Layer" class="s58" d="m547.1 115.5c0 10.7 9 19.7 10.7 29.8 0.6 3.8-8.8 8.4-10.1 5.2-3.4-8.6-0.3-22.5-0.3-31.7"/>
		<path id="Layer" class="s59" d="m529.5 125.1c0-3.6 1.3-6.6 3-6.6 1.6 0 3 3 3 6.6 0 3.7-1.4 6.6-3 6.6-1.7 0-3-2.9-3-6.6z"/>
		<path id="Layer" class="s60" d="m619.5 216.8c6.5 26.4 3.1 54.6 2.8 58.4-6.3 81.4 42.4 28.2 75.3 52-3.4 12.3-7.1 22.5-8 24.4-8.1 0.2-30.7 0.9-42.1 2.1-13.4 1.3-38.4 6.7-49.9-4.7-22.8-22.9-19-84.3-10.5-112.8 7.4-24.6 27-41.4 32.4-19.4z"/>
		<path id="Layer" class="s56" d="m531.2 83.8c-4.2-11.5-49.7-10.3-58.5-6.5-35.8 15.3-35.2 63.6-48.4 94.7-4.6 11-15.4 42.4-15 42 19.1-18 47.9 6.9 60.8-8.6 2.4-2.8 22.3-46.8 21-49.4-3.4-6.8-9.2-9.9-5.2-19.9 6.1-15.3 15.5 3.2 19.4-4.6 4.8-9.6 15.5-46.3 28.3-41.2 1.6 0.6-1.9-5-2.4-6.5z"/>
		<path id="Layer" class="s61" d="m539.4 169.3c-8.6-0.2-5.1-9.2 0.9-3.2 1.3 1.3 1.1 3.3-0.9 3.2z"/>
		<path id="Layer" class="s62" d="m504 222.5c6.7 9.1 8.9 17.6 12.1 28.7 6.5 22.1 6.3 69 23.7 86.4 0.3 0.2 0.6 0.4 0.9 0.6 1.8 1.1 3.6 0.4 5.6 0.3 8.3-0.6 102.5 7.6 84.5 25.5-13.6 13.7-37.9 12.1-55.9 13.6-13.6 1.1-54.5 12-66.5 0-21-21.1 6.1-46.6 7.7-69.9 2.1-28.9-12.2-57.2-12.2-84.6"/>
		<path id="Layer" class="s63" d="m630.6 103.1c0-9.7 7.7-17.6 17.3-17.6 9.6 0 17.3 7.9 17.3 17.6 0 9.7-7.7 17.6-17.3 17.6-9.6 0-17.3-7.9-17.3-17.6z"/>
		<path id="Layer" class="s64" d="m443.4 259c-2.1 29.3-22 61-15.5 90.4 1.3 6-3 21.4 4.1 20 59.4-11.3 37-6.6 56.4 2.7 1.2 0.7 14.1 13.2 10.3 16.2-19.8 16.2-104 28-111.4 10.1-15.5-37.5-1.2-143.6 7-159.2 8.1-15.7 16.4-38.7 38.8-29.9 16.2 6.3 10.3 49.7 10.3 49.7z"/>
		<path id="Layer" class="s44" d="m475 363.3c6.8 0.8 26.1-3.6 30.7-4.8 18.8-5 28.5-22.3 47.9-24.4 5-0.6 25.2-5.3 27.5 1 2.6 7.1-10.3 7.9-11.8 10.8-0.8 1.4 5.9 4 6.3 5.3 0.8 2.3-0.9 12.7-1.3 15.7-3.6 26.1-37.7 8.4-50.2 11.9-10.1 2.8-43.3 21.5-52.7 18.9-9.3-2.6-6.8-35.7 3.6-34.4z"/>
		<path id="Layer" class="s65" d="m822.6 254.3c7.7-42.1 35.5-72.3 62.1-67.5 26.7 4.9 65.4 26.5 57.8 68.6-2.4 12.9-37.6 47.1-28.8 58.3 6.1 7.7 23 16 4.9 24.5-14.5 6.8-32.4 9-41.2-0.4-10.2-10.9-32.2-6.6-40.9-8.2-26.7-4.8-21.5-33.1-13.9-75.3z"/>
		<path id="Layer" class="s66" d="m885.4 179.2c-16.6 4.2-24.5 4.6-40 12.1-8.7 4.2-16.1 12.5-20.4 21.1-0.3 0.6-1.2 2.3-0.4 2.8 2.3 1.5 6.8-3.8 8-1.2 1.2 2.6-4.1 6.8-3.1 11.6 0.6 3 8.1 2.5 8.6 5.9 0.6 3.6-3.2 13.4-1 15.6 4.6 4.6 10.2-6.1 15.2 0.7 10.8 14.4 0.9 35.6 8.7 48.6 3 4.9 19.3 10.7 21.8 13.2 7.4 7.4 4.5 10.5 25.3 1.5 30.8-13.2 60.7-70 42.6-101.8-4.6-8-15.5-8.4-22.9-12.1-12.1-6-25.7-22.3-42.4-18z"/>
		<path id="Layer" class="s67" d="m904.2 316.7c11-3.6 18.7-3.5 33.4 4.7 38.1 21.4 47.6 30.8 72.5 66.2 38.3 54.4 51.6 149.7 58.4 245.3-10.8 20.8-30.2 27.3-57.9 36-29.7 9.4-84 18.5-110.4-3.2-20.5-17-86.2-223.4-75.8-257.3 12-38.8 11.3-69.8 79.8-91.7z"/>
		<path id="Layer" class="s68" d="m853.3 253c2.8 8.3 4.7 12.8 2.6 18.7-3.2 8.9-11.3 15.8-9.5 17.6 2.6 2.7 10.9-7.4 11.7-8.5 7.6-10.4 4.5-27.7-0.9-34.2-4.6-5.7-16.7 1.4-16.7 1.4 0 0 11.7 1.8 12.8 5z"/>
		<path id="Layer" class="s69" d="m858 349.2c-16-7.9-38.6 32.5-49 49.4-4.2 6.9-40.3 57.6-40.1 70.2 0.1 12.6 16.2 24 22.8 28.9 18.7 13.6 34.2 19.6 45.9 5.7 4.2-5 6.5-16.8 12.2-28.3 0 0 36.5-38.9 39.6-70.7 3-31.9-31.4-55.2-31.4-55.2z"/>
		<path id="Layer" class="s70" d="m649.3 166.6c-10.8-43.5 52.3-74.6 59-27.5 2.3 16.1-1.4 53.7-17.6 62.7-22.3 12.4-41.6-29.3-41.6-42.7"/>
		<path id="Layer" class="s63" d="m652.3 103.5c17.5-8.2 74.3 5.7 56.1 46.1 0.5-9.7-0.6-17.1-2.9-18.7-1.8-1.3-6.7 1.3-10.6-0.3-5.7-2.4-21.4-9.1-26.9-4.5-6.3 5.2-14.8 26.9-15.4 35.3-0.1 0.8-0.1 9.3 0.6 12 0.6 2.7 1.3 4.4 1 4.4-25.1 0.3-38.3-57.2-1.9-74.3z"/>
		<path id="Layer" class="s70" d="m656.5 155c-8.8-33.6-31 11.9-3.1 17.7"/>
		<path id="Layer" class="s71" d="m692.7 156.8c-0.1 5.7 10.6 23.9-2 22.1-8.2-1.2 1.1-16.5 1.7-20.8 0-0.2 0.3-1.9 0.3-1.3z"/>
		<path id="Layer" class="s72" d="m672.1 158.3c0-3.8 1.4-7 3-7 1.7 0 3 3.2 3 7 0 3.9-1.3 7-3 7-1.6 0-3-3.1-3-7z"/>
		<path id="Layer" class="s73" d="m700 159.7c0-3.5 1-6.4 2.2-6.4 1.2 0 2.1 2.9 2.1 6.4 0 3.6-0.9 6.5-2.1 6.5-1.2 0-2.2-2.9-2.2-6.5z"/>
		<path id="Layer" class="s74" d="m698.8 147h1.1l2.9-0.2h1.8 0.6 0.5l0.3 0.2 0.2-0.2v-0.3l-0.2-0.3-0.4-0.2-0.3-0.2h-0.4l-0.3-0.2h-0.5-0.5l-0.3-0.1-0.7-0.1h-0.4-0.4l-0.6 0.1-0.5 0.1-0.6 0.2-0.5 0.2-0.4 0.2-0.3 0.2"/>
		<path id="Layer" class="s63" d="m671.3 144c-3.3 0.2 6.6 2.4 9.7 1.4 3.1-1-6.5-1.6-9.7-1.4z"/>
		<path id="Layer" class="s75" d="m651.9 155.6c1.2-6.7-5.9-10.8-8.2-4.5-1.8 4.9 0.8-1.7 3.3-0.5 1.7 0.9 4.6 6.6 4.9 5z"/>
		<path id="Layer" class="s76" d="m524.4 114.9c-1.3 2.9 5.7-3 8.7-4.2 0.8-0.3 3-0.3 2.4-0.8-2.8-2.2-10.1 2.8-11.1 5z"/>
		<path id="Layer" class="s44" d="m504.7 132.9c-4.3-2.1-6.2-7.7-11.4-9.8-21.5-8.6-15.5 39.1 1.8 30.4"/>
		<path id="Layer" class="s77" d="m708.2 294.7l4.6 2.6-38.9 123.2-2.9 2.1-3.1-1.4z"/>
		<path id="Layer" class="s77" d="m537.7 401.1l0.9-3.7 127.6 21.8 2.5 2.2-0.9 2.4z"/>
		<path id="Layer" class="s77" d="m331.4 552l0.9-3.7 127.6 21.8 2.5 2.2-0.9 2.4z"/>
		<path id="Layer" class="s78" d="m680.7 187.6c-1.4-2.6 1.7 0.5 5.3 1.3 4 0.9 8.7-0.3 8.9 0.3 1 2.5-11.3 4-14.2-1.6z"/>
		<path id="Layer" class="s79" d="m824.1 256.3c0.9-4.8 2.2-8.5 3-8.4 0.8 0.2 0.7 4.1-0.1 8.9-0.9 4.7-2.3 8.4-3.1 8.3-0.7-0.1-0.7-4.1 0.2-8.8z"/>
		<path id="Layer" class="s2" d="m951.7 797.3c-3.1-9.6-3.6-155.9-4.4-164-10.4-110.6-33.9-151.2 99.3-182.5 16.3-3.9 35.1-11.3 52.3-7.8 49.1 9.8 3.9 269.3-2.1 301.1-2.2 12-13.9-19.1-13.7-21.6 4.8-52.2 30.2-187.2 7.8-195.2-16.3-5.9-30.1 2.9-45.8 6-92.3 18.4-66.4 106.5-72.1 181-0.7 8.2-1 30.2-1.1 58.1-0.1 11.2-1.3 14.8-1.3 27.4"/>
		<path id="Layer" class="s44" d="m598.3 365.2c-1 8.3 2.1 10.3 4.3 15.1 2.3 5.3 5.5 10.1 8.4 15.1 13.6 23.5 1.2-22.5 7.8-21.9 18.6 1.9 26.1 20.4 41 28.5 0.8 0.4 2.4 1.5 3.1 0.4 7-10.4-18.7-32.6-17.8-34.4 0.8-1.6 3.9-0.3 4.8 0.3 3.1 2 11.8 17.7 12.1 17.7 10-3.4-1.1-23.6-6.6-26.8-13.6-7.9-31.4-9.3-46.3-7-4.9 0.7-9.8 4.8-10.8 13z"/>
		<path id="Layer" class="s80" d="m615.4 429.3c0-2.4 11.6-4.3 25.8-4.3 14.2 0 25.8 1.9 25.8 4.3 0 2.3-11.6 4.2-25.8 4.2-14.2 0-25.8-1.9-25.8-4.2z"/>
		<path id="Layer" class="s81" d="m497.4 136.7c3.6 1.5-4.4-11.8-8-8.8-4.3 3.8 5.4 7.7 8 8.8z"/>
		<path id="Layer" class="s82" d="m288.7 234.5c-9.4 4.6-24.6 14-27 25.7-0.6 3.1-3.7 18.5-10.5 15.1-10.1-5.2-24.8-28.2-20-32 18.9-15.3 20.3-26.5 31.9-37.8"/>
		<path id="Layer" class="s44" d="m242.8 196.4c-15.5-60.2 74.5-103.4 84.1-38.1 3.3 22.3-2 74.4-25.1 86.9-31.8 17.1-59.3-40.6-59.3-59.2"/>
		<path id="Layer" class="s83" d="m247.8 113.3c24.9-11.4 105.4 7.8 79.6 63.9 0.7-13.5-0.8-23.8-4.1-26-2.5-1.8-9.6 1.9-15.1-0.4-8.1-3.3-24.7-8.4-31.7 9.3-3.5 8.8-4 33-9.7 27.8-11.5-10.5-18.2-0.2-18.6 5.6 0 1.1-0.2 13.3 1.3 16.9 1.9 4.4 3.8 7.6 3.4 7.6-35.6 0.4-56.6-81.1-5.1-104.7z"/>
		<path id="Layer" class="s44" d="m264 185.3c-12.5-46.7-43.8 16.4-4.4 24.5"/>
		<path id="Layer" class="s84" d="m311.3 196.7c-1.1 1-3.4 6.7-5.2 12.4-1.7 5.1-3.4 10.3 4.9 10.2 5.4 0 4.5-4.7 3.7-10.5-1-6.4-1.7-13.6-3.4-12.1z"/>
		<path id="Layer" class="s85" d="m289.7 187.4c1.5-4.4 4.2-7.5 6-6.9 1.8 0.6 2 4.7 0.5 9.1-1.5 4.4-3.9 6.4-5.7 5.8-1.8-0.6-2.3-3.7-0.8-8z"/>
		<path id="Layer" class="s85" d="m319.1 193.1c1-4.5 3.1-7.9 4.6-7.5 1.6 0.3 1.9 4.3 0.8 8.8-1 4.5-2.9 6.8-4.4 6.5-1.5-0.4-2.1-3.3-1-7.8z"/>
		<path id="Layer" class="s49" d="m290.3 169.3c-4.6 0.3 9.3 6.2 13.8 3.9 4.5-2.4-9.1-4.2-13.8-3.9z"/>
		<path id="Layer" class="s49" d="m327.9 173.1c2.9 1.2-8.3 4.9-10.5 1.5-2.2-3.3 7.5-2.7 10.5-1.5z"/>
		<path id="Layer" class="s50" d="m259.8 187.4c1.7-9.2-8.4-15-11.7-6.3-2.5 6.8 1.2-2.3 4.7-0.6 2.4 1.2 6.5 9.1 7 6.9z"/>
		<path id="Layer" class="s86" d="m269.1 116.1c1-11.8 31.4-14.9 40.8-11.4 26.5 9.7 40.5 27.7 36.7 56.4-0.5 3.7-1.3 7.4-3.5 10.5-1.3 1.9-3.2 7.9-3.8 5.7-2.5-9.9 2.3-15.5-6.7-23.2-9.8-8.4-21.9-3.9-32.2-10-8.2-5-13.2-16.2-20.7-20.3-3.3-1.8-10.9-4.1-10.6-7.7z"/>
		<path id="Layer" class="s87" d="m297.1 277.8c11.6 46.5 24.7 101.2 59.2 135.7 24.6 24.6 90.4 12.5 95.8 60.5 4.4 39.7-99.1-4.3-113.8-13.5-45.2-28.2-35.6-41.7-47.6-77.3-4.5-13.5 6.4-105.4 6.4-105.4z"/>
		<path id="Layer" class="s88" d="m183.2 280.4c0.3 15.8-4.1 84.6-4.1 84.6 0 0-8.3 55.8 17.2 81.3 24.6 24.6 149.7 24.2 101.1 82-8.5 10.1-118.2-12.3-131.9-22.9-44.1-34.4-35.3-28.6-38.1-120.2-1.6-55 54.5-167.6 55.8-104.8z"/>
		<path id="Layer" class="s44" d="m410 471.5c-1 8.3 2.1 10.3 4.3 15.2 2.4 5.2 5.5 10 8.4 15 13.6 23.6 1.3-22.5 7.8-21.8 18.6 1.8 11.5 25.2 26.4 33.3 0.8 0.4 4.2-1.2 4.1-2.4-2.3-20.4-5.2-30.7-3.9-29.7 3.4 2.8 6.2 23 6.7 24 5.1 12.4 5.9-4.9 6.8-9.5 0.8-4.6-1.4-26.5-11-32.7-13.2-8.4-23.9-8.2-38.8-5.9-4.9 0.8-9.8 6.3-10.8 14.5z"/>
		<path id="Layer" class="s52" d="m289.9 228.8c0.3-0.4 4.3 1.6 9.1 2.6 4.3 1 9.5 1 6.9 1.6-0.6 0.2-3.3 1.3-6.6 0.9-5-0.6-10.9-3.1-9.4-5.1z"/>
		<path id="Layer" class="s52" d="m233.1 294.8q0.2-0.1 0.4-0.2"/>
		<path id="Layer" class="s44" d="m324 489.4c8.8 3.3 44.3 34.8 34.2 47.4-5.7 7.1-16-16.9-19.8-16.9-1.3 0 3 7.2 2.9 7.9-1.7 12.3-8.1 18.4-18.5 14.5-8.2-3.1-19.7-17.7-23.4-24.1-2.9-5-13.4-5.7-17.5-10.3-19.3-21.2 30-23.2 42.1-18.5z"/>
		<path id="Layer" class="s89" d="m1057 225.3c-3.7-13.6 3.5 0.6 11.2-4.1 7.2-4.4 15.1-16.7 18.8-16.7 5.3 0 8.6 8.2 7.6 13.5-2.6 14.6-32.5 26.1-37.6 7.2z"/>
		<path id="Layer" class="s90" d="m844.4 271.2c-4.7 1.4-0.8-17.5 5.8-16.1 6.8 1.5-2.3 15.1-5.8 16.1z"/>
		<path id="Layer" class="s77" d="m501.9 445.6l4.6 2.6-38.9 123.2-2.9 2.1-3.1-1.4z"/>
	</g>
	<g id="Calque-1">
	</g>
</svg>