<svg version="1.2" xmlns="http://www.w3.org/2000/svg" viewBox="0 0 1007 666" width="1007" height="666"><style>.a{fill:#795c4b}.b{fill:#564135}.c{fill:#5c4d44}.d{fill:#6c6152}.e{fill:#b8927b}.f{fill:#946f58}.g{fill:#4ccb9f}.h{fill:#906559}.i{fill:#e1b193}.j{fill:#c67848}.k{fill:#c8ad9c}.l{fill:#ffd4b9}.m{fill:#cdc5bf}.n{fill:#f8e5d9}.o{fill:#dfd1c8}.p{fill:#ffb36b}.q{fill:#e19d5c}.r{fill:#ffd5ad}.s{fill:#73a49e}.t{fill:#b3cecb}.u{fill:#ecaa6a}.v{fill:#dfcfcf}.w{fill:#d69a75}.x{fill:#ffbe96}.y{fill:#c79d80}.z{fill:#dba889}.A{fill:#e98466}.B{fill:#9f6959}.C{fill:#ad7c6e}.D{fill:#d57d61}.E{fill:#f0d9d9}.F{fill:#996252}.G{fill:#d98f7a}.H{fill:#e3905d}.I{fill:#ffcbaa}.J{fill:#75574e}.K{fill:#e5ac88}.L{fill:#f18162}.M{fill:#8a5140}.N{fill:#f1a06f}.O{fill:#8a655b}.P{fill:#35a37d}.Q{fill:#503f3a}.R{fill:#5bd7ac}.S{fill:#ffd1b4}.T{fill:#d0885b}.U{fill:#6aa18e}.V{fill:#ce9c7f}.W{fill:#609784}.X{fill:#a37364}.Y{fill:#915341}.Z{fill:#583025}.a0{fill:#62392d}.a1{fill:#4d3e30}.a2{fill:#88594b}.a3{fill:#946a5e}.a4{fill:#a79082}.a5{fill:#774333}.a6{fill:#866253}.a7{fill:#e3c3a4}.a8{fill:#e5a47c}.a9{fill:#ffa475}.aa{fill:#c4884d}.ab{fill:#ee947a}.ac{fill:#7e4c3e}.ad{fill:#d99857}.ae{fill:#7b5c53}.af{fill:#906154}.ag{fill:#c6b3b3}.ah{fill:#e0b090}</style><path class="a" d="m58.5 478.8c-5.2-20.9-70.4-156.6-55.6-182.4 10.8-19.1 113.8-56.5 124-22.3 2.1 6.9 10.6 25.6 9.3 33.3-1.3 7.5-30 7.2-33.7 8.1-14.3 3.6-56.4-2-63.7 12.7-9.8 19.6 19.7 102.2 29.1 121"/><path class="a" d="m966.5 381.8c5.4-21.6 52.3-144.9 37.1-171.5-11.1-19.6-106.5-55.9-117-20.7-2.1 7.1-10.8 26.3-9.5 34.3 1.3 7.7 30.8 7.4 34.5 8.3 14.7 3.7 57.8-2.1 65.3 13.1 10 20.2-9.5 98.6-19.2 118z"/><path class="b" d="m706.4 543.2l182.5 14.8-3.2 28.4-117.1 79.5-164.6-55.9 0.3-27.2z"/><path class="b" d="m843.4 350.7l126.7 10.4-2.2 20-81.4 56.2-114.3-39.5 0.2-19.2z"/><path class="c" d="m711.5 518.5l176.8 38.8-117.5 77-167.1-50.5z"/><path class="c" d="m846.9 333.2l122.8 27.4-81.6 54.4-116.2-35.7z"/><path class="d" d="m657.1 429.6c19.6-15.7 75.4 15.9 94.8 26.4 27.2 14.7 101.8 7.7 114.6 40.7 27 69.3-42.2 120-102.5 114.6-19.6-1.7-61-19.9-79-28.1-36.3-16.7-73-19.6-105.6-41.3"/><path class="e" d="m58.8 447.4l547.1 68.3-5.4 47.3-545.6-75.6z"/><path class="f" d="m805.1 254.7l-205.5 309.9 2.4-37 199.2-310.1z"/><path class="e" d="m133.9 289.8v1.5z"/><path class="a" d="m238.7 361.4c-5.2-20.9-47.3-92.1-32.5-118 10.9-19.1 89.1-64.2 99.4-30 2 6.9 7.3 20.6 6 28.4-1.3 7.5-25.1 6.7-28.8 7.6-14.3 3.6-42.1 14.4-49.5 29.1-9.8 19.6 6.6 62.2 16 81"/><path class="g" d="m296.4 119c15.9-10.6 32.5-27.4 53.2-17 13 6.5 18 24.4 23 36.8 7.9 19.8 14.5 74.9 3.5 94.2-1.3 2.3-8.2 9.5-8 19.9 0.3 13.2 8.2 31.9 8.2 31.9 0 0-47.8 24.9-86.5 44.7-11.4-15.8-7.4-45.2-11-63.1-6.4-31.1-19.1-114.9 7.5-136.1z"/><path class="h" d="m175.5 337.7c-0.2 22.3 23.7 40.2 23.9 50.5 0.2 13.3-66.9 22.9-108.4 42.7-12.4-15.8-16.9-38.8-20.9-56.7-6.2-28.2-48.2-191 24.6-217.9 7.3-2.7 29-10.7 38.7-10 97 6.8 42.9 85.4 42.1 191.4z"/><path class="i" d="m58.8 447.2c0 0 452.1-257.6 452.6-256.4l291.9 25.1c0.6 1.3-199.6 309-199.6 309-0.9 0.5-545.5-74.5-545.5-74.5-0.6-1.3-0.3-2.7 0.6-3.2z"/><path class="a" d="m424.7 259.6c-4.7-12.9-29.2-56.8-22.6-76.8 4.2-12.6 52.3-38.8 61.3-22.9 16.2 28.2-35.6 25.3-46.1 39.4-9.3 12.3 8.5 46 14.4 57.8"/><path class="j" d="m504.3 132.5c0 5.8 23.1 55.8 28.7 59.4 7.8 5 39.8-1.1 42.5 8.5 0.3 0.9-1.6 2.1-2.1 2.5-6.2 5.6-33.3 15.8-41.8 12.5-18.9-7.3-30.4-25.2-30.4-42.4"/><path class="k" d="m547.4 193.1l70.6-26.7-38.2 91.2-64.3 46.7z"/><path class="k" d="m304.6 370.5l69.2 13.8-40.4 51-115.3-18.3z"/><path class="l" d="m368.1 324.5l70.5-26.7-38.1 91.2-64.3 46.7z"/><path class="k" d="m478.5 247.1l69.7 9.7-35.5 47.1-115.3-18.3z"/><path class="m" d="m556.7 275.1l117.3 26.9 17.5 48.6-168.4-41.5z"/><path class="n" d="m552 287.2l119.8 11.7 23.6 46-172.3-19.8z"/><path class="o" d="m533.7 381l131.5 28.1-27.9 49-163.7-32z"/><path class="n" d="m529.6 353.7l135.5 17.2-22.5 56.6-168.4-18.1z"/><path class="p" d="m459.7 317.8c0-9.5 3.1-12.7 29.3-13.9 15.4-0.8 28.4 2.7 28.4 12.2 0 9.4-5.3 30.7-28 30.4-22.7-0.3-29.7-19.2-29.7-28.7z"/><path class="q" d="m471 313.8c-3.2 3.2-0.6 8 2.6 17.4 3.2 9.4 12.3 13.9 14.5 15 0 1.1-7.7-0.5-8.1-0.6-9.1-3.8-14.9-8.3-18.7-18.1-0.9-2.6-2.8-15.9 0.6-17.5 2.9-1.5 11.4 1.5 9.1 3.8z"/><path class="r" d="m462 310.7c0-3.2 12-7.4 27.3-7.4 15.3 0 26.7 4.9 26.7 8.1 0 3.1-10.9 4.9-26.3 4.9-15.3 0-27.7-2.5-27.7-5.6z"/><path class="q" d="m461.3 321.1c-7.5 0.6-12.6 4.2-6.4 10.3 2.2 2.1 19.8 6.1 17.1 7.7-4 2.4-11 1.9-15 0-21.5-9.9-5.3-29.4 3.5-21.9"/><path class="s" d="m615.2 242.8c-1.7 2.8 1.7 13.2 4.1 17.3 5.9 10.2-0.7 16.4 15.2 16.9 1.3 0.1 6.8-0.5 7.8-1.6 1.7-1.8 1-6.1 1.6-8.3 1.3-5.7 5.7-10.3 6.8-16.3 0.3-1.5 4-6.5 0.5-9.9-1.4-1.3-12.4-3-18.9-3-6.3 0-14.7 1-17.1 4.9z"/><path class="s" d="m435.8 374.2c-1.7 2.8 1.8 13.2 4.1 17.3 5.9 10.3-0.6 16.4 15.2 16.9 1.4 0.1 6.9-0.5 7.9-1.6 1.6-1.8 1-6.1 1.5-8.3 1.4-5.7 5.8-10.3 6.9-16.3 0.3-1.5 4-6.5 0.4-9.9-1.4-1.3-12.3-3-18.8-3-6.3 0-14.8 1-17.2 4.9z"/><path class="t" d="m617 244.5c0-2.7 7.5-4.9 16.6-4.9 9.2 0 16.6 2.2 16.6 4.9 0 2.8-7.4 5-16.6 5-9.1 0-16.6-2.2-16.6-5z"/><path class="t" d="m437.7 375.9c0-2.7 7.4-4.9 16.6-4.9 9.1 0 16.5 2.2 16.5 4.9 0 2.8-7.4 5-16.5 5-9.2 0-16.6-2.2-16.6-5z"/><path class="u" d="m623.4 183.3c0 0 0.9 0 2 0 1.2 0 2.1 0 2.1 0 0 0.1-0.9 0.1-2.1 0.1-1.1 0-2 0-2-0.1z"/><path class="u" d="m444.1 314.7c0 0 0.9 0 2 0 1.1 0 2 0 2 0 0 0.1-0.9 0.1-2 0.1-1.1 0-2 0-2-0.1z"/><path class="s" d="m648.8 252.7c2.9-5.9 7.6-4.4 5.6 1.1-2 5.5-22.5 9-4.8 7.5 2.9-0.3 10.2-2.7 10.7-5.7 2.6-13.9-4.1-10.1-9.2-9.7"/><path class="v" d="m810 183.4c-6.2-12.4 25.4-72.6 86.6-56.9 43.3 11 49.3 71.1 53.3 105.5 4.5 38.4 13.9 103.6-13 134.6-21.7 24.8-93.6 33.5-107.3-7.7-5.8-17.6 4.6-42.5 7.5-60.8 5-32.9-27.1-114.7-27.1-114.7z"/><path class="w" d="m832.2 112.3c8 3.7 21.1 11.4 23.2 21 0.5 2.5 4.3 7.7 10.2 4.9 8.7-4.2 20.1-15.6 16-18.8-16.3-12.4-17.5-21.6-27.4-30.9"/><path class="x" d="m876.9 81.1c14.2-49.2-68.5-84.5-77.4-31.1-3 18.2-0.7 63.7 20.5 73.9 29.3 14 57.2-36.1 57.2-51.3"/><path class="y" d="m869.1 27.5c-23.7-15.8-86.6-8.8-70.9 38 1-12.1 1.4-18.6 4.5-20.5 2.3-1.4 8.1 0.8 13.1-1 7.5-2.8 22.8-6.9 29.2 7.5 3.3 7.3 3.7 27 8.9 22.8 10.6-8.6 16.7-0.2 17.1 4.6 0.1 0.9 0.2 10.8-1.2 13.7-1.7 3.7-3.4 6.5-3.1 6.3 17.9-11.7 26.1-55.7 2.4-71.4z"/><path class="x" d="m857.3 72c11.5-38.1 40.4 13.4 4.1 20.1"/><path class="z" d="m857.3 75c-3.9-1.1-7.1 16-7.6 16.4-6.2 4.1-39.9 9.6-47.9 3.1 3.2 13.1 8.7 24.8 18.2 29.4 18 8.6 35.3-7 46.1-23.7 0.6-7.8-3.5-17.1-7.1-23.5q-0.9-1.5-1.7-1.7z"/><path class="A" d="m816.7 76.8c0 0 11.4 20.9-0.6 19.5-4.9-0.6-3.4-2.8-1.8-7.8 1.7-5.5 2.4-11.7 2.4-11.7z"/><path class="B" d="m835.4 74.3c0-3.8-1.2-7-2.9-7.1-1.6 0-2.9 3-3 6.8 0 3.9 1.3 6.1 2.9 6.2 1.7 0.1 3-2.1 3-5.9z"/><path class="B" d="m807.3 74.8c0-3.8-1-7-2.4-7-1.3-0.1-2.4 3-2.4 6.8-0.1 3.8 1 6 2.3 6.1 1.3 0 2.4-2.1 2.5-5.9z"/><path class="C" d="m839.4 59c3.6 1.6-9.8 4.8-12.5 0.8-2.8-3.9 8.8-2.4 12.5-0.8z"/><path class="C" d="m800.7 62.1c-2.7 2 8.8 3 10.4-1.1 1.6-4-7.7-0.9-10.4 1.1z"/><path class="D" d="m861.3 73.7c-1.6-7.5 7.7-12.2 10.7-5.1 2.3 5.6-1.1-1.9-4.3-0.5-2.3 1-6.1 7.4-6.4 5.6z"/><path class="v" d="m815.8 163c-8 13.6-9.9 44.2-41.2 59.4-26.2 12.7-85.3-21.2-60.3 9.3 16.4 19.9 62.4 39.5 76.7 36.8 10.4-2 20-2 31.6-39.7 3.5-11.1-6.8-65.8-6.8-65.8z"/><path class="E" d="m919.9 142.6c-26.3 29.7-4 98.9-33.7 127.1-21.1 20.1-90.2 6.9-94.8 46.1-3.7 32.5 89.2 16.6 100.9 7.9 37.9-28 48.5-66.8 51.9-109.8 1-11.6-11.7-85.6-24.3-71.3z"/><path class="x" d="m720.2 313.9c0.8 6.5-1.8 8.1-3.7 12-1.9 4.2-4.6 8-7 11.9-11.5 18.8-1.1-17.8-6.5-17.3-15.7 1.5-22 16.2-34.5 22.6-0.6 0.4-2 1.2-2.6 0.4-5.8-8.3 15.7-26 15-27.4-0.7-1.3-3.3-0.2-4 0.3-2.6 1.5-10 14-10.2 14-8.4-2.7 0.9-18.7 5.6-21.3 11.3-6.2 26.3-7.4 38.8-5.6 4.1 0.6 8.2 3.8 9.1 10.4z"/><path class="F" d="m831 104c-0.3-0.3-5.8 3.3-13 2.2-7.3-1.1 1.7 4.8 5.4 4.5 5.7-0.4 9.4-5.3 7.6-6.7z"/><path class="F" d="m711.2 167.9q0.2-0.1 0.4-0.2"/><path class="x" d="m785.2 305.1c1.4-0.2-10.9-2.3-21.1 1.4-7.3 2.7-37.1 27.7-28.6 37.7 4.8 5.7 10.7-10.2 13.9-10.2 1 0 0.1 2.5 0.2 3 1.5 9.8 6.9 14.7 15.6 11.6 6.9-2.4 16.5-14.1 19.6-19.1 2.4-4 11.4-4.5 14.7-8.2 13.8-15.7-14.3-16.2-14.3-16.2z"/><path class="G" d="m648 156.9c-2.2 6.7-9.6 13.5-10.5 21-0.5 3.8 4.5 7.7 7.4 4.8"/><path class="H" d="m428.4 256.7c-6.5-32.8-0.1-105 20.5-132 7.1-9.2 30.7-21.9 44.3-14.5 13.6 7.3 27.7 45.2 26.4 65.5-1.2 18.7-22.2 22.8-13.1 40.9"/><path class="I" d="m612.5 337.3c-5.1 3.4-48.5 50.2-50.2 63.3-4.8 38.4 41.2 37.2 61.8 19.6 11.1-9.6 27-42.3 33.8-56"/><path class="J" d="m523.9 102.3c-5.7 2.9-15.1 13.9-16.6 21.3-0.4 2-3.5 14.7-3.8 14.5-13.7-7.6-32.1-24.3-18.8-31.2 13.3-6.9 16.3-15.8 23.5-22.9"/><path class="K" d="m373.4 92.4c-9.2 4.4-16.3 20.8-16.4 31-0.1 1.5 0.6 14.8 2 20.8 1.1 5-2.8 10.9-11.5 2.5-7.6-7.3-22.8-39.4-22.5-40.5 1.7-7.6 13.2-16.9 17.9-22.5 2.2-2.5 4.4-5.2 6-8.1 0.6-0.9 2.9-3.8 2.9-3.5"/><path class="x" d="m339.4 50.2c0-25.7 15.4-46.5 34.4-46.5 19 0 34.4 20.8 34.4 46.5 0 25.7-5 45.7-21.5 48.5-18.7 3.2-47.3-22.8-47.3-48.5z"/><path class="L" d="m406.8 36.3c0 9.3 7.9 17.2 9.4 26 0.5 3.4-7.7 7.4-8.9 4.6-2.9-7.5-0.2-19.7-0.2-27.7"/><path class="M" d="m391.4 44.7c0-3.2 1.1-5.8 2.6-5.8 1.4 0 2.6 2.6 2.6 5.8 0 3.2-1.2 5.8-2.6 5.8-1.5 0-2.6-2.6-2.6-5.8z"/><path class="N" d="m470.1 124.9c5.7 23.1 2.7 47.6 2.4 51-5.4 71.2 37.1 24.6 65.8 45.4-2.9 10.8-6.1 19.7-6.9 21.4-7.1 0.2-26.8 0.8-36.9 1.8-11.7 1.2-33.5 5.9-43.5-4.1-20-20-16.7-73.6-9.2-98.6 6.4-21.5 23.6-36.2 28.3-16.9z"/><path class="J" d="m392.9 8.6c-3.7-10.1-43.4-9-51.2-5.7-31.2 13.4-30.7 55.6-42.2 82.8-4.1 9.6-13.5 37.1-13.1 36.7 16.6-15.7 41.8 6.1 53.1-7.5 2.1-2.5 19.4-41 18.3-43.2-2.9-5.9-8-8.7-4.5-17.4 5.3-13.4 13.5 2.8 16.9-4.1 4.2-8.3 13.6-40.4 24.8-35.9 1.3 0.5-1.7-4.5-2.1-5.7z"/><path class="O" d="m400 83.4c-7.4-0.3-4.4-8.2 0.9-2.9 1.1 1.2 0.9 2.9-0.9 2.9z"/><path class="P" d="m369.1 129.9c5.8 7.9 7.8 15.3 10.6 25 5.7 19.4 5.5 60.3 20.7 75.5 0.2 0.3 0.5 0.4 0.8 0.6 1.6 0.9 3.1 0.4 4.9 0.2 7.3-0.4 89.6 6.7 73.9 22.4-11.9 11.9-33.2 10.5-48.9 11.8-11.9 1-47.6 10.5-58.1 0-18.4-18.4 5.3-40.7 6.7-61 1.8-25.4-10.6-50.1-10.6-74"/><path class="Q" d="m479.8 25.4c0-8.5 6.8-15.3 15.1-15.3 8.4 0 15.1 6.8 15.1 15.3 0 8.5-6.7 15.4-15.1 15.4-8.3 0-15.1-6.9-15.1-15.4z"/><path class="R" d="m316.2 161.7c-1.9 25.6-19.3 53.4-13.7 79 1.2 5.3-2.5 18.7 3.7 17.6 51.9-9.9 32.4-5.9 49.2 2.3 1.1 0.6 12.4 11.5 9.1 14.2-17.4 14.2-91 24.5-97.4 8.8-13.6-32.8-1-125.5 6.1-139.2 7.1-13.7 14.4-33.8 33.9-26.1 14.1 5.5 9.1 43.4 9.1 43.4z"/><path class="x" d="m343.8 252.9c5.9 0.7 22.7-3.1 26.8-4.2 16.5-4.3 24.9-19.5 41.9-21.3 4.4-0.5 22-4.6 24 0.8 2.3 6.3-9 6.9-10.3 9.5-0.7 1.2 5.2 3.5 5.5 4.6 0.7 2-0.8 11.2-1.1 13.8-3.2 22.8-33 7.3-43.9 10.4-8.9 2.4-37.8 18.8-46.1 16.5-8.1-2.3-5.9-31.2 3.2-30.1z"/><path class="S" d="m647.7 157.7c6.7-36.9 31-63.3 54.3-59.1 23.2 4.3 57.1 23.2 50.4 60-2 11.2-32.8 41.1-25.1 50.9 5.3 6.8 20.1 14.1 4.2 21.5-12.6 5.9-28.3 7.8-35.9-0.3-9-9.6-28.2-5.8-35.8-7.2-23.3-4.3-18.8-29-12.1-65.8z"/><path class="T" d="m702.5 92c-14.5 3.7-21.3 4-34.9 10.6-7.7 3.7-14.1 10.9-17.9 18.4-0.2 0.5-1 2-0.3 2.5 2 1.3 5.9-3.4 7-1.1 1 2.2-3.6 6-2.8 10.1 0.6 2.7 7.1 2.3 7.6 5.2 0.5 3.2-2.8 11.7-0.9 13.6 4 4 8.9-5.3 13.3 0.6 9.5 12.6 0.8 31.2 7.7 42.5 2.6 4.4 16.8 9.4 19 11.6 6.5 6.5 3.9 9.1 22.1 1.3 26.9-11.5 53.1-61.2 37.2-89-4-7-13.5-7.4-20-10.6-10.5-5.3-22.5-19.4-37.1-15.7z"/><path class="U" d="m719 212.1c9.6-3 16.3-3 29.2 4.2 33.3 18.7 41.6 26.9 63.3 57.8 33.5 47.6 45.2 130.9 51.1 214.5-9.4 18.2-26.4 23.9-50.6 31.5-26 8.2-73.4 16.1-96.5-2.8-17.9-14.8-75.4-195.3-66.2-225 10.4-33.8 9.8-60.9 69.7-80.2z"/><path class="V" d="m674.5 156.5c2.5 7.3 4.1 11.2 2.2 16.3-2.8 7.8-9.8 13.9-8.3 15.5 2.3 2.3 9.6-6.6 10.3-7.5 6.6-9.1 3.9-24.2-0.8-29.9-4.1-5-14.6 1.3-14.6 1.3 0 0 10.2 1.5 11.2 4.3z"/><path class="W" d="m678.6 240.6c-14-6.9-33.8 28.4-42.8 43.2-3.7 6-35.2 50.3-35.1 61.4 0.1 11 14.2 21 19.9 25.2 16.3 11.9 29.9 17.2 40.2 5 3.6-4.4 5.6-14.6 10.6-24.7 0 0 31.9-34 34.6-61.9 2.7-27.8-27.4-48.2-27.4-48.2z"/><path class="X" d="m496.2 80.9c-9.5-37.9 45.6-65.2 51.5-24 2 14.1-1.2 46.9-15.4 54.8-19.5 10.8-36.3-25.6-36.3-37.3"/><path class="Q" d="m498.8 25.8c15.3-7.2 64.9 5 49 40.3 0.4-8.5-0.5-15-2.5-16.4-1.6-1.1-5.9 1.2-9.3-0.2-5-2.1-18.7-7.9-23.5-4-5.6 4.6-13 23.6-13.5 30.9 0 0.7 0 8.1 0.5 10.5 0.5 2.3 1.2 3.9 0.9 3.9-21.9 0.3-33.4-50.1-1.6-65z"/><path class="X" d="m502.4 70.9c-7.7-29.5-27 10.3-2.7 15.4"/><path class="Y" d="m534 72.4c0 4.9 9.4 20.9-1.7 19.3-7.1-1 1-14.4 1.5-18.2 0-0.2 0.2-1.6 0.2-1.1z"/><path class="Z" d="m516.1 73.7c0-3.4 1.2-6.1 2.6-6.1 1.5 0 2.6 2.7 2.6 6.1 0 3.4-1.1 6.1-2.6 6.1-1.4 0-2.6-2.7-2.6-6.1z"/><path class="a0" d="m540.5 75c0-3.2 0.8-5.7 1.9-5.7 1 0 1.9 2.5 1.9 5.7 0 3.1-0.9 5.6-1.9 5.6-1.1 0-1.9-2.5-1.9-5.6z"/><path class="a1" d="m539.4 63.8h1l2.5-0.1h1.6 0.5 0.5l0.2 0.1 0.2-0.1v-0.3l-0.2-0.2-0.4-0.3-0.2-0.2h-0.4l-0.2-0.1h-0.4-0.5l-0.3-0.1-0.6-0.1h-0.3-0.3l-0.6 0.1-0.4 0.1-0.5 0.1-0.5 0.2-0.4 0.3-0.2 0.1"/><path class="Q" d="m515.3 61.2c-2.8 0.2 5.8 2.1 8.6 1.2 2.7-0.8-5.7-1.3-8.6-1.2z"/><path class="a2" d="m498.4 71.3c1.1-5.8-5.2-9.4-7.2-3.9-1.5 4.3 0.8-1.5 2.9-0.4 1.5 0.7 4.1 5.7 4.3 4.3z"/><path class="a3" d="m387 35.7c-1.2 2.6 4.9-2.5 7.5-3.6 0.7-0.3 2.7-0.2 2.1-0.7-2.4-1.9-8.8 2.5-9.6 4.3z"/><path class="x" d="m369.7 51.5c-3.7-1.8-5.4-6.8-10-8.6-18.8-7.5-13.5 34.3 1.7 26.6"/><path class="a4" d="m547.6 192.9l4.1 2.3-34.1 107.7-2.5 1.9-2.7-1.3z"/><path class="a4" d="m398.6 285.9l0.8-3.1 111.5 19 2.2 1.9-0.8 2.1z"/><path class="a4" d="m218.2 417.9l0.8-3.2 111.5 19 2.3 1.9-0.8 2.1z"/><path class="a5" d="m523.6 99.4c-1.2-2.4 1.5 0.4 4.6 1.1 3.5 0.7 7.6-0.3 7.8 0.2 0.9 2.2-9.9 3.5-12.4-1.3z"/><path class="a6" d="m648.9 159.3c0.8-4.1 2-7.4 2.7-7.2 0.7 0.1 0.6 3.6-0.2 7.7-0.7 4.1-1.9 7.4-2.6 7.3-0.7-0.2-0.6-3.6 0.1-7.8z"/><path class="a" d="m760.5 632.3c-2.7-8.3-3.2-136.3-3.8-143.3-9.1-96.7-29.7-132.2 86.8-159.6 14.2-3.4 30.6-9.8 45.7-6.8 42.9 8.6 3.4 235.5-1.8 263.2-2 10.5-3.5-27-3.3-29.2 4.2-45.6 23.4-156.1-1.9-160.3-14.9-2.5-26.3 2.5-40.1 5.2-80.6 16.2-58 93.2-63 158.3-0.6 7.1-0.8 26.4-0.9 50.8-0.1 9.8-1.1 12.9-1.1 23.9"/><path class="x" d="m451.5 254.6c-0.9 7.2 1.9 9 3.8 13.2 2.1 4.6 4.8 8.8 7.3 13.2 12 20.6 1.1-19.7 6.9-19.1 16.2 1.6 22.8 17.8 35.9 24.9 0.6 0.3 2 1.2 2.6 0.3 6.1-9.1-16.3-28.5-15.5-30 0.7-1.5 3.4-0.3 4.1 0.2 2.7 1.8 10.4 15.5 10.7 15.4 8.7-2.9-1-20.5-5.9-23.4-11.8-6.9-27.4-8.1-40.4-6.1-4.3 0.7-8.6 4.2-9.5 11.4z"/><path class="a7" d="m466.5 310.6c0-2.1 10.1-3.7 22.6-3.7 12.4 0 22.5 1.6 22.5 3.7 0 2-10.1 3.7-22.5 3.7-12.5 0-22.6-1.7-22.6-3.7z"/><path class="a8" d="m363.3 54.8c3.2 1.3-3.8-10.3-6.9-7.6-3.8 3.2 4.7 6.6 6.9 7.6z"/><path class="a9" d="m180.9 140.4c-8.2 4-21.5 12.1-23.6 22.4-0.6 2.7-3.2 16.2-9.2 13.1-8.8-4.4-21.7-24.5-17.4-27.9 16.5-13.3 17.7-23.1 27.8-33"/><path class="x" d="m140.7 107c-13.5-52.6 65.2-90.4 73.6-33.3 2.8 19.5-1.8 65-22 75.9-27.8 15.1-51.8-35.4-51.8-51.6"/><path class="aa" d="m145.2 34.3c21.7-9.9 92.1 6.9 69.5 55.9 0.6-11.8-0.7-20.8-3.6-22.7-2.2-1.6-8.3 1.6-13.1-0.3-7.1-3-21.7-7.4-27.8 8.1-3.1 7.7-3.5 28.8-8.5 24.3-10-9.2-15.8-0.2-16.2 4.9 0 0.9-0.2 11.6 1.1 14.7 1.7 3.9 3.4 6.7 3 6.7-31.1 0.4-49.5-70.9-4.4-91.6z"/><path class="x" d="m159.3 97.3c-10.9-40.8-38.3 14.3-3.8 21.4"/><path class="ab" d="m200.6 107.3c-0.9 0.8-2.9 5.8-4.5 10.8-1.5 4.5-2.9 9 4.3 9 4.7-0.1 3.9-4.1 3.2-9.3-0.8-5.6-1.5-11.9-3-10.5z"/><path class="ac" d="m181.8 99.1c1.3-3.8 3.6-6.5 5.2-6 1.5 0.6 1.7 4.1 0.4 7.9-1.3 3.9-3.3 5.7-4.9 5.1-1.6-0.5-2.1-3.2-0.8-7z"/><path class="ac" d="m207.4 104.1c1-3.9 2.8-6.9 4.1-6.6 1.3 0.3 1.7 3.8 0.7 7.8-0.9 3.9-2.6 5.9-3.9 5.6-1.3-0.3-1.8-2.8-0.9-6.8z"/><path class="C" d="m182.3 83.3c-4 0.3 8.1 5.5 12 3.4 3.9-2.1-7.9-3.6-12-3.4z"/><path class="C" d="m215.1 86.6c2.6 1.1-7.2 4.3-9.1 1.4-1.9-3 6.5-2.4 9.1-1.4z"/><path class="D" d="m155.6 99.1c1.5-8-7.4-13.1-10.2-5.4-2.2 5.9 1-2.1 4.1-0.6 2.1 1 5.7 7.9 6.1 6z"/><path class="ad" d="m163.8 36.8c0.8-10.3 27.4-13 35.6-10 23.1 8.5 35.4 24.3 32.1 49.3-0.4 3.3-1.2 6.6-3.1 9.2-1.1 1.6-2.8 6.9-3.3 5-2.1-8.6 2-13.5-5.9-20.3-8.5-7.3-19.1-3.4-28.1-8.7-7.2-4.4-11.5-14.1-18.1-17.7-2.9-1.6-9.5-3.6-9.2-6.8z"/><path class="ae" d="m188.2 178.2c10.2 40.6 21.6 88.5 51.8 118.6 21.5 21.5 79 10.9 83.7 52.9 3.9 34.7-86.6-3.8-99.4-11.8-39.6-24.6-31.2-36.4-41.6-67.6-4-11.8 5.5-92.1 5.5-92.1z"/><path class="af" d="m88.7 180.5c0.3 13.8-3.6 73.9-3.6 73.9 0 0-7.3 48.8 15 71.1 21.5 21.5 130.9 21.2 88.3 71.7-7.4 8.8-103.3-10.8-115.2-20.1-38.6-30-30.9-24.9-33.3-105-1.5-48.1 47.6-146.6 48.8-91.6z"/><path class="x" d="m286.9 347.6c-0.9 7.2 1.9 8.9 3.8 13.2 2.1 4.5 4.8 8.8 7.3 13.1 12 20.6 1.1-19.6 6.8-19.1 16.3 1.7 10.1 22.1 23.1 29.2 0.7 0.3 3.7-1 3.6-2.1-2-17.8-4.5-26.9-3.4-26 3 2.5 5.5 20.1 5.8 21 4.5 10.9 5.2-4.3 6-8.3 0.7-4-1.2-23.2-9.6-28.6-11.5-7.4-20.9-7.1-33.9-5.1-4.3 0.6-8.6 5.4-9.5 12.7z"/><path class="F" d="m181.9 135.3c0.3-0.3 3.8 1.4 8 2.3 3.7 0.8 8.3 0.9 6 1.4-0.5 0.1-2.9 1.1-5.8 0.8-4.3-0.6-9.5-2.7-8.2-4.5z"/><path class="F" d="m132.2 193q0.2-0.1 0.4-0.1"/><path class="x" d="m211.8 363.1c7.6 3 38.6 30.5 29.8 41.5-5 6.2-14-14.8-17.3-14.8-1.1 0 2.7 6.4 2.6 6.9-1.5 10.8-7.1 16.1-16.2 12.7-7.2-2.7-17.3-15.5-20.4-21-2.6-4.4-11.8-5-15.4-9-16.8-18.6 26.3-20.3 36.9-16.3z"/><path class="ag" d="m852.6 132.2c-3.2-11.8 3 0.6 9.8-3.5 6.3-3.8 13.1-14.6 16.4-14.6 4.6 0 7.5 7.2 6.7 11.8-2.4 12.7-28.5 22.8-32.9 6.3z"/><path class="ah" d="m666.7 172.4c-4.1 1.2-0.7-15.3 5.1-14 5.9 1.3-2.1 13.2-5.1 14z"/><path class="a4" d="m367.2 324.9l4.1 2.3-34 107.6-2.6 1.9-2.6-1.3z"/></svg>