<?xml version="1.0" encoding="UTF-8" standalone="no"?>
<!DOCTYPE svg PUBLIC "-//W3C//DTD SVG 1.1//EN" "http://www.w3.org/Graphics/SVG/1.1/DTD/svg11.dtd">
<!-- Created with Vectornator (http://vectornator.io/) -->
<svg height="100%" stroke-miterlimit="10" style="fill-rule:nonzero;clip-rule:evenodd;stroke-linecap:round;stroke-linejoin:round;" version="1.1" viewBox="0 0 793.8 623.456" width="100%" xml:space="preserve" xmlns="http://www.w3.org/2000/svg" xmlns:vectornator="http://vectornator.io" xmlns:xlink="http://www.w3.org/1999/xlink">
<defs/>
<clipPath id="ArtboardFrame">
<rect height="623.456" width="793.8" x="0" y="0"/>
</clipPath>
<g clip-path="url(#ArtboardFrame)" id="Calque-3" vectornator:layerName="Calque 3">
<path d="M579.977 489.79L754.417 503.953L751.387 531.052L639.412 607.106L482.044 553.63L482.326 527.62L579.977 489.79Z" fill="#564135" fill-rule="nonzero" opacity="1" stroke="none"/>
<path d="M584.842 466.159L753.82 503.251L641.497 576.873L481.696 528.609L584.842 466.159Z" fill="#5c4d44" fill-rule="nonzero" opacity="1" stroke="none"/>
<path d="M532.838 381.119C551.551 366.149 604.916 396.312 623.422 406.336C649.403 420.409 720.763 413.702 733.043 445.28C758.824 511.575 692.682 560.055 634.961 554.901C616.242 553.23 576.66 535.841 559.476 527.977C524.738 512.08 489.63 509.299 458.509 488.552" fill="#6c6152" fill-rule="nonzero" opacity="1" stroke="none"/>
<path d="M9.68259 457.318L442.774 506.023L438.565 539.767L6.56437 485.88L9.68259 457.318Z" fill="#b8927b" fill-rule="nonzero" opacity="1" stroke="none" vectornator:layerName="(rectangle)"/>
<path d="M440.744 511.327L597.841 282.106L581.228 333.173L438.412 540.258L440.744 511.327Z" fill="#a77d64" fill-rule="nonzero" opacity="1" stroke="none"/>
<path d="M-40.9655 369.012L-40.9655 369.012L-40.9655 370.376L-40.9655 370.376L-40.9655 369.012Z" fill="#b8927b" fill-rule="nonzero" opacity="1" stroke="none"/>
<path d="M59.2631 437.456C54.2544 417.421 13.9744 349.333 28.1169 324.583C38.5153 306.386 113.343 263.227 123.162 295.955C125.135 302.533 130.121 315.652 128.887 323.056C127.687 330.257 104.878 329.441 101.405 330.309C87.6647 333.744 61.123 344.073 54.0729 358.173C44.7097 376.9 60.3243 417.626 69.3412 435.66" fill="#795c4b" fill-rule="nonzero" opacity="1" stroke="none"/>
<path d="M9.66764 457.16C9.66764 457.16 367.554 273.458 368.02 274.342L599.089 292.234C599.555 293.118 441.054 512.587 441.054 512.587C440.334 512.966 9.20798 459.449 9.20798 459.449C8.74194 458.564 8.94773 457.54 9.66764 457.16Z" fill="#f8c5a6" fill-rule="nonzero" opacity="1" stroke="none"/>
<path d="M237.031 340.074C232.537 327.713 209.098 285.754 215.471 266.634C219.466 254.65 265.415 229.559 274.088 244.737C289.515 271.734 240.068 268.986 229.957 282.468C221.125 294.243 238.114 326.407 243.769 337.716" fill="#795c4b" fill-rule="nonzero" opacity="1" stroke="none"/>
</g>
<g id="Calque-4" vectornator:layerName="Calque 4">
<path d="M313.162 218.567C313.162 224.116 335.216 271.906 340.601 275.368C348.055 280.16 378.648 274.299 381.26 283.442C381.52 284.352 379.704 285.477 379.242 285.894C373.346 291.2 347.391 300.971 339.303 297.861C321.171 290.886 310.181 273.766 310.181 257.302" fill="#c67848" fill-rule="nonzero" opacity="1" stroke="none"/>
<path d="M354.427 276.493L421.87 251.022L385.398 338.147L323.876 382.853L354.427 276.493Z" fill="#c8ad9c" fill-rule="nonzero" opacity="1" stroke="none"/>
<path d="M288.528 328.16L355.179 337.416L321.245 382.405L210.958 364.924L288.528 328.16Z" fill="#c8ad9c" fill-rule="nonzero" opacity="1" stroke="none"/>
<path d="M363.259 354.891L475.432 380.652L492.188 427.097L331.153 387.384L363.259 354.891Z" fill="#cdc5bf" fill-rule="nonzero" opacity="1" stroke="none"/>
<path d="M358.82 366.447L473.363 377.684L495.908 421.612L331.122 402.771L358.82 366.447Z" fill="#f8e5d9" fill-rule="nonzero" opacity="1" stroke="none"/>
<path d="M168.038 388.752C168.038 379.692 170.997 376.626 196.07 375.426C210.848 374.719 223.237 378.023 223.237 387.083C223.237 396.142 218.201 416.436 196.495 416.153C174.788 415.87 168.038 397.811 168.038 388.752Z" fill="#ffb36b" fill-rule="nonzero" opacity="1" stroke="none"/>
<path d="M178.845 384.933C175.865 387.945 178.264 392.591 181.326 401.571C184.389 410.551 193.152 414.852 195.195 415.907C195.195 416.927 187.828 415.471 187.535 415.349C178.769 411.697 173.254 407.381 169.645 397.997C168.714 395.577 166.973 382.87 170.159 381.277C172.983 379.865 181.066 382.689 178.845 384.933Z" fill="#e19d5c" fill-rule="nonzero" opacity="1" stroke="none"/>
<path d="M170.282 381.929C170.282 378.94 181.712 374.933 196.359 374.933C211.006 374.933 221.92 379.608 221.92 382.597C221.92 385.587 211.45 387.342 196.803 387.342C182.156 387.342 170.282 384.918 170.282 381.929Z" fill="#ffd5ad" fill-rule="nonzero" opacity="1" stroke="none"/>
<path d="M169.616 391.89C162.446 392.458 157.572 395.885 163.519 401.741C165.617 403.807 182.386 407.542 179.808 409.097C176.035 411.372 169.341 410.926 165.537 409.166C144.981 399.655 160.465 381.005 168.827 388.14" fill="#e19d5c" fill-rule="nonzero" opacity="1" stroke="none"/>
<path d="M419.166 324.034C417.546 326.688 420.82 336.654 423.09 340.59C428.729 350.37 422.452 356.228 437.628 356.756C438.908 356.8 444.197 356.217 445.157 355.168C446.728 353.45 446.087 349.403 446.611 347.253C447.94 341.802 452.135 337.406 453.186 331.643C453.439 330.253 456.99 325.45 453.591 322.231C452.257 320.968 441.779 319.347 435.599 319.365C429.552 319.381 421.472 320.258 419.166 324.034Z" fill="#73a49e" fill-rule="nonzero" opacity="1" stroke="none"/>
<path d="M420.98 325.698C420.98 323.106 428.071 321.005 436.817 321.005C445.564 321.005 452.654 323.106 452.654 325.698C452.654 328.29 445.564 330.391 436.817 330.391C428.071 330.391 420.98 328.29 420.98 325.698Z" fill="#b3cecb" fill-rule="nonzero" opacity="1" stroke="none"/>
<path d="M427.059 267.174C427.059 267.147 427.929 267.125 429.003 267.125C430.076 267.125 430.946 267.147 430.946 267.174C430.946 267.202 430.076 267.224 429.003 267.224C427.929 267.224 427.059 267.202 427.059 267.174Z" fill="#ecaa6a" fill-rule="nonzero" opacity="1" stroke="none"/>
<path d="M451.299 333.452C454.09 327.869 458.592 329.327 456.711 334.552C454.829 339.777 435.195 343.188 452.127 341.696C454.894 341.452 461.868 339.136 462.383 336.303C464.806 322.979 458.418 326.63 453.514 327.028" fill="#73a49e" fill-rule="nonzero" opacity="1" stroke="none"/>
</g>
<g id="Calque-2" vectornator:layerName="Calque 2">
<path d="M548.405 165.56C546.424 171.502 539.818 177.642 538.989 184.275C538.555 187.742 543.034 191.175 545.58 188.63" fill="#d98f7a" fill-rule="nonzero" opacity="1" stroke="none"/>
<path d="M431.06 39.1612C431.296 39.5155 427.688 33.1426 425.803 35.7817C422.387 40.5636 426.945 56.8098 433.813 56.8098" fill="#e3ae8e" fill-rule="nonzero" opacity="1" stroke="none"/>
<path d="M474.493 39.4115C479.568 24.1845 493.687 50.7039 472.74 57.6859" fill="#e3ae8e" fill-rule="nonzero" opacity="1" stroke="none"/>
<path d="M611.827 214.927C620.46 212.158 604.348 206.882 632.853 220.778C663.566 235.751 675.107 242.677 694.585 270.356C724.517 312.89 734.93 387.369 740.227 462.127C731.813 478.369 716.64 483.488 695.015 490.272C671.754 497.57 629.329 504.686 608.719 487.712C592.665 474.492 541.322 313.116 549.481 286.597C558.793 256.334 558.257 232.114 611.827 214.927Z" fill="#6aa18e" fill-rule="nonzero" opacity="1" stroke="none"/>
<path d="M411.729 181.719C409.841 180.774 411.08 181.595 411.729 176.834C413.695 162.414 412.966 149.123 411.215 134.673C409.857 123.469 399.503 101.333 406.879 91.0075C426.648 63.3302 478.674 75.3972 499.197 95.9204C516.097 112.82 486.9 135.323 477.541 146.242C466.546 159.07 466.964 171.822 448.748 175.292C445.371 175.935 433.226 180.699 426.966 181.358" fill="#e5cfcf" fill-rule="nonzero" opacity="1" stroke="none"/>
<path d="M240.635 337.333C234.366 305.986 240.483 236.896 260.226 211.144C266.965 202.354 289.546 190.182 302.536 197.201C315.527 204.221 329.01 240.475 327.8 259.833C326.683 277.711 306.607 281.679 315.267 299" fill="#e3905d" fill-rule="nonzero" opacity="1" stroke="none"/>
<path d="M422.524 127.493C434.047 125.917 472.207 124.439 475.045 126.568C475.472 126.888 475.075 143.21 477.243 158.212C479.059 170.783 483.494 182.3 483.817 183.915C485.376 191.71 495.959 274.47 494 284.125C492.044 284.114 410.612 277.854 410.612 277.854L420.994 251.462C420.994 251.462 405.85 257.433 398.675 259.724C397.175 245.493 405.902 220.726 405.949 217.237C406.377 185.246 413.087 185.454 414.682 156.104C415.186 146.824 416.523 128.315 422.524 127.493Z" fill="#7d5f5f" fill-rule="nonzero" opacity="1" stroke="none"/>
<path d="M444.638 70.9326C444.638 68.9015 444.782 74.8064 444.086 76.7144C443.663 77.8739 441.844 82.1471 441.42 84.2641C440.241 90.1613 451.943 94.3732 455.671 93.9406C459.749 93.4674 463.331 91.2995 463.247 88.22C463.163 85.1406 462.235 82.8166 462.133 79.7769C461.936 73.9141 462.772 74.3721 462.772 67.9604" fill="#ce9979" fill-rule="nonzero" opacity="1" stroke="none"/>
<path d="M511.63 132.775C517.092 172.662 524.736 173.381 514.819 197.438C513.058 201.71 491.693 237.489 488.119 231.976C484.814 226.878 484.735 225.384 487.952 219.088C494.621 206.038 496.316 186.063 498.496 177.207C500.685 168.318 490.875 165.627 488 131.145" fill="#f8c5a6" fill-rule="nonzero" opacity="1" stroke="none"/>
<path d="M442.447 227.013C442.447 224.536 451.685 223.986 462.995 223.986C474.305 223.986 483.405 224.536 483.405 227.013C483.405 229.49 474.236 231.497 462.926 231.497C451.616 231.497 442.447 229.49 442.447 227.013Z" fill="#6d7b96" fill-rule="nonzero" opacity="1" stroke="none" vectornator:layerName="(oval)"/>
<path d="M449.832 218.232C449.775 215.756 448.965 209.543 461.791 209.448C472.372 209.371 474.088 213.274 473.645 217.846C472.449 230.203 464.874 229.287 462.239 229.493C458.402 229.792 450.031 226.902 449.832 218.232Z" fill="#8692ab" fill-rule="nonzero" opacity="1" stroke="none"/>
<path d="M516.607 326.781C512.026 329.835 473.223 371.704 471.756 383.434C467.468 417.744 508.547 416.713 526.993 400.902C536.942 392.375 551.097 363.081 557.208 350.859" fill="#dea887" fill-rule="nonzero" opacity="1" stroke="none"/>
<path d="M331.949 189.701C326.422 192.465 317.469 202.995 316.051 210.084C315.676 211.957 312.654 224.095 312.4 223.953C299.314 216.607 281.675 200.707 294.434 194.101C307.193 187.495 310.035 179.004 316.866 172.173" fill="#75574e" fill-rule="nonzero" opacity="1" stroke="none"/>
<path d="M114.39 205.647C129.626 195.49 145.427 179.455 165.293 189.388C177.723 195.603 182.481 212.763 187.213 224.593C194.778 243.505 201.145 296.224 190.594 314.689C189.357 316.854 182.786 323.79 182.968 333.703C183.201 346.339 190.776 364.165 190.776 364.165C190.776 364.165 145.053 387.99 108.096 406.908C97.1378 391.803 101.033 363.696 97.5395 346.594C91.4656 316.864 79.2846 236.723 104.708 216.446L114.39 205.647Z" fill="#4ccb9f" fill-rule="nonzero" opacity="1" stroke="none"/>
<path d="M188.033 180.221C179.169 184.412 172.447 200.117 172.295 209.843C172.272 211.319 172.889 224.062 174.227 229.786C175.33 234.504 171.586 240.217 163.232 232.175C155.933 225.15 141.456 194.427 141.688 193.405C143.344 186.107 154.348 177.264 158.88 171.91C160.906 169.517 163.059 166.932 164.615 164.194C165.143 163.266 167.384 160.573 167.357 160.85" fill="#e5ac88" fill-rule="nonzero" opacity="1" stroke="none"/>
<path d="M155.509 139.873C155.509 115.341 170.227 95.4542 188.382 95.4542C206.538 95.4542 221.256 115.341 221.256 139.873C221.256 164.405 216.528 183.55 200.774 186.238C182.878 189.292 155.509 164.405 155.509 139.873Z" fill="#ffbe96" fill-rule="nonzero" opacity="1" stroke="none"/>
<path d="M219.94 126.594C219.94 135.486 227.477 142.996 228.89 151.468C229.421 154.656 221.537 158.489 220.466 155.812C217.609 148.668 220.203 137.015 220.203 129.358" fill="#f18162" fill-rule="nonzero" opacity="1" stroke="none"/>
<path d="M205.2 134.622C205.2 131.57 206.319 129.095 207.7 129.095C209.081 129.095 210.201 131.57 210.201 134.622C210.201 137.675 209.081 140.15 207.7 140.15C206.319 140.15 205.2 137.675 205.2 134.622Z" fill="#8a5140" fill-rule="nonzero" opacity="1" stroke="none"/>
<path d="M280.49 211.264C285.89 233.358 283.05 256.855 282.8 260.097C277.57 328.097 318.214 283.621 345.726 303.512C342.883 313.84 339.834 322.345 339.082 323.943C332.291 324.111 313.416 324.7 303.851 325.656C292.643 326.777 271.765 331.306 262.189 321.731C243.064 302.605 246.232 251.321 253.385 227.48C259.545 206.944 275.983 192.825 280.49 211.264Z" fill="#f1a06f" fill-rule="nonzero" opacity="1" stroke="none"/>
<path d="M206.621 100.06C203.149 90.4416 165.138 91.4616 157.746 94.6295C127.85 107.442 128.324 147.798 117.31 173.832C113.435 182.99 104.395 209.246 104.777 208.887C120.729 193.896 144.757 214.717 155.574 201.737C157.562 199.351 174.175 162.576 173.119 160.465C170.278 154.782 165.419 152.144 168.775 143.755C173.868 131.021 181.705 146.467 184.983 139.912C188.987 131.903 197.987 101.28 208.67 105.505C209.954 106.013 207.066 101.291 206.621 100.06Z" fill="#75574e" fill-rule="nonzero" opacity="1" stroke="none"/>
<path d="M213.469 171.583C206.344 171.34 209.211 163.82 214.263 168.872C215.376 169.986 215.152 171.64 213.469 171.583Z" fill="#8a655b" fill-rule="nonzero" opacity="1" stroke="none"/>
<path d="M183.944 216.046C189.491 223.61 191.33 230.757 194.04 239.97C199.488 258.494 199.278 297.652 213.835 312.209C214.053 312.427 214.341 312.564 214.606 312.723C216.121 313.632 217.601 313.089 219.234 312.98C226.221 312.514 304.939 319.309 289.93 334.318C278.519 345.729 258.203 344.374 243.142 345.629C231.768 346.577 197.642 355.658 187.613 345.629C170.025 328.042 192.651 306.709 194.04 287.272C195.77 263.056 183.859 239.451 183.859 216.536" fill="#35a37d" fill-rule="nonzero" opacity="1" stroke="none"/>
<path d="M289.727 116.196C289.727 108.072 296.204 101.485 304.194 101.485C312.183 101.485 318.66 108.072 318.66 116.196C318.66 124.321 312.183 130.907 304.194 130.907C296.204 130.907 289.727 124.321 289.727 116.196Z" fill="#503f3a" fill-rule="nonzero" opacity="1" stroke="none"/>
<path d="M133.279 246.498C131.52 270.982 114.885 297.519 120.259 322.062C121.364 327.11 117.821 339.945 123.744 338.815C173.337 329.354 154.691 333.257 170.829 341.096C171.895 341.614 182.619 352.064 179.509 354.607C162.901 368.184 92.5289 378.034 86.3396 363.06C73.3771 331.7 85.3852 243.043 92.2 229.958C99.0148 216.872 105.954 197.646 124.661 204.967C138.145 210.243 133.279 246.498 133.279 246.498Z" fill="#5bd7ac" fill-rule="nonzero" opacity="1" stroke="none"/>
<path d="M159.69 333.7C165.323 334.382 181.45 330.734 185.319 329.708C201.068 325.534 209.171 311.041 225.384 309.291C229.569 308.84 246.439 304.91 248.351 310.109C250.543 316.067 239.726 316.708 238.466 319.125C237.846 320.315 243.455 322.507 243.796 323.591C244.393 325.49 243.031 334.238 242.69 336.701C239.668 358.546 211.183 343.734 200.721 346.659C192.237 349.032 164.549 364.656 156.65 362.445C148.885 360.271 151.001 332.648 159.69 333.7Z" fill="#ffbe96" fill-rule="nonzero" opacity="1" stroke="none"/>
<path d="M430.46 41.5277C430.46 22.2677 441.074 6.65442 454.167 6.65442C467.26 6.65442 477.874 22.2677 477.874 41.5277C477.874 60.7877 467.26 76.401 454.167 76.401C441.074 76.401 430.46 60.7877 430.46 41.5277Z" fill="#f4c5a9" fill-rule="nonzero" opacity="1" stroke="none"/>
<path d="M407.376 148.052C407.376 155.121 397.427 169.27 400.608 175.531C410.123 194.261 415.943 210.051 424.853 217.476C429.101 221.016 438.838 234.47 434.309 240.509C432.604 242.783 429.144 227.248 426.793 229.599C420.438 235.953 436.233 248.213 433.582 252.632C431.385 256.293 416.562 246.693 414.912 244.631C409.232 237.53 415.698 227.793 411.518 220.628C403.466 206.824 386.498 203.892 380.969 186.199C376.061 170.493 383.126 146.504 391.137 130.046" fill="#f8c5a6" fill-rule="nonzero" opacity="1" stroke="none"/>
<path d="M425.58 83.2007C394.209 83.2007 390.07 112.837 385.578 135.302C384.396 141.211 379.29 150.27 380.699 156.376C381.972 161.893 395.59 169.225 401.384 166.328C409.55 162.245 403.447 145.1 414.458 139.595" fill="#e5cfcf" fill-rule="nonzero" opacity="1" stroke="none"/>
<path d="M477.915 86.7626C478.306 88.3246 496.788 90.6827 502.333 98.9999C514.784 117.677 520.932 164.341 493.88 158.931C490.661 158.287 487.36 132.513 484.198 129.351" fill="#e5cfcf" fill-rule="nonzero" opacity="1" stroke="none"/>
<path d="M439.792 41.4452C439.792 38.6355 440.824 36.3578 442.097 36.3578C443.371 36.3578 444.403 38.6355 444.403 41.4452C444.403 44.2548 443.371 46.5325 442.097 46.5325C440.824 46.5325 439.792 44.2548 439.792 41.4452Z" fill="#6b432b" fill-rule="nonzero" opacity="1" stroke="none"/>
<path d="M461.946 42.1367C461.946 39.4629 462.932 37.2954 464.148 37.2954C465.364 37.2954 466.35 39.4629 466.35 42.1367C466.35 44.8105 465.364 46.978 464.148 46.978C462.932 46.978 461.946 44.8105 461.946 42.1367Z" fill="#6b432b" fill-rule="nonzero" opacity="1" stroke="none"/>
<path d="M453.6 54.927C448.674 54.629 450.687 49.7779 451.135 45.3882C452.504 31.9782 456.518 55.1036 453.6 54.927Z" fill="#dd9077" fill-rule="nonzero" opacity="1" stroke="none"/>
<path d="M451.868 63.746C450.388 63.4928 449.771 63.0054 449.125 61.9564C448.667 61.211 450.551 62.0409 452.802 62.2894C455.053 62.5378 458.004 61.2019 458.686 62.1106C460.265 64.2161 453.348 63.9993 451.868 63.746Z" fill="#af7c5c" fill-rule="nonzero" opacity="1" stroke="none"/>
<path d="M548.07 166.218C554.049 133.293 575.777 109.667 596.6 113.449C617.423 117.23 647.721 134.142 641.742 167.067C639.921 177.094 612.337 203.838 619.239 212.591C624.011 218.642 635.722 222.808 621.56 229.463C610.275 234.767 597.749 239.823 590.905 232.535C582.877 223.987 565.719 226.294 558.891 225.054C538.068 221.272 542.09 199.143 548.07 166.218Z" fill="#eec4ab" fill-rule="nonzero" opacity="1" stroke="none"/>
<path d="M449.949 17.5381C450.743 18.5539 453.619 21.1736 456.753 23.2375C458.954 24.6874 461.015 25.7084 463.725 26.3738C466.137 26.9662 463.67 23.8737 463.357 21.1426C463.19 19.6747 469.954 25.4746 472.19 25.4381C474.113 25.4067 471.458 19.3102 472.372 20.7965C475.221 25.4257 475.086 40.3662 477.32 40.3662C478.487 40.3662 480.654 25.627 480.617 24.767C480.459 21.1268 480.974 15.9087 478.645 12.2185C476.208 8.35808 469.422 4.48076 465.75 3.01186C455.438-1.11293 439.446 2.37769 432.177 9.94544C428.746 13.5171 427.899 18.5842 427.063 23.6002C426.561 26.6128 426.654 39.6678 429.701 41.699C431.138 42.6575 433.343 24.6401 434.311 22.7025C439.665 11.9962 444.194 21.7615 451.746 21.7615" fill="#7b5a4c" fill-rule="nonzero" opacity="1" stroke="none"/>
<path d="M597.121 107.471C584.132 110.774 578.009 111.052 565.852 116.946C559.043 120.248 553.256 126.708 549.88 133.461C549.669 133.881 548.978 135.205 549.609 135.626C551.387 136.812 556.337 131.486 557.46 133.731C559.171 137.154 552.656 140.035 553.399 143.748C553.867 146.089 559.731 145.733 560.167 148.35C560.644 151.214 557.665 158.843 559.355 160.533C562.945 164.123 567.315 155.805 571.267 161.074C579.704 172.324 571.998 188.928 578.091 199.082C580.418 202.96 593.137 207.452 595.116 209.432C600.895 215.21 598.592 217.586 614.853 210.617C638.96 200.286 662.334 155.841 648.153 131.024C644.56 124.738 636.074 124.444 630.285 121.549C620.847 116.83 610.155 104.156 597.121 107.471Z" fill="#dd9569" fill-rule="nonzero" opacity="1" stroke="none"/>
<path d="M570.44 166.058C572.663 172.545 574.108 176.064 572.441 180.657C569.929 187.578 563.616 193.04 565.014 194.438C567.094 196.517 573.569 188.622 574.196 187.761C580.105 179.636 577.72 166.117 573.51 161.002C569.853 156.559 560.461 162.163 560.461 162.163C560.461 162.163 569.582 163.556 570.44 166.058Z" fill="#ce9c7f" fill-rule="nonzero" opacity="1" stroke="none"/>
<path d="M575.737 240.346C563.235 234.21 545.505 265.785 537.423 279.009C534.148 284.368 503.99 323.723 505.227 328.673C506.848 335.155 523.364 340.648 528.518 344.428C548.36 358.979 548.514 377.39 565.508 343.4C565.508 343.4 597.831 308.403 600.229 283.486C602.627 258.569 575.737 240.346 575.737 240.346Z" fill="#609784" fill-rule="nonzero" opacity="1" stroke="none"/>
<path d="M427.951 77.31C430.245 75.8193 434.781 73.6042 435.318 76.1437C436.747 82.8998 425.787 107.046 426.243 126.13C426.699 145.214 427.355 161.292 424.618 150.344C423.223 144.766 418.567 137.914 419.064 129.858C420.275 110.201 425.657 78.8007 427.951 77.31Z" fill="#7d5f5f" fill-rule="nonzero" opacity="1" stroke="none"/>
<path d="M476.345 80.5157C475.308 79.7432 465.597 76.5951 465.992 77.7855C468.598 85.6551 473.938 110.56 469.646 129.855C465.353 149.15 466.414 150.162 468.493 154.839C469.167 156.355 472.066 154.938 473.225 154.938C474.434 154.938 474.56 152.316 476.895 144.671C479.905 134.814 480.638 107.311 478.941 88.0587C478.246 80.1747 478.748 82.3064 476.345 80.5157Z" fill="#7d5f5f" fill-rule="nonzero" opacity="1" stroke="none"/>
<path d="M305.396 169.26C296.319 132.954 349.045 106.889 354.677 146.31C356.596 159.746 353.506 191.169 339.973 198.687C321.32 209.05 305.218 174.22 305.218 163.034" fill="#a37364" fill-rule="nonzero" opacity="1" stroke="none"/>
<path d="M307.883 116.558C322.505 109.698 369.976 121.289 354.78 155.113C355.185 146.944 354.299 140.777 352.364 139.404C350.867 138.343 346.71 140.555 343.475 139.195C338.683 137.178 325.599 131.608 321.008 135.405C315.692 139.8 308.588 157.93 308.121 164.951C308.076 165.615 308.071 172.681 308.587 174.938C309.102 177.195 309.742 178.681 309.487 178.685C288.494 178.935 277.477 130.823 307.883 116.558Z" fill="#503f3a" fill-rule="nonzero" opacity="1" stroke="none"/>
<path d="M311.364 159.627C304.005 131.484 285.512 169.514 308.768 174.42" fill="#a37364" fill-rule="nonzero" opacity="1" stroke="none"/>
<path d="M341.609 161.097C341.592 165.825 350.546 181.089 339.98 179.579C333.155 178.604 340.91 165.744 341.358 162.162C341.381 161.975 341.611 160.581 341.609 161.097Z" fill="#915341" fill-rule="nonzero" opacity="1" stroke="none"/>
<path d="M324.442 162.35C324.442 159.132 325.564 156.524 326.948 156.524C328.333 156.524 329.455 159.132 329.455 162.35C329.455 165.568 328.333 168.177 326.948 168.177C325.564 168.177 324.442 165.568 324.442 162.35Z" fill="#583025" fill-rule="nonzero" opacity="1" stroke="none"/>
<path d="M347.748 163.541C347.748 160.565 348.562 158.153 349.565 158.153C350.569 158.153 351.382 160.565 351.382 163.541C351.382 166.516 350.569 168.929 349.565 168.929C348.562 168.929 347.748 166.516 347.748 163.541Z" fill="#62392d" fill-rule="nonzero" opacity="1" stroke="none"/>
<path d="M459.52 32.7032C460.152 34.867 462.006 34.0416 463.996 33.5691C464.954 33.3418 468.376 32.1281 469.537 32.3303C473.098 32.9505 458.265 28.4067 459.52 32.7032Z" fill="#a67e6d" fill-rule="nonzero" opacity="1" stroke="none"/>
<path d="M437.647 32.6557C437.248 33.5893 437.512 32.756 438.319 32.4167C441.264 31.178 448.236 36.1116 447.72 32.5362C447.326 29.8026 438.578 30.4775 437.647 32.6557Z" fill="#a67e6d" fill-rule="nonzero" opacity="1" stroke="none"/>
<path d="M346.736 152.876L347.65 152.876L350.088 152.775L351.611 152.775L352.119 152.775L352.525 152.775L352.728 152.876L352.931 152.775L352.931 152.47L352.728 152.267L352.423 152.064L352.22 151.861L351.814 151.861L351.611 151.759L351.205 151.759L350.798 151.759L350.494 151.658L349.884 151.556L349.58 151.556L349.275 151.556L348.767 151.658L348.361 151.759L347.853 151.861L347.447 152.064L347.041 152.267L346.838 152.369L346.838 152.369" fill="#4d3e30" fill-rule="nonzero" opacity="1" stroke="none"/>
<path d="M323.736 150.398C320.997 150.546 329.266 152.401 331.879 151.568C334.491 150.735 326.474 150.25 323.736 150.398Z" fill="#503f3a" fill-rule="nonzero" opacity="1" stroke="none"/>
<path d="M307.547 160.089C308.561 154.522 302.606 151.048 300.69 156.316C299.206 160.397 301.392 154.881 303.449 155.91C304.891 156.631 307.31 161.394 307.547 160.089Z" fill="#88594b" fill-rule="nonzero" opacity="1" stroke="none"/>
<path d="M200.971 126.055C199.86 128.501 205.743 123.572 208.221 122.535C208.865 122.265 210.762 122.34 210.218 121.904C207.89 120.042 201.788 124.254 200.971 126.055Z" fill="#946a5e" fill-rule="nonzero" opacity="1" stroke="none"/>
<path d="M184.477 141.134C180.914 139.353 179.314 134.655 174.943 132.907C156.955 125.711 161.966 165.644 176.51 158.372" fill="#ffbe96" fill-rule="nonzero" opacity="1" stroke="none"/>
<path d="M354.581 276.354L358.486 278.562L325.912 381.508L323.476 383.286L320.952 382.094L354.581 276.354Z" fill="#a79082" fill-rule="nonzero" opacity="1" stroke="none"/>
<path d="M212.069 365.286L212.865 362.257L319.458 380.455L321.604 382.259L320.835 384.29L212.069 365.286Z" fill="#a79082" fill-rule="nonzero" opacity="1" stroke="none"/>
<path d="M331.617 186.871C330.476 184.659 333.033 187.264 336.032 187.926C339.38 188.665 343.291 187.635 343.499 188.154C344.329 190.23 334.032 191.551 331.617 186.871Z" fill="#774333" fill-rule="nonzero" opacity="1" stroke="none"/>
<path d="M549.208 167.714C549.888 164.011 550.94 161.101 551.557 161.214C552.174 161.327 552.123 164.421 551.443 168.124C550.762 171.827 549.71 174.737 549.093 174.624C548.476 174.51 548.527 171.417 549.208 167.714Z" fill="#866253" fill-rule="nonzero" opacity="1" stroke="none"/>
<path d="M626.188 575.803C625.683 576.056 628.629 560.767 630.352 541.048C631.461 528.367 631.164 463.074 629.972 450.359C621.867 363.897 603.491 332.137 707.579 307.646C720.329 304.646 734.996 298.89 748.477 301.587C786.812 309.254 771.312 449.42 766.654 474.266C764.902 483.61 757.411 516.148 746.205 518.95C740.449 520.389 754.581 468.616 754.954 466.63C758.527 447.572 768.066 370.49 745.448 366.72C732.134 364.501 720.629 370.687 708.337 373.145C636.247 387.563 654.498 455.436 650.02 513.649C648.328 535.645 642.446 558.59 642.446 580.297" fill="#795c4b" fill-rule="nonzero" opacity="1" stroke="none"/>
<path d="M262.717 335.303C261.862 342.2 264.473 343.877 266.312 347.94C268.291 352.311 270.919 356.359 273.324 360.512C284.737 380.226 274.389 341.712 279.851 342.258C295.432 343.816 301.714 359.271 314.183 366.073C314.805 366.412 316.152 367.289 316.722 366.435C322.552 357.69 301.131 339.108 301.853 337.665C302.538 336.293 305.096 337.427 305.842 337.906C308.433 339.572 315.775 352.728 315.996 352.654C324.317 349.881 315.059 332.987 310.436 330.291C299.127 323.694 284.19 322.51 271.743 324.424C267.672 325.051 263.572 328.406 262.717 335.303Z" fill="#ffbe96" fill-rule="nonzero" opacity="1" stroke="none"/>
<path d="M174.594 381.851C174.594 379.888 184.245 378.297 196.151 378.297C208.057 378.297 217.708 379.888 217.708 381.851C217.708 383.814 208.057 385.406 196.151 385.406C184.245 385.406 174.594 383.814 174.594 381.851Z" fill="#e3c3a4" fill-rule="nonzero" opacity="1" stroke="none"/>
<path d="M454.007 212.386C454.007 211.479 457.747 210.744 462.36 210.744C466.974 210.744 470.714 211.479 470.714 212.386C470.714 213.292 466.974 214.028 462.36 214.028C457.747 214.028 454.007 213.292 454.007 212.386Z" fill="#a8b6d4" fill-rule="nonzero" opacity="1" stroke="none"/>
<path d="M451.884 216.652C442.594 217.55 454.674 225.402 452.583 225.383C443.882 225.3 442.029 211.777 451.369 214.258" fill="#8692ab" fill-rule="nonzero" opacity="1" stroke="none"/>
<path d="M487.673 220.17C485.924 217.687 470.21 220.563 462.225 229.586C460.333 231.724 470.882 229.728 473.526 230.311" fill="#f8c5a6" fill-rule="nonzero" opacity="1" stroke="none"/>
<path d="M487.67 220.152C486.914 220.53 494.37 217.56 477.021 223.54C474.344 224.463 473.683 230.207 473.235 230.399C469.15 232.15 463.693 231.166 458.7 231.145C457.212 231.139 448.583 230.706 449.646 232.16C452.506 236.072 462.624 236.315 465.752 236.315C472.821 236.315 489.622 239.871 494.141 227.444" fill="#f8c5a6" fill-rule="nonzero" opacity="1" stroke="none"/>
<path d="M178.352 144.252C181.385 145.546 174.727 134.404 171.728 136.974C168.076 140.104 176.232 143.347 178.352 144.252Z" fill="#e5a47c" fill-rule="nonzero" opacity="1" stroke="none"/>
</g>
</svg>
