<svg version="1.2" xmlns="http://www.w3.org/2000/svg" viewBox="0 0 624 604" width="624" height="604"><style>.a{fill:#f8c5a6}.b{fill:#7d5f5f}.c{fill:#463635}.d{fill:#fab184}.e{fill:#8b6262}.f{fill:#523a38}.g{fill:#75574e}.h{fill:#f8a890}.i{fill:#e6c9c9}</style><path class="a" d="m132 231.4c-36.3 0-65.7 37-65.7 82.7 0 45.7 29.4 82.8 65.7 82.8 36.2 0 65.6-37.1 65.6-82.8 0-45.7-29.4-82.7-65.6-82.7z"/><path class="a" d="m493.2 226.9c-36.3 0-65.7 37.1-65.7 82.8 0 45.7 29.4 82.7 65.7 82.7 36.3 0 65.6-37 65.6-82.7 0-45.7-29.3-82.8-65.6-82.8z"/><path class="b" d="m132 420c-71.8 0-131.4 41.8-131.4 101.8v36c0 25.4 14.7 46 32.9 46h197c18.1 0 32.8-20.6 32.8-46v-36c0-60-59.6-101.8-131.3-101.8z"/><path class="c" d="m492 420c-71.7 0-131.3 41.8-131.3 101.8v36c0 25.4 14.7 46 32.8 46h197c18.2 0 32.9-20.6 32.9-46v-36c0-60-59.6-101.8-131.4-101.8z"/><path class="d" d="m132 231.4c-11.3 0-22 3.6-31.3 9.9 16.4 4.5 78-11.6 75.4 70.6-2.6 82.2-60.3 74.3-75.5 75 9.3 6.4 20 10 31.4 10 36.2 0 65.6-37.1 65.6-82.8 0-45.7-29.4-82.7-65.6-82.7z"/><path class="d" d="m493.2 226.9c-11.3 0-22 3.6-31.3 10 16.4 4.4 78-11.7 75.4 70.5-2.5 82.3-60.3 74.3-75.5 75 9.3 6.4 20 10 31.4 10 36.3 0 65.6-37 65.6-82.7 0-45.7-29.3-82.8-65.6-82.8z"/><path class="e" d="m96 423.8c-54.6 11.4-95.4 48.4-95.4 98v36c0 25.4 14.7 45.9 32.9 45.9h106c-1.7-1.3 42.8-34.8 32.6-95-10.3-60.2-63.9-78.1-76.1-84.9z"/><path class="f" d="m449 425.4c-51 13-88.3 49-88.3 96.4v36c0 25.4 14.7 46 32.8 46h99c-1-0.8 74.3-55.6 66.3-101.7-13-74.6-82.1-69.2-109.8-76.7z"/><path class="g" d="m97.7 306.3c0-6.7 2.5-12.2 5.7-12.2 3.1 0 5.7 5.5 5.7 12.2 0 6.8-2.6 12.3-5.7 12.3-3.2 0-5.7-5.5-5.7-12.3z"/><path class="g" d="m457.7 306.3c0-6.7 2.6-12.2 5.7-12.2 3.2 0 5.8 5.5 5.8 12.2 0 6.8-2.6 12.3-5.8 12.3-3.1 0-5.7-5.5-5.7-12.3z"/><path class="g" d="m152.5 306.3c0-6.7 2.6-12.2 5.7-12.2 3.2 0 5.8 5.5 5.8 12.2 0 6.8-2.6 12.3-5.8 12.3-3.1 0-5.7-5.5-5.7-12.3z"/><path class="g" d="m512.6 306.3c0-6.7 2.5-12.2 5.7-12.2 3.2 0 5.7 5.5 5.7 12.2 0 6.8-2.5 12.3-5.7 12.3-3.2 0-5.7-5.5-5.7-12.3z"/><path class="d" d="m543.3 314c0-13.1 4.5-22.9 13.7-22.9 9.1 0 14.3 9 14.3 22.1 0 13.2-11.1 30-20.2 30-9.2 0-7.8-16-7.8-29.2z"/><path class="d" d="m186.6 314c0-13.1 4.5-22.9 13.7-22.9 9.1 0 14.2 9 14.2 22.1 0 13.2-11 30-20.1 30-9.2 0-7.8-16-7.8-29.2z"/><path class="a" d="m437.5 310.6c0-13.2-4.4-23-13.6-23-9.1 0-14.3 9-14.3 22.2 0 13.1 11.1 29.9 20.2 29.9 9.2 0 7.7-16 7.7-29.1z"/><path class="a" d="m80.8 310.6c0-13.2-4.5-23-13.6-23-9.2 0-14.3 9-14.3 22.2 0 13.1 11 29.9 20.2 29.9 9.1 0 7.7-16 7.7-29.1z"/><path class="h" d="m127 337.2c-1.8-5-1.4-12.6 0.2-17.5 8-24.5 12.3 16.6 7.3 19.9 0 0-5.7 2.5-7.5-2.4z"/><path class="h" d="m488.2 337.2c-1.8-5-1.4-12.6 0.2-17.5 8-24.5 12.3 16.6 7.2 19.9 0 0-5.6 2.5-7.4-2.4z"/><path class="i" d="m199.3-0.1c-34 0-61.9 22.7-61.9 50.4v100.8c0 27.7 27.9 50.4 61.9 50.4h62l47.6 58.2c6.8 8.2 21.8 8.2 28.6 0l47.7-58.2h61.9c34 0 61.9-22.7 61.9-50.4v-100.8c0-27.7-27.9-50.4-61.9-50.4z"/></svg>