<svg version="1.2" xmlns="http://www.w3.org/2000/svg" viewBox="0 0 642 464" width="642" height="464"><style>.a{fill:#75574e}.b{fill:#a37364}</style><path class="a" d="m149.7 124.6c-16.9-1.8-32.1 10.9-34 28.2l-21.3 203.3c-3.6-1.1-7.4-2-11.4-2.6-7.8-1.2-16.2-1.3-24.8-0.2-34.6 4.4-60.4 26.7-57.7 49.7 2.7 23 32.9 38.1 67.5 33.7 34.5-4.5 57.9-26.5 57.7-49.7-0.6-45.8 21.5-203.1 21.5-203.1l177.8 19.4-16.2 179.8c-4.3-1.5-8.9-2.8-13.8-3.5-7.7-1.2-16.1-1.3-24.7-0.2-34.6 4.5-60.4 26.7-57.7 49.7 2.7 23 32.9 38.1 67.5 33.7 34.5-4.4 58-30.1 55.6-53.1-3.1-29.6 26.6-231.1 26.6-231.1 1.8-17.3-10.5-32.8-27.4-34.6z"/><path class="a" d="m507 30.6c-17 1.2-29.8 16.3-28.6 33.7l14.3 203.9c-3.8-0.5-7.7-0.7-11.7-0.6-7.9 0.2-16.1 1.6-24.5 4.1-33.2 10.4-54.8 36.8-48.1 59 6.6 22.2 39 31.8 72.2 21.4 33.3-10.3 52.5-36.1 48.2-58.9-8.5-45-14.4-214.8-14.4-214.8 0 0 99.7-5.8 117.2-14.5 10-5 14.5-68.7 5.1-63.5-21.8 12-129.7 30.2-129.7 30.2z"/><path class="b" d="m20 392.5c-11.9-7.6 22.2-33.9 39.6-26.4 7 3-6.5 8.7-17.8 17.2-11.8 8.8-17.3 12-21.8 9.2z"/><path class="b" d="m236 414.1c-11.1-8.8 25.5-31.4 42-22.2 6.7 3.7-7.3 8-19.5 15.3-12.6 7.6-18.3 10.2-22.5 6.9z"/><path class="b" d="m427.2 313c-12.6-6.5 19.2-35.6 37.2-29.6 7.2 2.4-5.8 9.1-16.3 18.6-11 9.9-16.2 13.5-20.9 11z"/></svg>