<?xml version="1.0" encoding="UTF-8" standalone="no"?>
<!DOCTYPE svg PUBLIC "-//W3C//DTD SVG 1.1//EN" "http://www.w3.org/Graphics/SVG/1.1/DTD/svg11.dtd">
<!-- Created with Vectornator (http://vectornator.io/) -->
<svg height="100%" stroke-miterlimit="10" style="fill-rule:nonzero;clip-rule:evenodd;stroke-linecap:round;stroke-linejoin:round;" version="1.1" viewBox="0 0 504.511 704.806" width="100%" xml:space="preserve" xmlns="http://www.w3.org/2000/svg" xmlns:vectornator="http://vectornator.io" xmlns:xlink="http://www.w3.org/1999/xlink">
<defs/>
<g id="Calque-1" vectornator:layerName="Calque 1">
<path d="M96.8388 656.243C96.8388 636.128 184.476 619.822 292.582 619.822C400.688 619.822 488.326 636.128 488.326 656.243C488.326 676.358 400.688 692.664 292.582 692.664C184.476 692.664 96.8388 676.358 96.8388 656.243Z" fill="#f3dbda" fill-rule="nonzero" opacity="1" stroke="none"/>
<path d="M276.069 609.179C276.069 613.601 215.417 673.152 228.782 677.703C236.273 680.254 254.126 677.772 263.996 672.032C270.531 668.232 277.293 663.458 284.621 661.163C287.267 660.334 293.388 659.002 294.681 655.964C295.516 654.003 296.18 613.461 297.7 609.179" fill="#75574e" fill-rule="nonzero" opacity="1" stroke="none"/>
<path d="M328.352 606.816C331.133 606.816 351.744 628.622 354.953 632.053C359.624 637.048 386.335 662.871 379.681 668.908C378.621 669.87 371.236 671.757 365.069 669.71C361.735 668.603 348.157 662.623 345.212 661.297C334.978 656.69 306.808 645.723 304.374 642.469C302.395 639.825 303.69 633.023 303.999 630.051C304.791 622.425 306.243 614.439 308.495 607.217" fill="#75574e" fill-rule="nonzero" opacity="1" stroke="none"/>
<path d="M163.027 283.99C190.405 272.597 206.899 254.616 231.15 245.868C239.886 242.716 264.639 263.345 258.525 271.898C254.978 276.861 172.536 299.808 168.075 302.713" fill="#ffbe96" fill-rule="nonzero" opacity="1" stroke="none"/>
<path d="M335.288 106.156C335.526 113.561 331.251 132.384 328.527 138.078C326.041 143.278 343.308 158.799 346.65 160.944C348.638 162.22 361.622 146.954 361.636 143.154C361.638 142.505 361.922 106.732 361.139 106.903L335.288 106.156Z" fill="#bb835e" fill-rule="nonzero" opacity="1" stroke="none"/>
<path d="M378.565 64.8742C380.955 55.8567 395.109 57.8952 396.803 66.0635C398.968 76.4942 381.698 89.3556 379.088 82.9037" fill="#ffbe96" fill-rule="nonzero" opacity="1" stroke="none"/>
<path d="M317.677 58.345C316.12 50.8398 306.506 49.2485 302.799 55.7271C295.123 69.1448 310.057 81.5051 321.658 84.5798" fill="#e29e78" fill-rule="nonzero" opacity="1" stroke="none"/>
<path d="M392.144 296.418C392.144 311.754 396.57 337.692 394.896 353.419C387.365 424.169 379.533 478.366 361.262 547.023C358.614 556.976 339.58 620.165 325.966 618.895C312.352 617.624 310.516 613.418 307.538 610.62C306.993 610.108 315.666 559.451 317.046 542.507C320.06 505.51 237.613 521.873 301.256 301.362" fill="#36312d" fill-rule="nonzero" opacity="1" stroke="none"/>
<path d="M428.905 260.003C436.809 271.993 435.112 325.939 428.203 360.903C427.851 362.685 428.793 403.16 424.962 392.265C421.799 383.265 412.808 389.908 412.531 377.445C411.866 347.48 405.394 309.361 401.729 280.563C400.589 271.61 402.768 250.362 416.625 257.182L428.905 260.003Z" fill="#ffbe96" fill-rule="nonzero" opacity="1" stroke="none"/>
<path d="M298.353 146.13C276.192 169.099 268.112 217.259 230.644 246.049C236.92 246.904 256.532 260.353 255.114 273.221C270.886 270.893 284.596 236.118 287.153 231.174C294.557 216.857 301.17 197.169 309.914 183.885L328.112 164.248L331.638 124.82C331.638 124.82 308.18 135.944 298.353 146.13Z" fill="#b5aba3" fill-rule="nonzero" opacity="1" stroke="none"/>
<path d="M270.745 522.464C274.49 536.537 262.687 601.151 272.474 613.411C274.125 615.479 297.004 625.632 297.874 622.924C306.381 596.463 310.84 560.163 318.235 534.691C321.007 525.143 321.277 512.784 325.961 503.984L270.745 522.464Z" fill="#36312d" fill-rule="nonzero" opacity="1" stroke="none"/>
<path d="M384.198 210.49C393.957 232.496 392.406 234.066 402.579 288.489C411.05 275.537 429.029 279.344 433.727 286.849C437.006 285.815 429.929 202.657 410.427 150.589C408.417 145.223 384.204 131.297 381.269 129.552C369.137 122.337 362.614 178.458 362.614 178.458L384.198 210.49Z" fill="#b5aba3" fill-rule="nonzero" opacity="1" stroke="none"/>
<path d="M298.433 227.855C300.055 188.957 301.916 171.973 326.431 127.686C327.465 125.817 333.182 123.689 334.698 126.596C336.248 129.567 340.858 162.724 348.661 161.733C355.094 160.915 367.006 123.55 367.031 123.552C373.097 124.027 378.158 127.629 379.592 128.705C377.952 138.595 380.004 197.129 393.265 218.317C398.522 226.716 392.372 306.17 386.765 309.874C369.676 321.164 321.228 318.647 305.388 307.829C296.732 301.917 298.125 235.256 298.433 227.855Z" fill="#7d5f5f" fill-rule="nonzero" opacity="1" stroke="none"/>
<path d="M300.024 289.965C305.353 294.264 345.207 310.244 392.084 290.713C394.47 317.753 373.667 319.339 371.899 320.684C368.226 323.479 375.963 524.457 371.861 530.698C368.457 535.879 332.909 542.164 299.153 541.582C278.049 541.219 261.511 526.896 257.958 524.193C255.86 522.597 279.173 443.362 281.974 428.445C287.52 398.907 303.171 346.627 305.983 312.933C291.99 294.809 300.024 289.965 300.024 289.965Z" fill="#b5aba3" fill-rule="nonzero" opacity="1" stroke="none"/>
<path d="M346.858 163.065C342.62 163.116 355.3 147.607 356.536 144.55C357.939 141.078 361.643 124.193 361.6 116.461C362.153 112.447 366.446 116.505 368.24 120.423C370.502 125.361 362.796 162.874 346.858 163.065Z" fill="#b5aba3" fill-rule="nonzero" opacity="1" stroke="none"/>
<path d="M346.83 163.028C348.506 163.267 343.181 150.665 338.747 139.273C335.238 130.26 335.566 120.872 333.945 117.061C332.486 113.629 328.669 119.276 329.074 127.919C329.712 141.544 338.133 161.788 346.83 163.028Z" fill="#b5aba3" fill-rule="nonzero" opacity="1" stroke="none"/>
<path d="M330.364 16.3774C324.808 20.0347 320.401 24.6199 318.208 29.8774C314.814 38.0156 313.246 47.6159 313.239 57.4399C313.729 86.2504 327.216 116.364 348.427 115.065C342.63 106.475 337.017 96.7387 335.395 93.2212C328.673 78.6367 330.929 29.9214 345.677 17.1899L330.364 16.3774Z" fill="#e29e78" fill-rule="nonzero" opacity="1" stroke="none"/>
<path d="M317.651 29.3006C326.261 6.96127 372.324-3.67111 383.527 27.4076C390.045 45.4892 385.831 109.423 350.536 115.006C320.54 119.751 305.001 62.123 317.651 29.3006Z" fill="#ffbe96" fill-rule="nonzero" opacity="1" stroke="none"/>
<path d="M333.51 23.1331C338.969 21.3288 345.922 31.6828 350.351 32.2384C358.918 33.3132 362.033 21.8629 372.293 29.5651C379.259 34.795 378.557 49.2799 383.099 61.8102C387.641 74.3405 389.906 40.7435 389.521 34.4002C387.787 5.80338 343.561-7.84557 322.14 14.3206C315.364 21.3327 307.208 33.6345 307.96 43.9815C308.055 45.2797 311.81 59.8377 312.804 57.1932C314.359 53.0582 319.718 39.5151 322.222 34.2863C324.175 30.2071 328.215 24.8831 333.51 23.1331Z" fill="#674940" fill-rule="nonzero" opacity="1" stroke="none"/>
<path d="M363.487 64.6845C363.655 60.9859 365.133 58.0483 366.789 58.1232C368.445 58.1981 369.652 61.257 369.484 64.9556C369.317 68.6542 367.839 71.5918 366.183 71.517C364.527 71.4421 363.32 68.3831 363.487 64.6845Z" fill="#42362a" fill-rule="nonzero" opacity="1" stroke="none"/>
<path d="M327.364 62.0933C327.291 58.3916 328.576 55.3646 330.234 55.3323C331.891 55.2999 333.293 58.2745 333.366 61.9762C333.438 65.6778 332.153 68.7048 330.496 68.7372C328.838 68.7695 327.436 65.795 327.364 62.0933Z" fill="#42362a" fill-rule="nonzero" opacity="1" stroke="none"/>
<path d="M348.949 61.3562C348.566 61.0638 347.856 60.7485 347.525 61.1001C347.287 61.3536 346.737 66.672 346.654 67.481C346.103 72.911 343.019 80.3091 347.6 84.5313C351.685 88.2966 352.711 81.85 352.622 79.0179C352.56 77.0508 351.639 75.2079 351.416 73.3184C351.047 70.1973 351.528 66.44 350.856 63.446C350.65 62.5258 349.699 61.9279 348.949 61.3562Z" fill="#635549" fill-rule="nonzero" opacity="1" stroke="none"/>
<path d="M348.949 61.3562C348.566 61.0638 347.856 60.7485 347.525 61.1001C347.287 61.3536 346.737 66.672 346.654 67.481C346.103 72.911 343.019 80.3091 347.6 84.5313C351.685 88.2966 352.711 81.85 352.622 79.0179C352.56 77.0508 351.639 75.2079 351.416 73.3184C351.047 70.1973 351.528 66.44 350.856 63.446C350.65 62.5258 349.699 61.9279 348.949 61.3562Z" fill="#db7e57" fill-rule="nonzero" opacity="1" stroke="none"/>
<path d="M361.844 49.1628C361.539 49.3112 361.129 49.8166 361.364 50.0615C361.699 50.4095 362.332 50.0913 362.809 50.1661C364.126 50.3725 365.382 50.9954 366.67 51.2755C367.699 51.4995 371.9 54.129 372.49 53.9788C373.2 53.7979 371.744 52.673 371.165 52.2234C370.726 51.8823 370.219 51.6344 369.78 51.2933C367.284 49.355 364.787 47.7327 361.844 49.1628Z" fill="#85726b" fill-rule="nonzero" opacity="1" stroke="none"/>
<path d="M326.297 48.7662C326.124 48.9029 325.532 49.1653 325.751 49.1416C328.991 48.7918 332.177 47.0658 335.453 46.9401C335.852 46.9248 337.921 47.3071 338.181 46.5153C338.517 45.4913 334.346 45.2395 333.922 45.1697C331.368 44.7498 328.285 47.1996 326.297 48.7662Z" fill="#85726b" fill-rule="nonzero" opacity="1" stroke="none"/>
<path d="M349.248 98.7196C354.064 98.5569 362.895 94.7985 362.837 95.5971C362.744 96.8893 355.291 102.05 350.011 101.892C345.186 101.748 336.132 98.496 335.758 96.0499C335.674 95.5035 344.432 98.8824 349.248 98.7196Z" fill="#694c40" fill-rule="nonzero" opacity="1" stroke="none"/>
<path d="M384.018 68.1529C386.504 58.2991 393.781 68.4826 392.842 69.0435C392.231 69.4084 390.918 67.8366 390.403 67.5384C387.173 65.6656 385.179 70.8467 383.835 72.4082" fill="#ddb086" fill-rule="nonzero" opacity="1" stroke="none"/>
<path d="M317.988 316.257C311.077 324.338 262.957 507.606 267.383 516.622C271.809 525.638 290.326 532.205 306.237 534.208C320.717 536.032 354.347 533.807 362.199 522.592C363.349 520.949 366.126 327.991 363.375 319.535C363.1 318.69 317.988 316.257 317.988 316.257Z" fill="#e1d1c4" fill-rule="nonzero" opacity="1" stroke="none"/>
<path d="M368.479 76.199C368.809 78.7078 362.974 74.711 362.841 72.681C362.767 71.5395 364.361 71.8782 364.892 72.3046C366.155 73.3197 368.264 74.5637 368.479 76.199Z" fill="#f8b097" fill-rule="nonzero" opacity="1" stroke="none"/>
<path d="M329.045 74.6602C328.671 74.6635 327.989 74.7946 327.948 74.4226C327.936 74.3147 333.362 70.2033 334.118 70.1793C336.027 70.1187 334.555 72.8653 333.753 73.3821C332.225 74.3655 330.922 74.6432 329.045 74.6602Z" fill="#f8b097" fill-rule="nonzero" opacity="1" stroke="none"/>
<path d="M313.287 61.0317C307.607 54.6631 300.132 64.6972 303.068 66.2992C303.968 66.7904 305.733 62.9497 306.456 62.6671C308.267 61.9593 309.655 63.4155 311.448 63.3803L313.287 61.0317Z" fill="#d08c82" fill-rule="nonzero" opacity="1" stroke="none"/>
<path d="M87.8027 196.539C88.2638 197.923 87.8974 196.973 89.2507 199.228" fill="#f8c5a6" fill-rule="nonzero" opacity="1" stroke="none"/>
<path d="M168.114 281.862C164.131 278.216 158.002 279.253 153.063 277.484C148.813 275.962 128.694 266.346 124.692 272.407C122.109 276.318 145.46 282.935 134.475 287.952C126.805 291.454 115.519 284.887 107.645 283.927C105.775 283.7 99.1351 281.367 98.0288 284.116C95.3073 290.879 114.134 293.242 116.77 295.192C117.146 295.47 85.7515 277.288 91.9123 294.989C95.6389 305.695 109.639 311.464 114.035 311.895C127.856 313.253 153.636 315.725 165.366 306.935C169.707 303.683 170.398 302.505 170.365 296.543" fill="#ffbe96" fill-rule="nonzero" opacity="1" stroke="none"/>
<path d="M417.651 362.047C399.155 368.548 397.631 378.515 394.185 390.872C393.637 392.837 395.548 413.958 399.207 410.853C406.901 404.325 401.641 401.444 408.073 390.275C408.615 404.039 402.684 414.791 399.483 426.575C396.51 437.523 406.239 429.908 409.059 429.908C432.048 429.908 434.301 376.803 428.258 366.802" fill="#ffbe96" fill-rule="nonzero" opacity="1" stroke="none"/>
<path d="M6.8767 145.343C6.8767 87.2111 54.4533 40.0855 113.142 40.0855C171.831 40.0855 219.407 87.2111 219.407 145.343C219.407 203.476 171.831 250.601 113.142 250.601C54.4533 250.601 6.8767 203.476 6.8767 145.343Z" fill="#5b7fca" fill-rule="nonzero" opacity="1" stroke="none"/>
<path d="M115.802 40.2212C112.859 44.2345 111.979 50.1372 107.583 54.5337C103.218 58.8985 96.2199 56.829 94.3328 64.3774C93.8446 66.3306 104.617 72.8006 102.458 83.5962C101.798 86.8975 100.857 107.021 110.145 102.377C114.639 100.131 117.031 89.6426 121.677 86.1587C127.763 81.5939 135.676 83.1922 137.927 74.1899C138.501 71.8942 134.308 70.821 135.77 68.6274C140.293 61.8429 144.739 61.0105 144.739 51.1274C144.739 47.3605 142.862 45.5924 141.208 43.9087C133.077 41.705 124.585 40.4365 115.802 40.2212Z" fill="#4ccb9f" fill-rule="nonzero" opacity="1" stroke="none"/>
<path d="M95.9266 41.5962C78.9557 44.3424 63.3728 51.0423 50.1141 60.7524C54.5135 74.1042 81.1979 76.7003 84.9578 70.4712C86.8432 67.3478 77.1971 62.3401 78.5516 60.0962C80.4172 57.0054 88.6985 47.1914 95.9266 41.5962Z" fill="#4ccb9f" fill-rule="nonzero" opacity="1" stroke="none"/>
<path d="M37.7855 71.3515C31.62 77.0978 26.5104 84.0612 22.0099 91.2195C22.2222 92.4732 22.0323 93.3008 21.7113 94.5885C20.1001 101.053 15.5362 114.325 24.065 118.603C27.9648 120.559 22.1645 102.765 25.615 103.63C37.5391 106.62 29.3855 121.013 33.0781 128.422C36.3352 134.957 47.8698 132.018 53.0847 135.505C57.0733 138.173 46.0794 145.85 46.0235 146.13C45.0602 150.962 45.0285 161.286 49.1523 165.423C50.5145 166.789 53.7166 166.69 54.6634 168.59C57.3122 173.904 54.0034 179.819 52.6828 185.118C49.6061 197.464 55.7549 209.177 61.3227 218.951C62.4263 220.889 64.3134 229.614 66.9774 231.563C67.2026 231.657 67.4402 231.731 67.6663 231.823C67.9036 231.883 68.1353 232 68.3839 231.938C70.4613 231.417 69.6076 225.857 69.9626 224.077C70.9912 218.917 76.4543 215.766 77.4256 211.868C78.8702 206.072 76.9211 197.278 78.9756 189.034C81.2024 180.099 98.0377 167.716 99.786 160.7C103.108 147.371 87.7648 153.535 82.1331 149.298C80.2147 147.854 81.0388 143.968 78.9756 142.589C77.3957 141.532 72.5377 147.661 73.895 142.214C74.0599 141.553 74.8353 140.482 73.895 139.853C71.541 138.279 64.6857 146.113 60.7486 145.756C55.0724 145.241 65.7254 135.278 68.3839 133.144C69.0873 132.58 76.4452 135.766 78.9756 135.131C82.1596 134.332 81.6258 129.574 82.9081 127.644C86.7646 121.841 105.551 131.335 102.542 116.242C100.135 104.169 75.5139 124.575 71.9145 120.964C66.7919 115.826 66.8865 102.958 68.3839 96.9497C69.0494 94.2793 74.2402 94.0731 73.0913 89.4631C72.0369 85.2318 57.4655 91.7729 53.8597 89.06C50.335 86.4082 44.1838 77.1531 37.7855 71.3515Z" fill="#4ccb9f" fill-rule="nonzero" opacity="1" stroke="none"/>
<path d="M181.364 73.8774C180.471 73.9098 179.735 74.0486 179.239 74.3462C161.033 85.2699 162.314 81.5007 158.489 100.627C157.715 104.498 152.229 106.618 151.583 109.846C150.794 113.793 164.994 111.185 167.239 108.94C171.014 105.165 172.415 91.9991 178.77 90.9399C186.104 89.7177 177.856 101.537 179.708 104.315C182.604 108.659 191.353 102.506 193.552 108.002C195.292 112.354 185.876 111.053 184.77 112.159C179.782 117.147 182.05 125.473 176.927 130.596C173.085 134.438 160.796 126.741 155.27 127.846C152.127 128.475 145.583 137.209 145.583 140.284C145.583 142.715 152.67 142.266 151.583 144.44C149.535 148.536 139.478 139.822 140.958 147.221C143.553 160.195 170.701 141.433 176.02 146.752C178.373 149.105 175.022 159.17 176.489 159.659C183.842 162.11 182.19 147.177 192.614 151.346C202.711 155.385 191.235 164.374 197.239 168.877C204.551 174.361 211.143 173.363 216.552 169.19C218.348 161.519 219.395 153.558 219.395 145.346C219.395 118.449 209.123 93.9842 192.364 75.3774C188.797 74.7632 184.323 73.7701 181.364 73.8774Z" fill="#4ccb9f" fill-rule="nonzero" opacity="1" stroke="none"/>
<path d="M177.399 169.811C173.022 167.623 169.461 158.169 165.407 157.358C155.796 155.436 142.051 177.106 143.729 185.493C144.664 190.167 153.617 193.625 154.798 200.713C155.801 206.733 154.95 226.656 158.488 229.31C174.298 241.168 184.469 203.329 190.774 197.024C195.016 192.782 209.435 189.354 206.456 180.419C205.294 176.932 186.035 183.521 181.088 178.574" fill="#4ccb9f" fill-rule="nonzero" opacity="1" stroke="none"/>
<path d="M75.7391 46.9087C35.5312 61.9114 6.8641 100.272 6.8641 145.346C6.86408 203.478 54.4567 250.596 113.145 250.596C147.504 250.596 177.97 234.371 197.395 209.315C150.001 220.356 69.9882 241.229 47.0346 177.661C20.9834 105.515 52.5941 83.5224 75.7391 46.9087Z" fill="#314f8d" fill-opacity="0.238455" fill-rule="nonzero" opacity="1" stroke="none"/>
<path d="M136.338 288.595C137.282 286.724 137.453 292.81 143.226 294.349C148.998 295.888 148.732 307.341 141.925 303.345C135.119 299.35 133.616 293.996 136.338 288.595Z" fill="#f9aa79" fill-rule="nonzero" opacity="1" stroke="none"/>
</g>
</svg>
