<?xml version="1.0" encoding="UTF-8" standalone="no"?>
<!DOCTYPE svg PUBLIC "-//W3C//DTD SVG 1.1//EN" "http://www.w3.org/Graphics/SVG/1.1/DTD/svg11.dtd">
<!-- Created with Vectornator (http://vectornator.io/) -->
<svg height="100%" stroke-miterlimit="10" style="fill-rule:nonzero;clip-rule:evenodd;stroke-linecap:round;stroke-linejoin:round;" version="1.1" viewBox="0 0 2166.52 2900" width="100%" xml:space="preserve" xmlns="http://www.w3.org/2000/svg" xmlns:vectornator="http://vectornator.io" xmlns:xlink="http://www.w3.org/1999/xlink">
<defs/>
<clipPath id="ArtboardFrame">
<rect height="2900" width="2166.52" x="0" y="0"/>
</clipPath>
<g clip-path="url(#ArtboardFrame)" id="Calque-2" vectornator:layerName="Calque 2">
<path d="M747.893 1601.9L1288.79 1643.51L1312.08 1749.33L904.161 2018.92L591.013 1937.8L273.123 1855.46L268.717 1754.42L747.893 1601.9Z" fill="#66473e" fill-rule="nonzero" opacity="1" stroke="none"/>
<path d="M979.326 2581.64C979.326 2516.93 1113.78 2464.46 1279.63 2464.46C1445.48 2464.46 1579.93 2516.93 1579.93 2581.64C1579.93 2646.36 1445.48 2698.82 1279.63 2698.82C1113.78 2698.82 979.326 2646.36 979.326 2581.64Z" fill="#453f3b" fill-rule="nonzero" opacity="1" stroke="none"/>
<path d="M967.045 2327.57C993.704 2333.99 1139.27 2364.79 1184.28 2378.36C1259.97 2401.18 1213.2 2434.7 1150.26 2442.9C1123.18 2446.43 884.687 2468.53 868.724 2456.05C849.175 2440.77 857.183 2365.57 875.784 2331.15" fill="#503b2f" fill-rule="nonzero" opacity="1" stroke="none"/>
<path d="M949.167 2537.86C954.004 2545.14 1128.42 2693.51 1148.37 2726.96C1194.8 2804.82 1071.19 2775.45 1003.84 2762.33C936.501 2749.21 779.447 2685.45 774.702 2663.2C768.892 2635.96 757.389 2508.04 795.169 2496.76" fill="#503b2f" fill-rule="nonzero" opacity="1" stroke="none"/>
<path d="M1208.27 1568.53L1319.96 1568.53L1319.96 2659.04L1208.27 2659.04L1208.27 1568.53Z" fill="#453f3b" fill-rule="nonzero" opacity="1" stroke="none"/>
<path d="M273.866 1851.95C273.866 1834.88 235.154 2661.97 278.507 2677.68C321.861 2693.39 342.048 1933.36 342.048 1864.99" fill="#795c4b" fill-rule="nonzero" opacity="1" stroke="none"/>
<path d="M741.771 1489.66L1305.96 1637.09L898.039 1906.68L268.765 1754.52L741.771 1489.66Z" fill="#75574e" fill-rule="nonzero" opacity="1" stroke="none"/>
<path d="M366.837 1384.22C377.014 1406.73 352.191 1568.81 404.55 1661.83C473.754 1784.78 605.595 1758.6 729.323 1802.39C739.56 1806.01 936.903 1871.51 945.304 1917.97C959.481 1996.36 805.413 2251.52 785.588 2550.39C776.844 2682.21 936.552 2588.97 940.913 2528.63C951.076 2388.01 1242.35 1733.87 1133.26 1680.24C1071.35 1649.81 1132.36 1419.68 1069.79 1392" fill="#463635" fill-rule="nonzero" opacity="1" stroke="none"/>
<path d="M2089.21 1375.13L1778.17 1748.36L1690.87 1718.29L2086.94 1289.06L2089.21 1375.13Z" fill="#d7ac91" fill-rule="nonzero" opacity="1" stroke="none" vectornator:layerName="(rectangle)"/>
<path d="M843.451 1999.47C843.451 1982.41 805.857 2770.61 849.21 2786.32C892.564 2802.02 910.08 2083.23 910.08 2014.88" fill="#795c4b" fill-rule="nonzero" opacity="1" stroke="none"/>
<path d="M271.037 1756.83C251.751 1673.82 39.8489 1120.14 94.3053 1017.6C134.345 942.203 422.473 763.383 460.28 898.986C467.879 926.24 487.079 980.595 482.327 1011.27C477.706 1041.11 389.876 1037.73 376.503 1041.32C323.597 1055.55 221.397 1098.35 194.25 1156.77C158.197 1234.36 308.706 1646.48 343.426 1721.2" fill="#795c4b" fill-rule="nonzero" opacity="1" stroke="none"/>
<path d="M450.851 561.416C509.517 521.062 598.091 465.688 672.366 492.927C722.761 511.409 738.55 578.007 756.772 625.01C785.9 700.147 784.185 863.188 743.555 936.55C738.792 945.151 739.724 1019.12 740.426 1058.5C741.321 1108.7 833.946 1255.3 833.946 1255.3C833.946 1255.3 608.011 1595.11 372.926 1500.12C330.731 1440.11 325.832 1290.78 312.379 1222.84C288.991 1104.72 341.187 673.202 439.08 592.641L450.851 561.416Z" fill="#d79268" fill-rule="nonzero" opacity="1" stroke="none"/>
<path d="M464.68 1576.52L1773.8 1621.96L1777.48 1749.35L472.999 1660.66L464.68 1576.52Z" fill="#b8927b" fill-rule="nonzero" opacity="1" stroke="none" vectornator:layerName="(rectangle)"/>
<path d="M463.618 1578.58C463.618 1578.58 1078.09 1244.18 1079.87 1247.56L2090.75 1288.57C2092.52 1291.94 1771.71 1676.31 1771.71 1676.31C1769.84 1678.03 461.738 1580.29 463.618 1578.58Z" fill="#f8c5a6" fill-rule="nonzero" opacity="1" stroke="none"/>
<path d="M857.423 1568.96C857.423 1544.89 917.708 1525.38 992.074 1525.38C1066.44 1525.38 1126.73 1544.89 1126.73 1568.96C1126.73 1593.04 1066.44 1612.55 992.074 1612.55C917.708 1612.55 857.423 1593.04 857.423 1568.96Z" fill="#7fc2b3" fill-rule="nonzero" opacity="1" stroke="none"/>
<path d="M878.393 1467.81C878.393 1431.78 889.733 1419.59 985.82 1414.82C1042.45 1412.01 1089.93 1425.14 1089.93 1461.17C1089.93 1497.2 1070.63 1577.91 987.445 1576.79C904.261 1575.66 878.393 1503.84 878.393 1467.81Z" fill="#14b892" fill-rule="nonzero" opacity="1" stroke="none"/>
<path d="M919.81 1452.63C908.39 1464.6 917.582 1483.08 929.318 1518.79C941.053 1554.51 974.635 1571.61 982.465 1575.81C982.465 1579.86 954.234 1574.08 953.112 1573.59C919.519 1559.06 898.383 1541.9 884.552 1504.58C880.984 1494.96 874.312 1444.42 886.523 1438.09C897.344 1432.47 928.319 1443.7 919.81 1452.63Z" fill="#048f6f" fill-rule="nonzero" opacity="1" stroke="none"/>
<path d="M884.443 1480.29C856.965 1482.55 861.079 1519.47 861.079 1519.47C861.079 1519.47 933.38 1542.54 923.499 1548.73C909.042 1557.77 883.39 1556 868.812 1549C790.036 1511.17 849.372 1437.01 881.419 1465.38" fill="#199b7c" fill-rule="nonzero" opacity="1" stroke="none"/>
<path d="M762.679 484.65C728.55 502.015 702.665 567.087 702.081 607.382C701.992 613.501 683.047 623.528 659.84 620.197C624.892 615.181 606.104 523.102 606.997 518.868C613.371 488.632 632.976 472.4 650.426 450.219C658.226 440.305 666.515 429.592 672.509 418.246C674.54 414.402 683.17 403.246 683.065 404.393" fill="#e5ac88" fill-rule="nonzero" opacity="1" stroke="none"/>
<path d="M652.858 261.506C657.476 245.42 633.771 255.009 632.909 236.542C631.644 209.44 652.511 154.298 665.73 138.079C718.924 72.8145 797.369 76.2183 849.01 91.3607C967.29 126.043 988.478 237.144 954.76 354.6C921.042 472.056 924.091 559.02 789.759 553.033C708.592 549.416 619.14 378.962 652.858 261.506Z" fill="#ffbe96" fill-rule="nonzero" opacity="1" stroke="none"/>
<path d="M720.735 541.936C742.094 573.276 749.176 602.885 759.61 641.057C780.589 717.808 811.069 959.757 867.122 1020.07C867.964 1020.98 1054.78 999.949 1120.24 1087.41C1231.19 1235.66 1057.51 1171.84 999.513 1177.04C955.717 1180.97 821.837 1197.14 783.221 1155.59C715.5 1082.72 717.83 894.891 723.176 814.358C729.836 714.024 720.406 638.908 720.406 543.962" fill="#ba7a52" fill-rule="nonzero" opacity="1" stroke="none"/>
<path d="M489.461 787.799C452.639 871.764 389.777 1167.38 400.294 1231.26C406.257 1267.48 647.939 1164.64 732.673 1188.03C817.407 1211.43 764.452 1285.83 735.77 1342.54C707.087 1399.25 306.255 1449.52 255.953 1370.9C181.39 1254.38 264.206 825.463 290.447 771.247C316.687 717.03 404.793 561.228 487.887 545.098C542.963 534.407 489.461 787.799 489.461 787.799Z" fill="#ba7a52" fill-rule="nonzero" opacity="1" stroke="none"/>
<path d="M700.37 280.19C684.087 271.943 676.773 250.19 656.795 242.094C574.573 208.776 597.479 393.685 663.958 360.012" fill="#ffbe96" fill-rule="nonzero" opacity="1" stroke="none"/>
<path d="M1088.58 1234.48L1392.84 1223.89L1230.74 1446.91L780.346 1400.12L1088.58 1234.48Z" fill="#463635" fill-rule="nonzero" opacity="1" stroke="none"/>
<path d="M790.607 1408.09L792.421 1392.79L1243.1 1434.57L1241.2 1448.13L1232.56 1452.85L790.607 1408.09Z" fill="#624f4e" fill-rule="nonzero" opacity="1" stroke="none"/>
<path d="M1387.4 925.44L1645.93 844.849L1511.11 1267.3L1235.91 1451.26L1387.4 925.44Z" fill="#463635" fill-rule="nonzero" opacity="1" stroke="none"/>
<path d="M1383.58 921.853L1402.23 932.797L1246.63 1443.13L1235 1451.95L1222.94 1446.04L1383.58 921.853Z" fill="#755957" fill-rule="nonzero" opacity="1" stroke="none"/>
<path d="M886.993 1440.68C886.993 1428.79 930.794 1412.85 986.925 1412.85C1043.05 1412.85 1084.88 1431.45 1084.88 1443.34C1084.88 1455.22 1044.76 1462.2 988.626 1462.2C932.496 1462.2 886.993 1452.57 886.993 1440.68Z" fill="#ffe2c6" fill-rule="nonzero" opacity="1" stroke="none"/>
<path d="M1636.58 840.711L1646.2 844.962L1402.41 934.076L1383.16 924.755L1636.58 840.711Z" fill="#755957" fill-rule="nonzero" opacity="1" stroke="none"/>
<path d="M969.01 1110.96C970.21 1131.58 981.3 1164.61 990.087 1184.75C999.54 1206.42 1010.93 1229.4 1025.69 1247.78C1095.04 1334.16 1028.67 1153.88 1054.76 1156.59C1129.18 1164.31 1159.19 1240.93 1218.76 1274.64C1221.72 1276.32 1228.16 1280.67 1230.88 1276.44C1258.73 1233.09 1156.41 1140.97 1159.86 1133.81C1163.13 1127.02 1175.35 1132.64 1178.91 1135.01C1191.29 1143.27 1226.36 1208.49 1227.42 1208.12C1267.17 1194.37 1222.94 1110.63 1200.85 1097.26C1146.83 1064.56 1077.56 1052.53 1018.1 1062.02C998.653 1065.13 967.811 1090.34 969.01 1110.96Z" fill="#ffbe96" fill-rule="nonzero" opacity="1" stroke="none"/>
<path d="M803.14 321.377C806.216 305.194 814.687 293.298 822.062 294.808C829.436 296.317 832.921 310.66 829.845 326.843C826.769 343.026 818.298 354.922 810.923 353.412C803.549 351.903 800.064 337.56 803.14 321.377Z" fill="#5a3c3c" fill-rule="nonzero" opacity="1" stroke="none"/>
<path d="M921.022 335.862C924.863 320.917 932.566 310.073 938.226 311.64C943.885 313.207 945.359 326.592 941.518 341.536C937.676 356.48 929.974 367.325 924.314 365.758C918.654 364.191 917.18 350.806 921.022 335.862Z" fill="#5a3c3c" fill-rule="nonzero" opacity="1" stroke="none"/>
<path d="M790.861 251.402C785.592 265.422 813.828 261.144 825.803 262.986C923.13 277.949 806.862 208.827 790.861 251.402Z" fill="#846259" fill-rule="nonzero" opacity="1" stroke="none"/>
<path d="M932.085 280.11C957.099 279.722 980.07 233.289 946.159 243.847C934.24 247.558 914.688 280.38 932.085 280.11Z" fill="#846259" fill-rule="nonzero" opacity="1" stroke="none"/>
<path d="M888.883 336.715C888.642 354.641 895.376 386.754 888.736 414.314C877.435 461.227 857.002 415.993 866.381 386.791C866.381 386.791 889.125 318.789 888.883 336.715Z" fill="#e2886e" fill-rule="nonzero" opacity="1" stroke="none"/>
<path d="M622.504 249.79C620.528 135.774 691.411 97.1201 717.075 83.4328C814.793 31.3162 967.944 89.0896 968.177 218.642C968.211 237.458 945.081 173.136 934.042 173.136C930.608 173.136 927.417 192.359 924.982 196.011C918.434 205.834 897.201 205.661 886.85 204.183C867.897 201.475 846.685 173.205 828.745 164.235C773.158 136.442 696.193 192.715 696.193 252.301" fill="#94746f" fill-rule="nonzero" opacity="1" stroke="none"/>
<path d="M837.066 491.142C823.464 488.768 800.829 472.072 804.338 470.251C809.185 467.736 821.011 475.895 833.641 478.623C846.296 481.355 859.753 478.66 861.738 479.423C861.738 479.423 850.668 493.517 837.066 491.142Z" fill="#794b3e" fill-rule="nonzero" opacity="1" stroke="none"/>
<path d="M587.922 292.836C587.922 238.205 619.31 193.918 658.03 193.918C696.75 193.918 728.138 238.205 728.138 292.836C728.138 347.467 696.75 391.754 658.03 391.754C619.31 391.754 587.922 347.467 587.922 292.836Z" fill="#463635" fill-rule="nonzero" opacity="1" stroke="none"/>
<path d="M694.19 236.467C694.19 203.803 714.942 163.442 739.509 147.828C897.6 47.3541 946.36 177.584 954.242 177.584C965.645 177.584 947.23 121.983 943.448 115.82C903.305 50.3911 771.427 60.0286 720.626 104.74C692.47 129.521 678.843 151.492 665.235 184.761C660.61 196.07 651.388 221.749 651.388 221.694" fill="#463635" fill-rule="nonzero" opacity="1" stroke="none"/>
<path d="M1171.16 1532.53C1171.16 1490.59 1247.51 1456.6 1341.69 1456.6C1435.86 1456.6 1512.21 1490.59 1512.21 1532.53C1512.21 1574.46 1435.86 1608.45 1341.69 1608.45C1247.51 1608.45 1171.16 1574.46 1171.16 1532.53Z" fill="#b4d4d7" fill-rule="nonzero" opacity="1" stroke="none"/>
<path d="M1182.63 1519.23C1182.63 1485.66 1254.07 1458.45 1342.2 1458.45C1430.34 1458.45 1501.78 1485.66 1501.78 1519.23C1501.78 1552.8 1430.34 1580.01 1342.2 1580.01C1254.07 1580.01 1182.63 1552.8 1182.63 1519.23Z" fill="#ffeee3" fill-rule="nonzero" opacity="1" stroke="none"/>
<path d="M1292.76 1537.8C1275.32 1518.78 1290.45 1457.72 1264.85 1429.15C1234.43 1376.54 1296.3 1304.57 1355.58 1316.88C1366.34 1319.11 1385.49 1335.68 1387.86 1346.76C1388.35 1349.03 1395.88 1361.34 1397.01 1361.34C1406.53 1361.34 1407.33 1356.59 1421.01 1359.43C1479.98 1371.67 1460.69 1451.77 1420.35 1464.6C1404.52 1491.62 1409.48 1510.92 1405.4 1525.9C1395.81 1561.21 1310.21 1556.81 1292.76 1537.8Z" fill="#c79579" fill-rule="nonzero" opacity="1" stroke="none"/>
<path d="M717.867 1200.21C751.383 1160.86 798.552 1170.76 860.371 1183.09C876.328 1186.27 970.202 1258.14 968.603 1285.06C966.771 1315.92 905.859 1253.95 897.304 1263.74C893.091 1268.56 902.253 1286.98 901.71 1292.52C900.759 1302.23 883.494 1323.02 878.203 1334.2C831.286 1433.29 752.095 1327.35 709.249 1327.86C674.503 1328.27 692.413 1230.09 717.867 1200.21Z" fill="#ffbe96" fill-rule="nonzero" opacity="1" stroke="none"/>
<path d="M1340.18 1360.63C1318.04 1361.59 1318.46 1330.52 1332.31 1328.93C1355.77 1326.22 1365.48 1359.54 1340.18 1360.63Z" fill="#5a3c3c" fill-rule="nonzero" opacity="1" stroke="none"/>
<path d="M1424.8 1396.72C1409.82 1385.14 1431.57 1372.62 1441.36 1379.33C1457.94 1390.68 1441.92 1409.97 1424.8 1396.72Z" fill="#5a3c3c" fill-rule="nonzero" opacity="1" stroke="none"/>
<path d="M1274 1395.94C1259.02 1384.35 1280.76 1371.84 1290.55 1378.54C1307.13 1389.89 1291.11 1409.18 1274 1395.94Z" fill="#7b5050" fill-rule="nonzero" opacity="1" stroke="none"/>
<path d="M1400.14 1349.48C1406.14 1346.46 1422.32 1374.9 1405.17 1380.15C1405.17 1380.15 1369.63 1364.8 1400.14 1349.48Z" fill="#5a3c3c" fill-rule="nonzero" opacity="1" stroke="none"/>
<path d="M1354.32 1406.9C1332.69 1382.87 1342.19 1363.78 1365.98 1383.63C1374.62 1390.84 1354.32 1406.9 1354.32 1406.9Z" fill="#5a3c3c" fill-rule="nonzero" opacity="1" stroke="none"/>
<path d="M905.459 1441.59C905.459 1432.68 941.27 1425.46 985.446 1425.46C1029.62 1425.46 1065.43 1432.68 1065.43 1441.59C1065.43 1450.5 1029.62 1457.72 985.446 1457.72C941.27 1457.72 905.459 1450.5 905.459 1441.59Z" fill="#dbb998" fill-rule="nonzero" opacity="1" stroke="none"/>
<path d="M-301.562 3540.96L-263.439 3540.96L-263.439 3542.97L-301.562 3542.97L-301.562 3540.96Z" fill="#453f3b" fill-rule="nonzero" opacity="1" stroke="#67281c" stroke-linecap="butt" stroke-linejoin="round" stroke-width="10.954"/>
<path d="M1334.54 1452.37C1342.61 1459.8 1360.43 1463.27 1370.04 1463.46C1375.35 1463.56 1378.05 1453.77 1383.32 1453.05C1385.64 1452.73 1387.48 1456.26 1389.51 1457.19C1396.07 1460.2 1415.11 1456.24 1418.51 1463.61C1420.41 1467.73 1413.32 1475.42 1411 1487.68C1403.84 1525.43 1414.2 1545.08 1357.68 1550.92C1330.24 1553.75 1309.46 1546.31 1309.46 1546.31C1309.46 1546.31 1319.83 1514.37 1320 1506.29C1320.2 1496.97 1315.08 1450.92 1322.18 1446.4C1323.46 1445.59 1332.51 1450.5 1334.54 1452.37Z" fill="#af7d61" fill-rule="nonzero" opacity="1" stroke="none"/>
</g>
</svg>
