<?xml version="1.0" encoding="UTF-8" standalone="no"?>
<!DOCTYPE svg PUBLIC "-//W3C//DTD SVG 1.1//EN" "http://www.w3.org/Graphics/SVG/1.1/DTD/svg11.dtd">
<!-- Created with Vectornator (http://vectornator.io/) -->
<svg height="100%" stroke-miterlimit="10" style="fill-rule:nonzero;clip-rule:evenodd;stroke-linecap:round;stroke-linejoin:round;" version="1.1" viewBox="0 0 793.8 708.75" width="100%" xml:space="preserve" xmlns="http://www.w3.org/2000/svg" xmlns:vectornator="http://vectornator.io" xmlns:xlink="http://www.w3.org/1999/xlink">
<defs>
<linearGradient gradientTransform="matrix(-1.52388 0 0 1.52388 930.108 -634.295)" gradientUnits="userSpaceOnUse" id="LinearGradient" x1="182.051" x2="214.042" y1="594.002" y2="684.726">
<stop offset="0" stop-color="#d8cfca"/>
<stop offset="1" stop-color="#69625e"/>
</linearGradient>
</defs>
<g id="Calque-5" vectornator:layerName="Calque 5">
<path d="M13.5036 436.362C13.5036 333.359 182.569 249.859 391.123 249.859C599.676 249.859 768.742 333.359 768.742 436.362C768.742 539.366 599.676 622.866 391.123 622.866C182.569 622.866 13.5036 539.366 13.5036 436.362Z" fill="#9b6045" fill-rule="nonzero" opacity="1" stroke="none"/>
<path d="M13.1469 408.683C13.1469 320.239 182.293 248.541 390.944 248.541C599.596 248.541 768.742 320.239 768.742 408.683C768.742 497.128 599.596 568.826 390.944 568.826C182.293 568.826 13.1469 497.128 13.1469 408.683Z" fill="#a9835f" fill-rule="nonzero" opacity="1" stroke="none"/>
</g>
<g id="Calque-2" vectornator:layerName="Calque 2">
<path d="M413.921 43.1771L24.5127 95.1064L62.5353 398.418L450.271 307.542L413.921 43.1771Z" fill="#776c66" fill-rule="nonzero" opacity="1" stroke="none"/>
<path d="M398.349 61.5773L47.1504 108.831L86.2273 368.986L427.249 296.915L398.349 61.5773Z" fill="#f3dbcd" fill-rule="nonzero" opacity="1" stroke="none"/>
<path d="M446.795 307.762L61.6722 395.894L192.614 522.671L610.86 415.759L446.795 307.762Z" fill="#867a73" fill-rule="nonzero" opacity="1" stroke="none"/>
<path d="M608.944 414.773L201.08 518.352L201.084 542.985L608.877 437.589L608.944 414.773Z" fill="#807067" fill-rule="nonzero" opacity="1" stroke="none"/>
<path d="M63.2656 395.851L64.6131 418.895L201.312 543.428L203.697 520.281L63.2656 395.851Z" fill="#574c45" fill-rule="nonzero" opacity="1" stroke="none"/>
<path d="M24.6778 95.2142L19.6385 103.919L64.1074 398.555L72.5282 397.218L24.6778 95.2142Z" fill="#574c45" fill-rule="nonzero" opacity="1" stroke="none"/>
<path d="M454.561 331.327L101.455 406.507L171.276 468.647L526.339 378.129L454.561 331.327Z" fill="#565350" fill-rule="nonzero" opacity="1" stroke="none"/>
<path d="M430.108 445.408C410.526 431.21 406.117 426.675 385.207 430.857C380.438 431.811 346.161 442.572 342.406 438.816C341.643 438.053 395.773 421.67 403.5 422.957C413.833 424.68 433.905 448.161 430.108 445.408Z" fill="#7d675b" fill-rule="nonzero" opacity="1" stroke="none"/>
<path d="M62.4751 143.333L255.476 117.174L274.839 260.03L81.8376 286.189L62.4751 143.333Z" fill="#e3cabc" fill-rule="nonzero" opacity="1" stroke="none"/>
<path d="M75.1174 156.211L117.172 150.913L123.923 204.507L81.8688 209.804L75.1174 156.211Z" fill="#bfb2ab" fill-rule="nonzero" opacity="1" stroke="none"/>
<path d="M268.484 105.057L378.505 87.874L406.256 265.558L296.235 282.742L268.484 105.057Z" fill="#f9cabc" fill-rule="nonzero" opacity="1" stroke="none"/>
<path d="M89.5762 295.775L274.767 270.077L278.864 299.606L93.6737 325.304L89.5762 295.775Z" fill="#f5cab1" fill-rule="nonzero" opacity="1" stroke="none"/>
</g>
<g id="Calque-3" vectornator:layerName="Calque 3">
<path d="M571.56 312.593C569.319 309.135 563.609 309.883 560.368 307.337C548.715 298.18 529.465 285.668 531.837 314.387C533.689 336.802 606.902 330.353 588.856 359.226C586.252 363.392 506.812 334.019 514.584 302.928C521.241 276.303 555.417 274.76 570.204 293.771C572.241 296.39 575.797 319.131 571.56 312.593Z" fill="#e4986a" fill-rule="nonzero" opacity="1" stroke="none"/>
<path d="M542.351 298.663C546.994 296.169 565.568 310.978 565.217 309.488C564.586 306.81 550.184 290.667 539.798 290.303C532.99 290.064 523.331 299.651 526.436 310.131C532.094 329.229 574.481 354.945 583.106 346.32C586.151 343.275 575.723 335.056 574.047 334.752C554.715 331.237 514.629 313.552 542.351 298.663Z" fill="#b87449" fill-rule="nonzero" opacity="1" stroke="none"/>
<path d="M717.04 295.347C717.04 258.511 701.117 239.618 647.334 235.372C593.551 231.126 563.475 247.542 563.475 284.379C563.475 321.215 587.889 386.106 640.611 385.399C693.333 384.691 717.04 332.184 717.04 295.347Z" fill="#f1ab7f" fill-rule="nonzero" opacity="1" stroke="none"/>
<path d="M700.421 273.095C700.421 257.556 672.665 244.959 638.426 244.959C604.188 244.959 576.432 257.556 576.432 273.095C576.432 288.634 604.188 301.231 638.426 301.231C672.665 301.231 700.421 288.634 700.421 273.095Z" fill="url(#LinearGradient)" fill-rule="nonzero" opacity="1" stroke="none"/>
<path d="M713.281 270.302C716.036 277.698 716.905 287.247 716.905 297.196C716.905 331.984 690.923 402.553 617.309 382.465C622.409 379.559 681.714 373.608 679.603 306.839C679.536 304.712 701.064 298.188 707.834 285.296C714.605 272.403 712.59 272.364 713.281 270.302Z" fill="#e4986a" fill-rule="nonzero" opacity="1" stroke="none"/>
<path d="M626.404 320.762C619.057 312.55 606.43 312.899 596.116 310.054C589.525 308.236 596.371 328.596 597.952 331.164C610.068 350.852 644.748 341.265 626.404 320.762Z" fill="#fdb78c" fill-rule="nonzero" opacity="1" stroke="none"/>
<path d="M684.14 292.417C716.678 253.178 641.821 251.673 614.375 255.69C588.409 259.49 575.677 279.797 577.946 270.719C586.667 235.838 670.267 242.056 689.512 257.246C708.758 272.436 698.119 284.792 684.14 292.417Z" fill="#f8f0eb" fill-rule="nonzero" opacity="1" stroke="none"/>
<path d="M695.878 281.209C695.878 273.065 672.153 263.638 640.772 264.098C603.206 264.648 579.886 271.904 579.886 280.049C579.886 288.193 607.423 301.464 638.808 301.464C670.193 301.464 695.878 289.354 695.878 281.209Z" fill="#9e6340" fill-rule="nonzero" opacity="1" stroke="none"/>
<path d="M670.129 290.904C671.937 292.318 693.048 286.636 690.815 279.937C686.692 267.567 617.215 265.67 614.491 273.16C611.275 282.006 649.813 278.505 657.646 279.045C671.597 280.007 650.5 289.333 661.748 290.458C664.532 290.736 667.926 289.18 670.129 290.904Z" fill="#c89a63" fill-rule="nonzero" opacity="1" stroke="none"/>
</g>
</svg>
