<?xml version="1.0" encoding="UTF-8" standalone="no"?>
<!DOCTYPE svg PUBLIC "-//W3C//DTD SVG 1.1//EN" "http://www.w3.org/Graphics/SVG/1.1/DTD/svg11.dtd">
<!-- Created with Vectornator (http://vectornator.io/) -->
<svg height="100%" stroke-miterlimit="10" style="fill-rule:nonzero;clip-rule:evenodd;stroke-linecap:round;stroke-linejoin:round;" version="1.1" viewBox="0 0 793.8 793.8" width="100%" xml:space="preserve" xmlns="http://www.w3.org/2000/svg" xmlns:vectornator="http://vectornator.io" xmlns:xlink="http://www.w3.org/1999/xlink">
<defs/>
<g id="Calque-2" vectornator:layerName="Calque 2">
<path d="M179.954 489.448C187.432 505.243 277.479 549.179 309.543 533.878C341.606 518.577 425.014 419.766 430.244 373.014C435.805 323.298 252.045 242.52 216.227 267.353C185.333 288.773 142.674 410.709 179.954 489.448Z" fill="#916b65" fill-rule="nonzero" opacity="1" stroke="none"/>
<path d="M217.951 267.835C225.757 251.981 279.85 262.647 338.77 291.658C397.69 320.669 439.126 357.039 431.32 372.893C423.513 388.747 369.421 378.081 310.501 349.07C251.581 320.059 210.145 283.689 217.951 267.835Z" fill="#e6dede" fill-rule="nonzero" opacity="1" stroke="none"/>
<path d="M515.816 570.827C539.186 583.562 615.282 574.824 631.711 547.293C660.707 498.705 668.62 358.256 634.573 325.792C596.142 289.147 409.928 316.539 408.464 388.284C407.697 425.869 441.661 530.419 515.816 570.827Z" fill="#d7a46d" fill-rule="nonzero" opacity="1" stroke="none"/>
<path d="M637.177 372.887C654.769 354.669 696.166 337.103 718.179 359.116C755.982 396.919 746.118 457.886 703.664 481.472C687.802 490.284 663.288 492.566 631.615 482.164L638.526 449.446C638.526 449.446 705.875 462.01 700.83 418.4C693.878 358.306 640.635 417.531 640.635 417.531L637.177 372.887Z" fill="#d7a46e" fill-rule="nonzero" opacity="1" stroke="none"/>
<path d="M199.264 315.593C187.403 293.216 152.488 264.876 125.24 279.934C78.4496 305.793 71.0482 367.108 105.313 401.525C118.115 414.384 141.039 423.364 174.353 422.138L176.771 388.786C176.771 388.786 108.577 382.213 125.498 341.703C148.816 285.884 183.58 357.534 183.58 357.534L199.264 315.593Z" fill="#916b65" fill-rule="nonzero" opacity="1" stroke="none"/>
<path d="M416.622 405.296C403.532 418.386 395.195 440.426 384.311 455.663C370.538 474.946 353.816 493.372 337.745 510.782C326.914 522.516 314.643 538.543 298.4 543.184C272.898 550.47 230.187 533.098 206.799 522.385C178.9 509.606 172.334 473.453 172.936 471.045C173.557 468.561 240.638 523.867 294.738 497.076C348.838 470.285 358.246 370.721 360.553 369.183C361.043 368.856 414.142 387.448 420.899 373.935" fill="#81554e" fill-rule="nonzero" opacity="1" stroke="none"/>
<path d="M380.002 459.68C372.484 455.9 388.436 430.849 390.753 422.843C392.986 415.129 394.785 407.289 397.098 399.578C404.157 376.048 399.694 379.394 421.421 377.723C422.644 377.629 428.924 374.65 429.529 375.255C431.412 377.138 423.79 394.939 423.184 396.758C420.135 405.902 387.592 463.496 380.002 459.68Z" fill="#653028" fill-rule="nonzero" opacity="1" stroke="none"/>
<path d="M640.794 485.589C641.039 483.627 641.284 481.666 641.529 479.704" fill="#3da58b" fill-rule="nonzero" opacity="1" stroke="none"/>
<path d="M410.645 382.604C406.764 356.513 454.095 324.615 519.067 313.293C584.038 301.972 644.707 311.825 641.846 338.047C638.876 365.276 596.415 389.6 531.444 400.922C466.472 412.244 414.525 408.695 410.645 382.604Z" fill="#e6dede" fill-rule="nonzero" opacity="1" stroke="none"/>
<path d="M421.779 376.37C419.808 359.195 465.536 335.511 523.914 323.469C582.292 311.428 627.327 319.416 629.298 336.591C631.269 353.766 591.935 374.639 533.556 386.68C475.178 398.722 423.751 393.545 421.779 376.37Z" fill="#b69797" fill-rule="nonzero" opacity="1" stroke="none"/>
<path d="M427.86 373.133C412.35 352.724 436.942 315.336 443.779 312.315C478.882 296.805 459.698 327.826 468.677 358.847C477.657 389.868 512.679 379.712 526.644 374.126C530.521 372.575 596.827 346.646 598.76 345.486C605.183 341.632 615.021 341.078 622.435 341.078C623.977 341.078 626.682 349.598 624.222 351.355C621.726 353.138 619.817 355.517 617.073 357.164C612.712 359.78 560.235 383.409 518.843 389.391C506.794 391.132 470.943 394.932 458.79 392.501C455.539 391.851 443.371 393.541 427.86 373.133Z" fill="#623c31" fill-rule="nonzero" opacity="1" stroke="none"/>
<path d="M231.018 276.541C234.995 264.061 279.288 272.97 329.949 296.441C380.609 319.912 418.453 349.056 414.476 361.537C410.498 374.017 366.205 365.108 315.545 341.637C264.884 318.166 227.04 289.022 231.018 276.541Z" fill="#bca6a6" fill-rule="nonzero" opacity="1" stroke="none"/>
<path d="M450.699 248.069C452.412 257.06 462.548 318.61 452.963 294.873C449.988 287.508 424.154 262.444 422.441 253.453C420.728 244.461 425.665 235.967 433.468 234.48C441.271 232.994 448.985 239.077 450.699 248.069Z" fill="#623c31" fill-rule="nonzero" opacity="1" stroke="none"/>
<path d="M458.731 212.019C458.731 207.458 456.113 204.556 451.868 204.556C447.622 204.556 444.18 208.254 444.18 212.815C444.18 217.377 447.622 221.074 451.868 221.074C456.113 221.074 458.731 216.58 458.731 212.019Z" fill="#623c31" fill-rule="nonzero" opacity="1" stroke="none"/>
<path d="M272.515 316.375C279.011 316.375 288.589 314.585 294.854 316.375C314.722 322.052 363.541 356.337 384.718 335.16C397.266 322.612 361.985 227.549 399.949 235.142C410.849 237.322 417.406 245.695 425.335 252.404C455.798 278.18 409.816 305.186 406.55 328.052C405.128 338.006 415.167 351.107 414.168 360.094C412.468 375.39 373.361 362.841 360.805 359.702L272.515 316.375Z" fill="#623c31" fill-rule="nonzero" opacity="1" stroke="none"/>
<path d="M656.939 452.221C674.491 449.288 682.751 453.098 696.47 438.007C703.397 430.386 700.14 416.043 699.485 407.28C698.372 392.396 719.895 438.791 716.354 445.872C702.005 474.571 685.032 467.033 660.397 467.033C660.397 467.033 643.415 454.482 656.939 452.221Z" fill="#b87449" fill-rule="nonzero" opacity="1" stroke="none"/>
<path d="M492.067 640.962C492.257 640.582 492.447 640.202 492.637 639.822" fill="#623c31" fill-rule="nonzero" opacity="1" stroke="none"/>
<path d="M410.347 379.82C410.475 385.085 410.218 399.211 450.834 407.627C456.489 435.9 467.93 493.172 491.731 516.646C540.185 564.434 612.993 543.838 627.993 540.02C643.249 536.136 605.521 590.004 527.936 573.01C457.333 557.545 434 475.365 423.453 453.161C417.974 441.625 400.524 387.801 410.347 379.82Z" fill="#ca945b" fill-rule="nonzero" opacity="1" stroke="none"/>
<path d="M574.809 407.716C578.631 436.854 581.769 502.01 598.504 520.91C614.984 539.523 621.339 458.266 619.016 447.178C615.628 431.013 619.033 372.302 598.143 390.704C594.505 393.91 573.931 401.018 574.809 407.716Z" fill="#ffc389" fill-rule="nonzero" opacity="1" stroke="none"/>
<path d="M470.244 394.603C504.052 392.53 525.773 389.327 551.443 382.91C562.968 380.028 615.106 360.515 626.111 346.995C635.27 335.742 627.56 323.333 627.697 323.607C627.814 323.842 640.308 334.033 636.394 344.488C631.489 357.59 609.372 371.727 602.437 374.295C570.05 386.29 479.234 409.136 445.009 402.291C431.933 399.676 415.444 394.54 415.444 378.639C415.444 378.639 436.437 396.676 470.244 394.603Z" fill="#ffffff" fill-rule="nonzero" opacity="1" stroke="none"/>
<path d="M637.362 433.78C633.561 428.539 632.459 418.24 633.375 411.292C634.773 400.691 643.98 376.658 654.761 387.806C660.775 394.024 654.567 428.372 648.237 431.281" fill="#b87449" fill-rule="nonzero" opacity="1" stroke="none"/>
<path d="M512.785 384.702C508.628 383.183 546.931 368.155 551.353 366.387C566.968 360.141 603.627 336.497 620.388 342.084C622.758 342.874 621.202 344.379 620.036 345.253C609.748 352.97 595.223 355.544 583.405 360.047C572.759 364.102 523.522 388.625 512.785 384.702Z" fill="#8a584a" fill-rule="nonzero" opacity="1" stroke="none"/>
<path d="M449.683 272.208C446.179 265.199 435.451 253.798 434.49 246.106C431.674 223.582 453.969 239.303 453.969 259.741" fill="#8a584a" fill-rule="nonzero" opacity="1" stroke="none"/>
<path d="M457.475 369.604C453.832 367.783 448.725 357.637 445.788 354.021C442.506 349.982 432.019 342.437 431.373 337.269C429.972 326.065 449.74 322.549 457.086 327.14C463.003 330.838 461.761 341.324 461.761 347.398" fill="#8a584a" fill-rule="nonzero" opacity="1" stroke="none"/>
<path d="M400.959 303.635C394.738 291.192 381.285 269.736 383.903 254.902C385.018 248.582 394.627 232.123 403.396 240.892C411.7 249.196 404.62 264.051 409.487 273.786" fill="#8a584a" fill-rule="nonzero" opacity="1" stroke="none"/>
<path d="M287.047 315.818C313.81 315.818 337.885 327.688 362.582 335.92C370.732 338.637 385.039 335.229 391.213 341.403C407.626 357.816 353.591 351.186 348.572 349.931" fill="#8a584a" fill-rule="nonzero" opacity="1" stroke="none"/>
<path d="M128.462 336.765C129.151 335.387 120.455 345.134 118.252 347.612C111.931 354.723 108.433 367.159 111.871 376.327C119.228 395.947 167.861 418.7 186.529 403.766C190.569 400.534 193.681 392.87 188.444 389.727C184.327 387.258 173.427 391.904 168.024 391.004C146.895 387.482 123.995 373.294 123.995 349.527" fill="#81554e" fill-rule="nonzero" opacity="1" stroke="none"/>
<path d="M384.027 261.848C387.936 273.26 399.076 258.58 391.359 246.211C387.257 239.635 380.085 250.34 384.027 261.848Z" fill="#d59674" fill-rule="nonzero" opacity="1" stroke="none"/>
<path d="M199.338 444.142C195.112 440.002 197.592 418.99 197.498 413.716C197.031 387.411 199.806 362.304 207.187 336.816C208.824 331.162 213.708 313.309 223.844 312.018C241.554 309.764 229.724 343.66 228.403 349.271C218.854 389.821 217.585 431.131 213.037 472.132" fill="#ca9087" fill-rule="nonzero" opacity="1" stroke="none"/>
</g>
</svg>
