<svg version="1.2" xmlns="http://www.w3.org/2000/svg" viewBox="0 0 658 373" width="658" height="373">
	<title>tasses-svg</title>
	<style>
		.s0 { fill: #916b65 } 
		.s1 { fill: #e6dede } 
		.s2 { fill: #d7a46d } 
		.s3 { fill: #d7a46e } 
		.s4 { fill: #81554e } 
		.s5 { fill: #653028 } 
		.s6 { fill: #3da58b } 
		.s7 { fill: #b69797 } 
		.s8 { fill: #623c31 } 
		.s9 { fill: #bca6a6 } 
		.s10 { fill: #b87449 } 
		.s11 { fill: #ca945b } 
		.s12 { fill: #ffc389 } 
		.s13 { fill: #ffffff } 
		.s14 { fill: #8a584a } 
		.s15 { fill: #d59674 } 
		.s16 { fill: #ca9087 } 
	</style>
	<g id="Calque-2">
		<path id="Layer" class="s0" d="m96 285.4c7.4 15.8 97.5 59.8 129.5 44.5 32.1-15.3 115.5-114.1 120.7-160.9 5.6-49.7-178.2-130.5-214-105.6-30.9 21.4-73.5 143.3-36.2 222z"/>
		<path id="Layer" class="s1" d="m134 63.8c7.8-15.8 61.9-5.2 120.8 23.9 58.9 29 100.3 65.3 92.5 81.2-7.8 15.8-61.9 5.2-120.8-23.8-58.9-29-100.4-65.4-92.5-81.3z"/>
		<path id="Layer" class="s2" d="m431.8 366.8c23.4 12.8 99.5 4 115.9-23.5 29-48.6 36.9-189 2.9-221.5-38.5-36.7-224.7-9.3-226.1 62.5-0.8 37.6 33.2 142.1 107.3 182.5z"/>
		<path id="Layer" class="s3" d="m553.2 168.9c17.6-18.2 59-35.8 81-13.8 37.8 37.8 27.9 98.8-14.5 122.4-15.9 8.8-40.4 11.1-72.1 0.7l6.9-32.8c0 0 67.4 12.6 62.3-31-6.9-60.1-60.2-0.9-60.2-0.9z"/>
		<path id="Layer" class="s0" d="m115.3 111.6c-11.9-22.4-46.8-50.7-74.1-35.7-46.8 25.9-54.2 87.2-19.9 121.6 12.8 12.9 35.7 21.9 69.1 20.6l2.4-33.3c0 0-68.2-6.6-51.3-47.1 23.3-55.8 58.1 15.8 58.1 15.8z"/>
		<path id="Layer" class="s4" d="m332.6 201.3c-13.1 13.1-21.4 35.1-32.3 50.4-13.8 19.2-30.5 37.7-46.6 55.1-10.8 11.7-23.1 27.7-39.3 32.4-25.5 7.3-68.2-10.1-91.6-20.8-27.9-12.8-34.5-48.9-33.9-51.4 0.7-2.4 67.7 52.9 121.8 26.1 54.1-26.8 63.5-126.4 65.9-127.9 0.4-0.3 53.5 18.2 60.3 4.7"/>
		<path id="Layer" class="s5" d="m296 255.7c-7.5-3.8 8.4-28.9 10.8-36.9 2.2-7.7 4-15.5 6.3-23.2 7.1-23.6 2.6-20.2 24.3-21.9 1.2-0.1 7.5-3.1 8.1-2.4 1.9 1.8-5.7 19.6-6.3 21.5-3.1 9.1-35.6 66.7-43.2 62.9z"/>
		<path id="Layer" class="s6" d="m556.8 281.6q0.4-3 0.7-5.9"/>
		<path id="Layer" class="s1" d="m326.6 178.6c-3.8-26.1 43.5-58 108.5-69.3 64.9-11.3 125.6-1.5 122.7 24.7-2.9 27.3-45.4 51.6-110.4 62.9-64.9 11.3-116.9 7.8-120.8-18.3z"/>
		<path id="Layer" class="s7" d="m337.8 172.4c-2-17.2 43.7-40.9 102.1-52.9 58.4-12.1 103.4-4.1 105.4 13.1 2 17.2-37.4 38-95.7 50.1-58.4 12-109.8 6.8-111.8-10.3z"/>
		<path id="Layer" class="s8" d="m343.9 169.1c-15.5-20.4 9-57.8 15.9-60.8 35.1-15.5 15.9 15.5 24.9 46.5 9 31.1 44 20.9 57.9 15.3 3.9-1.5 70.2-27.5 72.2-28.6 6.4-3.9 16.2-4.4 23.6-4.4 1.6 0 4.3 8.5 1.8 10.3-2.5 1.7-4.4 4.1-7.1 5.8-4.4 2.6-56.9 26.2-98.3 32.2-12 1.7-47.9 5.5-60 3.1-3.3-0.6-15.4 1-30.9-19.4z"/>
		<path id="Layer" class="s9" d="m147 72.5c4-12.4 48.3-3.5 98.9 19.9 50.7 23.5 88.6 52.7 84.6 65.1-4 12.5-48.3 3.6-99-19.9-50.6-23.4-88.5-52.6-84.5-65.1z"/>
		<path id="Layer" class="s8" d="m366.7 44.1c1.7 9 11.8 70.5 2.3 46.8-3-7.4-28.8-32.5-30.6-41.4-1.7-9 3.3-17.5 11.1-19 7.8-1.5 15.5 4.6 17.2 13.6z"/>
		<path id="Layer" class="s8" d="m374.7 8c0-4.5-2.6-7.4-6.8-7.4-4.3 0-7.7 3.7-7.7 8.2 0 4.6 3.4 8.3 7.7 8.3 4.2 0 6.8-4.5 6.8-9.1z"/>
		<path id="Layer" class="s8" d="m188.5 112.4c6.5 0 16.1-1.8 22.4 0 19.8 5.7 68.6 39.9 89.8 18.8 12.6-12.6-22.7-107.7 15.2-100.1 10.9 2.2 17.5 10.6 25.4 17.3 30.5 25.8-15.5 52.8-18.7 75.7-1.5 9.9 8.6 23 7.6 32-1.7 15.3-40.8 2.7-53.4-0.4z"/>
		<path id="Layer" class="s10" d="m572.9 248.2c17.6-2.9 25.9 0.9 39.6-14.2 6.9-7.6 3.6-22 3-30.7-1.1-14.9 20.4 31.5 16.9 38.6-14.4 28.7-31.4 21.1-56 21.1 0 0-17-12.5-3.5-14.8z"/>
		<path id="Layer" class="s8" d="m408.1 437q0.3-0.6 0.5-1.2"/>
		<path id="Layer" class="s11" d="m326.3 175.8c0.2 5.3-0.1 19.4 40.5 27.8 5.7 28.3 17.1 85.6 40.9 109 48.5 47.8 121.3 27.2 136.3 23.4 15.2-3.9-22.5 50-100.1 33-70.6-15.5-93.9-97.6-104.4-119.8-5.5-11.6-23-65.4-13.2-73.4z"/>
		<path id="Layer" class="s12" d="m490.8 203.7c3.8 29.2 7 94.3 23.7 113.2 16.5 18.6 22.8-62.6 20.5-73.7-3.4-16.2 0-74.9-20.9-56.5-3.6 3.2-24.2 10.3-23.3 17z"/>
		<path id="Layer" class="s13" d="m386.2 190.6c33.9-2.1 55.6-5.3 81.2-11.7 11.6-2.9 63.7-22.4 74.7-35.9 9.2-11.3 1.5-23.7 1.6-23.4 0.1 0.2 12.6 10.4 8.7 20.9-4.9 13.1-27 27.2-34 29.8-32.4 12-123.2 34.8-157.4 28-13.1-2.6-29.6-7.8-29.6-23.7 0 0 21 18.1 54.8 16z"/>
		<path id="Layer" class="s10" d="m553.4 229.8c-3.8-5.3-4.9-15.6-4-22.5 1.4-10.6 10.6-34.6 21.4-23.5 6 6.2-0.2 40.6-6.6 43.5"/>
		<path id="Layer" class="s14" d="m428.8 180.7c-4.2-1.5 34.1-16.5 38.6-18.3 15.6-6.3 52.2-29.9 69-24.3 2.4 0.8 0.8 2.3-0.4 3.2-10.3 7.7-24.8 10.2-36.6 14.7-10.6 4.1-59.9 28.6-70.6 24.7z"/>
		<path id="Layer" class="s14" d="m365.7 68.2c-3.5-7-14.2-18.4-15.2-26.1-2.8-22.5 19.5-6.8 19.5 13.6"/>
		<path id="Layer" class="s14" d="m373.5 165.6c-3.7-1.8-8.8-12-11.7-15.6-3.3-4-13.8-11.6-14.4-16.7-1.4-11.2 18.3-14.8 25.7-10.2 5.9 3.7 4.7 14.2 4.7 20.3"/>
		<path id="Layer" class="s14" d="m317 99.6c-6.3-12.4-19.7-33.9-17.1-48.7 1.1-6.3 10.7-22.8 19.5-14 8.3 8.3 1.2 23.2 6.1 32.9"/>
		<path id="Layer" class="s14" d="m203 111.8c26.8 0 50.9 11.9 75.6 20.1 8.1 2.7 22.4-0.7 28.6 5.5 16.4 16.4-37.6 9.8-42.6 8.5"/>
		<path id="Layer" class="s4" d="m44.5 132.8c0.7-1.4-8 8.3-10.2 10.8-6.4 7.1-9.9 19.6-6.4 28.7 7.3 19.6 56 42.4 74.6 27.5 4.1-3.3 7.2-10.9 1.9-14.1-4.1-2.4-15 2.2-20.4 1.3-21.1-3.5-44-17.7-44-41.5"/>
		<path id="Layer" class="s15" d="m300 57.8c3.9 11.5 15.1-3.2 7.4-15.6-4.1-6.6-11.3 4.1-7.4 15.6z"/>
		<path id="Layer" class="s16" d="m115.3 240.1c-4.2-4.1-1.7-25.1-1.8-30.4-0.5-26.3 2.3-51.4 9.7-76.9 1.6-5.6 6.5-23.5 16.6-24.8 17.8-2.2 5.9 31.7 4.6 37.3-9.5 40.5-10.8 81.8-15.4 122.8"/>
	</g>
</svg>