<?xml version="1.0" encoding="UTF-8" standalone="no"?>
<!DOCTYPE svg PUBLIC "-//W3C//DTD SVG 1.1//EN" "http://www.w3.org/Graphics/SVG/1.1/DTD/svg11.dtd">
<!-- Created with Vectornator (http://vectornator.io/) -->
<svg height="100%" stroke-miterlimit="10" style="fill-rule:nonzero;clip-rule:evenodd;stroke-linecap:round;stroke-linejoin:round;" version="1.1" viewBox="0 0 2037.43 2668.73" width="100%" xml:space="preserve" xmlns="http://www.w3.org/2000/svg" xmlns:vectornator="http://vectornator.io" xmlns:xlink="http://www.w3.org/1999/xlink">
<defs/>
<clipPath id="ArtboardFrame">
<rect height="2668.73" width="2037.43" x="0" y="0"/>
</clipPath>
<g clip-path="url(#ArtboardFrame)" id="Calque-2" vectornator:layerName="Calque 2">
<path d="M741.237 771.841C731.388 794.78 726.436 830.919 719.541 859.879C705.416 919.201 685.422 994.492 782.126 978.375C812.459 973.319 841.985 790.939 815.505 769.755C807.089 763.022 744.871 763.376 741.237 771.841Z" fill="#ffbe96" fill-rule="nonzero" opacity="1" stroke="none"/>
<path d="M914.327 1506.83C914.327 1494.27 949.651 2103.32 910.092 2114.89C870.533 2126.46 852.113 1566.78 852.113 1516.44" fill="#795c4b" fill-rule="nonzero" opacity="1" stroke="none"/>
<path d="M615.037 1441.77C615.037 1427.96 640.758 2013.03 598.527 2025.75C556.296 2038.47 548.62 1507.68 548.62 1452.33" fill="#795c4b" fill-rule="nonzero" opacity="1" stroke="none"/>
<path d="M1252.14 1424.32C1275.78 1355.64 1416.35 882.418 1382.82 776.195C1361.81 709.616 1120.12 570.217 1074.5 654.543C993.356 804.529 1253.44 789.262 1306.63 864.159C1353.08 929.578 1234.24 1336.35 1204.5 1399.18" fill="#795c4b" fill-rule="nonzero" opacity="1" stroke="none"/>
<path d="M1275.19 980.3C1275.19 810.583 1389.1 464.665 1049.61 431.258C998.259 426.204 930.716 402.082 829.056 501.758C748.118 581.117 808.552 877.713 798.1 964.572C787.649 1051.43 824.914 1040.91 845.582 1096.06C866.251 1151.21 1176.49 1276.84 1234.99 1246.2C1280.77 1222.23 1275.19 1054.8 1275.19 980.3Z" fill="#c08c89" fill-rule="nonzero" opacity="1" stroke="none"/>
<path d="M646.116 1987.56C581.818 1973.74 561.198 2015.73 531.995 2040.1C502.792 2064.48 374.892 2118.78 378.64 2139.82C381.943 2158.34 492.912 2167.65 571.932 2141.8C625.181 2124.38 716.698 2140.8 718.032 2077.32C718.032 2077.32 710.415 2001.38 646.116 1987.56Z" fill="#503b2f" fill-rule="nonzero" opacity="1" stroke="none"/>
<path d="M1060.88 478.975C1037.48 492.886 974.421 506.621 958.55 473.765C942.68 440.909 932 383.541 933.998 354.783C940.567 260.252 1056.28 267.263 1053.64 354.702C1051.01 442.14 1084.28 465.064 1060.88 478.975Z" fill="#d89d79" fill-rule="nonzero" opacity="1" stroke="none"/>
<path d="M868.81 234.784C868.81 144.894 940.113 63.2467 1011.64 64.0349C1102.25 65.0334 1112.9 151.346 1112.9 241.236C1112.9 331.127 1082.49 419.084 1010.95 419.084C939.422 419.084 868.81 324.674 868.81 234.784Z" fill="#ffbe96" fill-rule="nonzero" opacity="1" stroke="none"/>
<path d="M1107.16 69.0966C1131.17 95.0453 1145.65 203.892 1112.13 239.218C1113.73 261.059 1109.68 74.5654 1056.82 112.067C997.39 154.237 984.335 82.1518 923.029 116.599C859.624 152.225 890.866 240.387 880.274 241.926C872.569 243.045 879.841 280.09 872.457 277.587C859.676 273.253 836.828 210.945 832.963 176.556C827.864 131.183 866.203 55.9889 914.767 46.7272C922.558 45.2414 963.693 53.9058 999.361 28.8213C1035.03 3.7368 1081.53 41.3847 1107.16 69.0966Z" fill="#5a4646" fill-rule="nonzero" opacity="1" stroke="none"/>
<path d="M947.564 228.502C947.828 215.364 952.433 204.855 957.85 205.031C963.266 205.206 967.443 216 967.18 229.138C966.916 242.277 962.311 252.785 956.894 252.61C951.477 252.434 947.3 241.641 947.564 228.502Z" fill="#463635" fill-rule="nonzero" opacity="1" stroke="none"/>
<path d="M1059.24 232.023C1059.56 218.894 1064.22 208.453 1069.64 208.703C1075.06 208.952 1079.18 219.798 1078.86 232.927C1078.53 246.056 1073.87 256.497 1068.46 256.247C1063.04 255.998 1058.91 245.152 1059.24 232.023Z" fill="#463635" fill-rule="nonzero" opacity="1" stroke="none"/>
<path d="M885.531 250.887C883.629 232.671 838.449 221.397 832.262 257.657C826.322 292.468 869.555 328.804 893.971 324.213" fill="#ffbe96" fill-rule="nonzero" opacity="1" stroke="none"/>
<path d="M1018.65 227.346C1025.98 219.717 1037.94 281.125 1026.3 296.663C1011.88 315.891 1002.89 282.379 1002.89 273.241C1002.89 273.241 1011.32 234.975 1018.65 227.346Z" fill="#ec8657" fill-rule="nonzero" opacity="1" stroke="none"/>
<path d="M978.81 337.705C981.989 337.057 996.757 344.014 1013.78 343.994C1036.93 343.967 1064.36 335.555 1047.95 349.716C1019.47 374.292 961.777 341.178 978.81 337.705Z" fill="#b26f46" fill-rule="nonzero" opacity="1" stroke="none"/>
<path d="M981.988 173.849C982.639 186.552 978.651 180.347 961.597 181.804C954.28 182.428 946.126 181.37 938.795 181.786C911.815 183.316 981.254 159.52 981.988 173.849Z" fill="#75574e" fill-rule="nonzero" opacity="1" stroke="none"/>
<path d="M1050.94 176.724C1058.47 184.239 1056.79 179.436 1072.99 180.522C1134.74 184.665 1031.18 157.025 1050.94 176.724Z" fill="#75574e" fill-rule="nonzero" opacity="1" stroke="none"/>
<path d="M879.123 454.663C804.849 497.46 677.56 727.46 690.883 769.856C704.206 812.251 786.036 820.589 795.33 825.4C805.097 830.456 800.577 788.543 815.39 682.695C824.123 620.291 953.396 411.865 879.123 454.663Z" fill="#b77e7a" fill-rule="nonzero" opacity="1" stroke="none"/>
<path d="M881.915 266.777C893.813 308.614 842.32 233.77 868.162 246.698C868.162 246.698 875.654 244.762 881.915 266.777Z" fill="#da986f" fill-rule="nonzero" opacity="1" stroke="none"/>
<path d="M465.035 2262.85C465.035 2204.58 586.083 2157.35 735.403 2157.35C884.723 2157.35 1005.77 2204.58 1005.77 2262.85C1005.77 2321.11 884.723 2368.35 735.403 2368.35C586.083 2368.35 465.035 2321.11 465.035 2262.85Z" fill="#453f3b" fill-rule="nonzero" opacity="1" stroke="none"/>
<path d="M1252.12 1469.19C1252.12 1456.63 1287.45 2065.68 1247.89 2077.25C1208.33 2088.82 1189.91 1529.14 1189.91 1478.8" fill="#795c4b" fill-rule="nonzero" opacity="1" stroke="none"/>
<path d="M829.173 2022.36C816.198 2027.17 708.045 2152.9 676.802 2184.23C670.296 2190.76 638.48 2232.42 652.041 2238.66C668.425 2246.19 862.361 2158.09 878.203 2151.92C939.545 2128.04 970.695 2123.22 969.628 2089.27C968.56 2055.32 931.194 2023.8 903.097 2009.64" fill="#503b2f" fill-rule="nonzero" opacity="1" stroke="none"/>
<path d="M804.082 1331.55L531.244 1390.79L549.533 1449.28L825.851 1597.72L1254.16 1486.11L1258.44 1423.69L804.082 1331.55Z" fill="#795c4b" fill-rule="nonzero" opacity="1" stroke="none"/>
<path d="M804.841 1244.73L532.003 1308.6L550.292 1371.65L826.61 1531.68L1258.83 1414.25L804.841 1244.73Z" fill="#99735c" fill-rule="nonzero" opacity="1" stroke="none"/>
<path d="M1238.16 1622C1236.35 1622.56 1233.24 1621.46 1232.72 1623.68C1223 1665.18 1240.87 1678.47 1234.87 1721.03C1226.79 1778.32 1233.65 1870.11 1228.45 1927.9C1226.86 1945.55 1248.87 2143.54 1258.79 2153.34C1276.61 2170.95 1252.08 2124.48 1273.52 2127.79C1352.73 2140.02 1354.19 2193.3 1361.63 2105.92C1366.02 2054.46 1356.5 1894.31 1366 1843.81C1378.61 1776.8 1404.23 1713.49 1414.96 1647.2" fill="#5b4f3e" fill-rule="nonzero" opacity="1" stroke="none"/>
<path d="M673.252 1315.83C568.382 1295.07 477.991 1354.17 475.462 1384.01C459.209 1575.8 569.894 1946.38 590.246 1995.37C610.597 2044.36 680.455 2043.59 683.721 1992.98C693.465 1841.95 591.404 1615.95 670.36 1481.72C681.475 1462.83 785.106 1354.47 810.965 1349.3C846.368 1342.22 788.465 1413.51 789.288 1425.22C801.299 1596.1 806.361 1855.97 828.255 2011.82C838.412 2084.13 942.861 2083.85 951.103 2041.3C959.346 1998.75 1000.82 1852.27 949.81 1540.47C940.268 1482.15 1097.8 1433.37 1097.8 1366.06" fill="#846f6d" fill-rule="nonzero" opacity="1" stroke="none"/>
<path d="M671.162 1350.72L771.716 1350.72L771.716 2332.53L671.162 2332.53L671.162 1350.72Z" fill="#453f3b" fill-rule="nonzero" opacity="1" stroke="none"/>
<path d="M1058.18 2227.74C1031.66 2239.7 886.123 2299.54 841.823 2323.18C767.339 2362.93 821.682 2398.78 888.36 2400.2C917.055 2400.81 1168.18 2394.82 1182.55 2376.71C1200.15 2354.54 1178.71 2260.27 1153.42 2219.26" fill="#503b2f" fill-rule="nonzero" opacity="1" stroke="none"/>
<path d="M1264.21 2117.66C1235.34 2120.16 1103.26 2132.57 1053.89 2140.23C970.882 2153.1 1041.54 2213.08 1077.13 2226.44C1112.72 2239.81 1347.25 2288.57 1366.52 2276.22C1390.11 2261.09 1368.4 2173.03 1357.17 2125.87" fill="#503b2f" fill-rule="nonzero" opacity="1" stroke="none"/>
<path d="M1621.8 1906.14C1620.91 1891.3 1627.41 2612.75 1669.55 2623.92C1711.69 2635.09 1691.05 1973.01 1687.46 1913.56" fill="#795c4b" fill-rule="nonzero" opacity="1" stroke="none"/>
<path d="M1878.98 1707.26C1877.92 1692.43 1892.38 2413.76 1934.64 2424.46C1976.9 2435.17 1948.96 1773.36 1944.72 1713.95" fill="#795c4b" fill-rule="nonzero" opacity="1" stroke="none"/>
<path d="M1201.61 1754.46C1200.93 1739.61 1196.88 2461.08 1238.86 2472.86C1280.83 2484.64 1269.87 1822.34 1267.15 1762.84" fill="#795c4b" fill-rule="nonzero" opacity="1" stroke="none"/>
<path d="M1238 1540.15L1961.15 1640.8L1942.02 1740.15L1652.9 1992.32L1200.67 1807.28L1238 1540.15Z" fill="#795c4b" fill-rule="nonzero" opacity="1" stroke="none"/>
<path d="M1502.03 1498.41L1965.59 1622.39L1657.45 1868.46L1219.08 1707.14L1502.03 1498.41Z" fill="#5c4d44" fill-rule="nonzero" opacity="1" stroke="none"/>
<path d="M1545.83 1369.81C1692.62 1392.75 1874.9 1323.08 1908.59 1428.62C1979.32 1650.21 1797.87 1812.25 1639.52 1795.02C1625.29 1793.47 1295.03 1680 1211.05 1688.2C1190.11 1748.53 1145.84 2028.46 1175.07 2246.91C1178.06 2269.26 1068.94 2336.36 1052.54 2198.08C1034.7 2047.63 994.007 1693.59 1002.37 1575.26C1010.73 1456.92 1122.9 1440.18 1178.3 1386.75C1238.89 1328.33 1545.83 1369.81 1545.83 1369.81Z" fill="#6c6152" fill-rule="nonzero" opacity="1" stroke="none"/>
<path d="M1530.45 1079.9L1226.19 1470.2L1102.58 1426.67L1537.29 967.681L1530.45 1079.9Z" fill="#ad8166" fill-rule="nonzero" opacity="1" stroke="none" vectornator:layerName="(rectangle)"/>
<path d="M32.3809 1226.13L1230.32 1334.42L1226.96 1470.54L25.7478 1336.15L32.3809 1226.13Z" fill="#967662" fill-rule="nonzero" opacity="1" stroke="none" vectornator:layerName="(rectangle)"/>
<path d="M32.5506 1220.83C32.5506 1220.83 612.417 971.072 613.905 974.497L1490.37 1060.26C1491.86 1063.68 1225.04 1360.62 1225.04 1360.62C1223.16 1362.26 31.8491 1230 31.8491 1230C30.3609 1226.58 30.6749 1222.47 32.5506 1220.83Z" fill="#b8927b" fill-rule="nonzero" opacity="1" stroke="none"/>
<path d="M404.884 1197.13C404.884 1176 454.967 1158.86 516.747 1158.86C578.527 1158.86 628.61 1176 628.61 1197.13C628.61 1218.27 578.527 1235.41 516.747 1235.41C454.967 1235.41 404.884 1218.27 404.884 1197.13Z" fill="#9c7754" fill-rule="nonzero" opacity="1" stroke="none"/>
<path d="M639.549 926.007L1104.47 948.271L842.544 1126.38L456.199 1077.93L639.549 926.007Z" fill="#656160" fill-rule="nonzero" opacity="1" stroke="none"/>
<path d="M970.53 953.876C934.55 953.876 801.792 902.513 770.764 944.706C764.618 953.064 773.225 935.446 749.209 963.994C725.193 992.542 742.936 1040.56 776.515 1083.37C810.095 1126.17 831.569 1048.07 849.613 1024.93C867.656 1001.8 872.08 1008.36 923.976 998.242C975.872 988.123 970.53 953.876 970.53 953.876Z" fill="#ffbe96" fill-rule="nonzero" opacity="1" stroke="none"/>
<path d="M743.136 797.9L281.566 776.051L390.813 1077.85L845.556 1128.37L743.136 797.9Z" fill="#867b7a" fill-rule="nonzero" opacity="1" stroke="none"/>
<path d="M1215.07 552.014C1152.46 491.823 1130.6 630.344 1149.71 678.16C1172 733.933 1146.08 860.667 1106.35 914.098C1099.7 923.04 951.502 936.616 901.221 935.823C847.825 934.98 812.256 984.117 858.887 1008.31C895.636 1027.37 1186.45 1035.34 1213.16 1004.38C1239.88 973.422 1262.92 919.417 1268.72 864.502C1281.77 740.771 1277.67 612.206 1215.07 552.014Z" fill="#ffbe96" fill-rule="nonzero" opacity="1" stroke="none"/>
<path d="M957.022 1268.69C957.022 1247.75 905.479 1230.77 841.897 1230.77C778.316 1230.77 726.773 1247.75 726.773 1268.69C726.773 1289.64 778.316 1306.62 841.897 1306.62C905.479 1306.62 957.022 1289.64 957.022 1268.69Z" fill="#64b89b" fill-rule="nonzero" opacity="1" stroke="none"/>
<path d="M430.928 1113.52C430.928 1081.88 440.349 1071.17 520.173 1066.98C567.219 1064.51 606.66 1076.05 606.66 1107.69C606.66 1139.33 590.63 1210.2 521.524 1209.21C452.418 1208.23 430.928 1145.16 430.928 1113.52Z" fill="#ffb36b" fill-rule="nonzero" opacity="1" stroke="none"/>
<path d="M465.335 1100.18C455.848 1110.7 463.484 1126.93 473.234 1158.29C482.983 1189.65 510.882 1204.67 517.387 1208.35C517.387 1211.92 493.933 1206.83 493.001 1206.41C465.094 1193.65 447.534 1178.58 436.044 1145.81C433.08 1137.35 427.538 1092.98 437.682 1087.41C446.671 1082.48 472.404 1092.34 465.335 1100.18Z" fill="#e19d5c" fill-rule="nonzero" opacity="1" stroke="none"/>
<path d="M438.072 1089.69C438.072 1079.25 474.461 1065.26 521.091 1065.26C567.722 1065.26 602.469 1081.58 602.469 1092.02C602.469 1102.46 569.135 1108.59 522.505 1108.59C475.874 1108.59 438.072 1100.13 438.072 1089.69Z" fill="#ffd5ad" fill-rule="nonzero" opacity="1" stroke="none"/>
<path d="M435.953 1124.48C413.127 1126.46 397.608 1138.43 416.544 1158.88C423.223 1166.1 476.608 1179.14 468.4 1184.57C456.39 1192.52 435.079 1190.96 422.968 1184.81C357.524 1151.59 406.818 1086.46 433.441 1111.38" fill="#ffb36b" fill-rule="nonzero" opacity="1" stroke="none"/>
<path d="M954.026 1063.25L1303.1 1140.73L1218.36 1276.98L797.195 1162.1L954.026 1063.25Z" fill="#f9e1d2" fill-rule="nonzero" opacity="1" stroke="none"/>
<path d="M1402.08 493.689C1396.64 513.55 1378.52 534.072 1376.24 556.242C1375.06 567.829 1387.34 579.307 1394.33 570.798" fill="#d98f7a" fill-rule="nonzero" opacity="1" stroke="none"/>
<path d="M1576.06 658.695C1599.74 649.438 1555.54 631.804 1633.74 678.25C1718 728.296 1749.66 751.446 1803.09 843.959C1885.2 986.126 1913.77 1235.06 1928.3 1484.93C1905.22 1539.22 1863.59 1556.33 1804.27 1579.01C1740.46 1603.4 1624.07 1627.18 1567.53 1570.45C1523.49 1526.26 1368.47 1036.49 1395.99 955.479C1414.76 900.231 1433.87 821.081 1484.03 750.439C1507.42 717.491 1529.32 676.966 1576.06 658.695Z" fill="#df8752" fill-rule="nonzero" opacity="1" stroke="none"/>
<path d="M1314.84 1032.55C1302.28 1042.76 1195.83 1182.71 1191.81 1221.91C1180.04 1336.59 1292.73 1333.14 1343.34 1280.3C1370.63 1251.79 1409.46 1153.88 1426.23 1113.03" fill="#ffcfb1" fill-rule="nonzero" opacity="1" stroke="none"/>
<path d="M1359.29 514.84C1375.7 404.792 1423.71 330.591 1480.84 343.231C1537.96 355.87 1674.53 388.679 1658.13 498.727C1653.13 532.241 1577.46 621.631 1596.39 650.885C1609.48 671.11 1589.88 691.249 1579.43 699.865C1564.8 711.931 1523.82 731.204 1505.05 706.844C1483.03 678.272 1455 701.899 1415.5 713.951C1359.43 731.061 1342.89 624.888 1359.29 514.84Z" fill="#ffcfb1" fill-rule="nonzero" opacity="1" stroke="none"/>
<path d="M1539.99 488.864C1540.74 499.453 1541.46 507.789 1541.23 515.119C1540.96 523.342 1539.49 530.301 1535.48 537.758C1524.04 559.015 1503.38 573.38 1506.19 578.735C1510.37 586.696 1533.11 564.456 1535.38 561.984C1556.76 538.677 1559.51 493.103 1551.67 474.021C1544.85 457.447 1515.83 470.567 1515.83 470.567C1515.83 470.567 1539.39 480.196 1539.99 488.864Z" fill="#ce9c7f" fill-rule="nonzero" opacity="1" stroke="none"/>
<path d="M1508.68 745.159C1474.39 724.651 1375.3 834.643 1353.13 878.845C1344.15 896.755 1273.65 1040.22 1277.04 1056.76C1281.49 1078.43 1393.6 1154.43 1407.74 1167.06C1462.17 1215.7 1537.67 971.128 1544.24 887.845C1550.82 804.562 1508.68 745.159 1508.68 745.159Z" fill="#f49b64" fill-rule="nonzero" opacity="1" stroke="none"/>
<path d="M1615.46 1864.89C1614.07 1865.73 1622.15 1814.63 1626.88 1748.72C1629.92 1706.33 1629.11 1488.1 1625.84 1445.6C1603.6 1156.61 1553.19 1050.46 1838.74 968.596C1873.71 958.569 1913.95 939.333 1950.93 948.344C2056.09 973.971 1986.54 1499.15 1974.95 1571C1963.36 1642.85 1957.43 1701.06 1926.69 1710.43C1910.9 1715.24 1939.11 1562.03 1945.99 1480.96C1952.87 1399.89 1998.4 1198.5 1936.36 1185.9C1899.83 1178.48 1874.54 1179.31 1840.81 1187.52C1643.05 1235.71 1693.12 1462.57 1680.83 1657.14C1676.19 1730.66 1660.06 1807.35 1660.06 1879.9" fill="#795c4b" fill-rule="nonzero" opacity="1" stroke="none"/>
<path d="M1359.91 507.96C1350.63 527.831 1338.53 548.781 1335.57 570.942C1334.32 580.333 1347.57 600.27 1353.15 588.316" fill="#e3905d" fill-rule="nonzero" opacity="1" stroke="none"/>
<path d="M1378.09 452.069C1380.62 458.557 1383.73 456.793 1388.12 454.963C1418.16 442.451 1364.61 417.37 1378.09 452.069Z" fill="#75574e" fill-rule="nonzero" opacity="1" stroke="none"/>
<path d="M1363.6 493.446C1365.9 480.26 1371.28 470.184 1375.61 470.941C1379.95 471.698 1381.59 483.001 1379.29 496.186C1376.99 509.372 1371.61 519.448 1367.27 518.691C1362.94 517.934 1361.29 506.632 1363.6 493.446Z" fill="#75574e" fill-rule="nonzero" opacity="1" stroke="none"/>
<path d="M1626.82 331.814C1626.82 293.383 1656.86 262.228 1693.92 262.228C1730.98 262.228 1761.02 293.383 1761.02 331.814C1761.02 370.246 1730.98 401.401 1693.92 401.401C1656.86 401.401 1626.82 370.246 1626.82 331.814Z" fill="#5a493e" fill-rule="nonzero" opacity="1" stroke="none"/>
<path d="M1442.56 507.182C1441.89 505.189 1440.59 497.711 1441.97 494.909C1446.69 485.375 1463.16 478.87 1474.08 485.333C1495.17 497.811 1465.85 493.36 1457.01 499.899" fill="#e1ab8a" fill-rule="nonzero" opacity="1" stroke="none"/>
<path d="M1082.34 1124.31L1227.07 1085.94L1230.88 1101.96L1086.15 1140.34L1082.34 1124.31Z" fill="#d0b3a1" fill-rule="nonzero" opacity="1" stroke="none"/>
<path d="M453.413 1090.49C453.413 1082.66 483.163 1076.32 519.863 1076.32C556.562 1076.32 586.313 1082.66 586.313 1090.49C586.313 1098.31 556.562 1104.65 519.863 1104.65C483.163 1104.65 453.413 1098.31 453.413 1090.49Z" fill="#dbb998" fill-rule="nonzero" opacity="1" stroke="none"/>
<path d="M1355.68 640.508C1368.85 644.497 1389 628.541 1384.86 639.71C1383.59 643.162 1362.17 652.474 1359.03 652.474" fill="#9a613e" fill-rule="nonzero" opacity="1" stroke="none"/>
<path d="M2595.25 2873.31L2575.97 2873.31L2575.97 2874.33L2595.25 2874.33L2595.25 2873.31Z" fill="#453f3b" fill-rule="nonzero" opacity="1" stroke="#67281c" stroke-linecap="butt" stroke-linejoin="round" stroke-width="10.954"/>
<path d="M924.034 1180.5C924.034 1149.15 914.339 1138.54 832.187 1134.39C783.769 1131.94 743.178 1143.37 743.178 1174.72C743.178 1206.08 759.676 1276.31 830.797 1275.33C901.918 1274.35 924.034 1211.85 924.034 1180.5Z" fill="#4ccb9f" fill-rule="nonzero" opacity="1" stroke="none"/>
<path d="M888.624 1167.29C898.387 1177.71 890.529 1193.79 880.495 1224.86C870.461 1255.94 841.749 1270.82 835.055 1274.48C835.055 1278 859.192 1272.97 860.151 1272.54C888.872 1259.9 906.944 1244.97 918.769 1212.5C921.819 1204.12 927.523 1160.15 917.084 1154.63C907.832 1149.75 881.349 1159.52 888.624 1167.29Z" fill="#35a37d" fill-rule="nonzero" opacity="1" stroke="none"/>
<path d="M916.682 1156.89C916.682 1146.55 879.232 1132.68 831.242 1132.68C783.251 1132.68 747.491 1148.86 747.491 1159.2C747.491 1169.55 781.797 1175.62 829.787 1175.62C877.778 1175.62 916.682 1167.23 916.682 1156.89Z" fill="#a3f3d7" fill-rule="nonzero" opacity="1" stroke="none"/>
<path d="M918.862 1191.36C942.355 1193.33 958.326 1205.19 938.838 1225.45C931.964 1232.6 877.022 1245.53 885.47 1250.91C897.83 1258.78 919.763 1257.24 932.226 1251.15C999.579 1218.23 948.847 1153.69 921.448 1178.38" fill="#35a37d" fill-rule="nonzero" opacity="1" stroke="none"/>
<path d="M765.239 1156.37C765.239 1148.81 794.63 1142.69 830.886 1142.69C867.142 1142.69 896.533 1148.81 896.533 1156.37C896.533 1163.92 867.142 1170.04 830.886 1170.04C794.63 1170.04 765.239 1163.92 765.239 1156.37Z" fill="#7dc4ab" fill-rule="nonzero" opacity="1" stroke="none"/>
<path d="M1202.69 484.797C1327.6 593.143 1328.51 791.237 1283.13 857.515C1279.36 863.026 1153.82 813.189 1122.85 819.416L1144.85 529.836C1144.85 529.836 1164.11 451.337 1202.69 484.797Z" fill="#b77e7a" fill-rule="nonzero" opacity="1" stroke="none"/>
<path d="M1423.87 405.448C1354.05 419.049 1406.58 364.415 1415.93 356.091C1429.8 343.739 1574.7 227.825 1689.58 381.722C1716.64 417.974 1741.49 507.258 1717.35 547.485C1703.45 570.652 1648.2 630.539 1617.75 643.83C1571.81 663.882 1481.11 623.082 1482.8 593.655C1484.49 564.227 1512.7 562.035 1511.3 507.275C1510.44 473.825 1490.15 448.88 1452.07 482.33C1417.57 512.626 1493.69 391.847 1423.87 405.448Z" fill="#5a493e" fill-rule="nonzero" opacity="1" stroke="none"/>
</g>
</svg>
